SplineFontDB: 3.0
FontName: Schopf1397
FullName: Schopf 1397
FamilyName: Schopf1397
Weight: Book
Copyright: Christoph Pfeiffer (2017)\nhttp://www.e-codices.unifr.ch/en/ubb/A-II-0002/1v\nSchopf (1397)
UComments: "2017-10-6: Created with FontForge (http://fontforge.org)"
Version: 1.1.01
ItalicAngle: 0
UnderlinePosition: -102
UnderlineWidth: 51
Ascent: 819
Descent: 205
InvalidEm: 0
LayerCount: 2
Layer: 0 0 "Back" 1
Layer: 1 0 "Zeichen" 0
XUID: [1021 515 -1555464417 9833432]
StyleMap: 0x0000
FSType: 0
OS2Version: 0
OS2_WeightWidthSlopeOnly: 0
OS2_UseTypoMetrics: 1
CreationTime: 1507292339
ModificationTime: 1516698350
PfmFamily: 65
TTFWeight: 400
TTFWidth: 5
LineGap: 92
VLineGap: 92
OS2TypoAscent: 0
OS2TypoAOffset: 1
OS2TypoDescent: 0
OS2TypoDOffset: 1
OS2TypoLinegap: 92
OS2WinAscent: 0
OS2WinAOffset: 1
OS2WinDescent: 0
OS2WinDOffset: 1
HheadAscent: 0
HheadAOffset: 1
HheadDescent: 0
HheadDOffset: 1
OS2FamilyClass: 2306
OS2Vendor: 'PfEd'
Lookup: 258 0 0 "kerning" { "Gk" [210,160,2] "GG" [200,160,2] "kk" [140,80,2] } ['kern' ('DFLT' <'dflt' > 'latn' <'dflt' > ) ]
MarkAttachClasses: 1
DEI: 91125
KernClass2: 29 25 "Gk"
 9 A A.aldus
 1 B
 1 C
 17 D O S S.s01 D.s01
 1 E
 1 F
 1 G
 1 H
 1 I
 13 J J.s02 J.s05
 1 K
 3 L U
 1 M
 1 N
 1 P
 1 Q
 1 R
 1 T
 7 V V.s01
 1 W
 1 X
 1 Y
 1 Z
 7 A.heart
 5 Y.s01
 5 J.s03
 5 J.s01
 5 J.s04
 1 a
 1 b
 1 c
 1 d
 1 e
 5 f l t
 1 g
 1 h
 1 i
 3 j y
 1 k
 3 m u
 3 n w
 1 o
 1 p
 1 q
 3 r v
 1 s
 1 x
 1 z
 9 adieresis
 9 odieresis
 9 udieresis
 5 s.s01

StartChar: A
Encoding: 65 65 0
Width: 747
VWidth: 0
Flags: HMW
LayerCount: 2
Fore
SplineSet
41.05859375 805.834960938 m 1
 93.41796875 766.56640625 207.951171875 749.11328125 324.66796875 749.11328125 c 0
 444.65625 749.11328125 565.734375 767.657226562 620.2734375 800.381835938 c 1
 625.7265625 791.655273438 629 776.383789062 629 762.203125 c 0
 629 755.658203125 627.908203125 749.114257812 626.818359375 744.750976562 c 1
 610.45703125 748.022460938 590.822265625 749.11328125 571.1875 749.11328125 c 0
 554.826171875 749.11328125 538.46484375 748.022460938 524.283203125 745.841796875 c 1
 536.283203125 645.48828125 615.91015625 49.9111328125 623.546875 10.642578125 c 1
 667.177734375 5.1884765625 684.630859375 0.8251953125 721.716796875 -5.7197265625 c 0
 721.716796875 -6.810546875 722.302734375 -8.4365234375 722.302734375 -10.1767578125 c 0
 722.302734375 -11.2451171875 722.01953125 -12.1728515625 721.1015625 -12.5224609375 c 2
 159.384765625 -12.5224609375 l 1
 144.984375 -68.134765625 123.4375 -133.815429688 100.755859375 -199.325195312 c 1
 98.583984375 -197.883789062 95.33203125 -191.791015625 94.845703125 -189.881835938 c 0
 97.802734375 -179.158203125 99.05859375 -169.079101562 99.05859375 -159.614257812 c 0
 99.05859375 -106.510742188 59.5234375 -72.8154296875 59.5234375 -53.5 c 0
 59.5234375 -53.1923828125 59.533203125 -52.88671875 59.55078125 -52.5859375 c 0
 61.40234375 -25.2783203125 76.462890625 -13.201171875 93.228515625 -13.201171875 c 1
 106.146484375 -13.201171875 120.078125 -20.37109375 129.763671875 -33.2705078125 c 1
 138.353515625 -10.0732421875 139.72265625 10.193359375 140.810546875 37.041015625 c 0
 140.830078125 38.421875 140.841796875 39.806640625 140.841796875 41.19921875 c 0
 140.841796875 92.9482421875 125.990234375 152.578125 107.111328125 214.081054688 c 0
 88.033203125 276.236328125 68.625 339.162109375 57.87890625 402.801757812 c 0
 54.580078125 422.3359375 53.05078125 440.790039062 53.05078125 458.249023438 c 0
 53.05078125 602.577148438 157.53515625 678.983398438 230.767578125 735.930664062 c 1
 230.20703125 735.920898438 229.642578125 735.920898438 229.068359375 735.920898438 c 0
 181.12109375 738.850585938 145.28515625 742.185546875 105.9296875 742.185546875 c 0
 81.642578125 742.185546875 56.013671875 740.915039062 25.369140625 737.495117188 c 0
 24.916015625 739.719726562 24.697265625 742.838867188 24.697265625 746.529296875 c 0
 24.697265625 766.497070312 31.076171875 803.211914062 40.9140625 805.834960938 c 1
 41.05859375 805.834960938 l 1
425.486328125 737.758789062 m 1
 392.720703125 735.040039062 361.0703125 735.791992188 336.58984375 733.885742188 c 1
 335.810546875 695.1015625 333.771484375 656.20703125 333.771484375 624.94140625 c 0
 333.771484375 621.885742188 333.79296875 618.90234375 333.833984375 616 c 0
 369.736328125 588.028320312 392.09765625 567.782226562 425.705078125 541.016601562 c 1
 425.435546875 570.750976562 425.359375 600.884765625 425.359375 630.541992188 c 0
 425.359375 667.590820312 425.4765625 703.897460938 425.486328125 737.758789062 c 1
279.3515625 732.234375 m 1
 233.560546875 479.505859375 192.888671875 219.77734375 163.345703125 8.8818359375 c 1
 202.306640625 8.0087890625 240.443359375 7.529296875 272.91796875 7.50390625 c 1
 289.53515625 242.280273438 282.54296875 479 299.015625 732.189453125 c 1
 279.3515625 732.234375 l 1
325.26953125 504.939453125 m 1
 323.740234375 459.818359375 305.87890625 111.958007812 300.11328125 7.4404296875 c 1
 343.51171875 7.724609375 417.42578125 7.7470703125 434.201171875 8.1943359375 c 1
 433.55859375 89.4716796875 426.228515625 301.73828125 422.740234375 438.943359375 c 1
 399.79296875 453.90234375 353.63671875 485.90234375 325.26953125 504.939453125 c 1
EndSplineSet
EndChar

StartChar: n
Encoding: 110 110 1
Width: 444
VWidth: 0
Flags: HMW
LayerCount: 2
Fore
SplineSet
328.020507812 -38.9833984375 m 4
 308.538085938 -0.908203125 281.618164062 32.009765625 249.240234375 48.88671875 c 4
 247.220703125 48.88671875 243.1796875 47.876953125 237.120117188 45.857421875 c 4
 195.365234375 33.22265625 175.040039062 -31.3408203125 170.306640625 -37.7333984375 c 4
 169.208984375 -39.21484375 167.34375 -40.0078125 165.508789062 -40.0078125 c 4
 163.653320312 -40.0078125 161.830078125 -39.197265625 160.865234375 -37.4677734375 c 4
 132.080078125 3.09765625 106.442382812 30.70703125 64.41015625 30.70703125 c 4
 61.716796875 30.70703125 60.3701171875 31.380859375 60.3701171875 32.7265625 c 4
 60.3701171875 35.419921875 61.796875 36.11328125 64.41015625 36.7666015625 c 4
 75.3603515625 39.50390625 84.87890625 44.42578125 85.6201171875 51.9169921875 c 4
 91.6640625 123.397460938 94.1142578125 190.56640625 94.1142578125 254.046875 c 4
 94.1142578125 283.032226562 93.603515625 311.25 92.6904296875 338.756835938 c 5
 71.654296875 356.416015625 54.5087890625 379.1171875 29.060546875 384.20703125 c 6
 24.0107421875 385.216796875 l 6
 23.076171875 385.403320312 23 386.563476562 23 387.237304688 c 4
 23 389.2578125 23.673828125 390.603515625 25.0205078125 391.27734375 c 4
 56.8955078127 408.364257812 90.6679687504 442.083984375 109.735351562 465.587890625 c 4
 111.540039062 466.939453125 113.424804688 467.609375 115.110351562 467.609375 c 4
 116.614257812 467.609375 117.959960938 467.076171875 118.950195312 466.016601562 c 4
 143.622070312 440.189453125 166.40625 391.63671875 199.697265625 391.63671875 c 4
 200.49609375 391.63671875 201.30078125 391.665039062 202.112304688 391.721679688 c 4
 206.247070312 391.935546875 210.709960938 393.764648438 213.890625 395.317382812 c 4
 249.577148438 418.883789062 267.8046875 442.463867188 273.48046875 465.006835938 c 4
 274.301757812 468.272460938 275.712890625 469.52734375 277.2421875 469.52734375 c 4
 279.689453125 469.52734375 282.44140625 466.317382812 283.580078125 462.987304688 c 4
 287.620117188 452.213867188 292.333984375 442.956054688 297.720703125 435.211914062 c 4
 311.395507812 414.926757812 330.711914062 403.608398438 353.775390625 398.8515625 c 4
 358.825195312 397.841796875 366.88671875 397.002929688 377.510742188 394.306640625 c 4
 381.073242188 393.40234375 382.432617188 391.586914062 382.432617188 389.602539062 c 4
 382.432617188 386.747070312 379.618164062 383.540039062 376.5 382.1875 c 4
 365.538085938 376.563476562 351.697265625 358.05859375 351.25 346.836914062 c 4
 349.875 312.32421875 349.41015625 278.138671875 349.41015625 244.845703125 c 4
 349.41015625 188.5078125 350.7421875 134.728515625 351.25 86.2568359375 c 5
 356.481445312 71.455078125 397.8125 52.9267578125 407.810546875 52.9267578125 c 6
 418.415039062 52.9267578125 l 6
 420.30078125 52.9267578125 421.01953125 52.419921875 421.01953125 51.66015625 c 4
 421.01953125 49.48046875 415.11328125 45.21875 413.870117188 44.8466796875 c 4
 394.34375 38.11328125 379.025390625 27.845703125 367.915039062 14.0419921875 c 4
 356.805664062 0.23828125 346.200195312 -14.40625 336.100585938 -37.97265625 c 4
 334.75390625 -39.9931640625 333.0703125 -41.0029296875 331.05078125 -41.0029296875 c 4
 329.030273438 -41.0029296875 328.020507812 -40.3291015625 328.020507812 -38.9833984375 c 4
268.430664062 87.2666015625 m 4
 268.844726562 136.688476562 271.995117188 190.275390625 271.995117188 243.37109375 c 4
 271.995117188 277.817382812 270.668945312 312.056640625 266.41015625 344.817382812 c 4
 264.177734375 361.990234375 241.692382812 380.119140625 212.879882812 385.216796875 c 5
 190.998046875 370.299804688 185.076171875 361.600585938 182.580078125 334.716796875 c 4
 176.520507812 232.370117188 177.194335938 155.2734375 176.520507812 103.426757812 c 6
 176.520507812 102.416992188 l 6
 176.520507812 97.03125 179.213867188 92.3173828125 184.600585938 88.27734375 c 4
 208.166992188 68.7509765625 223.31640625 58.9873046875 238.129882812 58.9873046875 c 4
 257.250976562 60.3505859375 268.364257812 70.1572265625 268.430664062 87.2666015625 c 4
EndSplineSet
EndChar

StartChar: a
Encoding: 97 97 2
Width: 364
VWidth: 0
Flags: HMW
LayerCount: 2
Fore
SplineSet
142.66015625 479.399414062 m 2
 142.666015625 479.399414062 l 0
 149.723632812 479.399414062 147.876953125 458.560546875 149.384765625 451.708984375 c 0
 158.021484375 411.934570312 239.109375 330.872070312 292.817382812 330.872070312 c 0
 293.196289062 330.872070312 293.57421875 330.875976562 293.950195312 330.884765625 c 0
 300.720703125 330.561523438 307.880859375 328.646484375 307.880859375 325.251953125 c 0
 307.880859375 324.162109375 307.142578125 322.919921875 305.416992188 321.529296875 c 0
 301.7578125 318.608398438 298.869140625 313.299804688 298.499023438 310.30859375 c 0
 291.379882812 252.700195312 287.153320312 203.514648438 287.153320312 146.204101562 c 0
 287.153320312 125.002929688 287.731445312 102.689453125 288.956054688 78.4267578125 c 0
 289.915039062 59.4287109375 319.896484375 37.5107421875 337.668945312 35.857421875 c 0
 340.01171875 35.720703125 341.359375 34.8720703125 341.359375 33.8623046875 c 0
 341.359375 33.099609375 340.591796875 32.244140625 338.905273438 31.533203125 c 0
 299.932617188 15.1064453125 279.865234375 -11.2783203125 262.572265625 -42.291015625 c 0
 262.1875 -42.505859375 261.62109375 -42.8876953125 261.09375 -42.8876953125 c 0
 261.025390625 -42.8876953125 260.958007812 -42.8818359375 260.891601562 -42.8681640625 c 0
 260.142578125 -42.7099609375 259.634765625 -42.326171875 259.205078125 -41.310546875 c 0
 249.209960938 -16.9140625 227.637695312 25.3876953125 195.602539062 35.4267578125 c 1
 150.994140625 18.13671875 139.288085938 -14.248046875 114.5625 -40.6728515625 c 0
 113.310546875 -41.568359375 111.776367188 -42.58984375 110.26171875 -42.58984375 c 0
 110.033203125 -42.58984375 109.805664062 -42.56640625 109.579101562 -42.5166015625 c 0
 108.439453125 -42.2626953125 107.120117188 -40.5703125 107.120117188 -40.025390625 c 0
 92.43359375 1.1865234375 57.0791015625 13.5009765625 23 22.6513671875 c 0
 23 24.6962890625 34.453125 34.12109375 36.267578125 41.62109375 c 0
 41.6376953125 63.8134765625 42.8212890625 97.80859375 42.8212890625 136.573242188 c 0
 42.8212890625 167.147460938 42.0869140625 200.688476562 42.0869140625 233.745117188 c 0
 42.0869140625 234.03515625 42.0869140625 234.325195312 42.0869140625 234.615234375 c 1
 74.61328125 243.030273438 102.552734375 249.538085938 128.255859375 263.494140625 c 1
 89.6416015625 286.125976562 57.8623046875 313.283203125 55.7041015625 351.151367188 c 0
 55.6279296875 352.465820312 55.5908203125 353.765625 55.5908203125 355.05078125 c 0
 55.5908203125 402.399414062 105.524414062 430.182617188 137.328125 476.404296875 c 0
 139.431640625 478.5 141.193359375 479.39453125 142.66015625 479.399414062 c 2
81.521484375 366.016601562 m 1
 72.7392578125 359.25 68.9892578125 351.487304688 68.9892578125 343.224609375 c 0
 68.9892578125 305.681640625 146.415039062 257.82421875 180.997070312 246.2421875 c 1
 175.611328125 240.4375 l 1
 164.427734375 244.698242188 150.525390625 251.083984375 136.1875 258.991210938 c 1
 131.400390625 253.747070312 129.703125 241.616210938 129.2421875 233.657226562 c 0
 128.258789062 216.698242188 127.12890625 195.98828125 127.12890625 174.549804688 c 0
 127.12890625 113.508789062 136.2890625 46.5615234375 184.08984375 43.4580078125 c 0
 186.629882812 43.29296875 188.708007812 43.1240234375 190.390625 43.1240234375 c 0
 195.04296875 43.1240234375 196.677734375 44.412109375 196.721679688 50.6279296875 c 0
 196.609375 52.8447265625 196.557617188 55.732421875 196.557617188 59.2060546875 c 0
 196.557617188 96.609375 202.608398438 202.00390625 204.325195312 270.602539062 c 1
 167.04296875 304.051757812 124.6796875 337.54296875 81.5205078125 366.016601562 c 1
 81.521484375 366.016601562 l 1
EndSplineSet
EndChar

StartChar: L
Encoding: 76 76 3
Width: 734
VWidth: 0
Flags: HMW
LayerCount: 2
Fore
SplineSet
632.2734375 792.936523438 m 6
 634.232421875 790.307617188 635.791992188 786.243164062 635.791992188 785.16796875 c 4
 635.791992188 784.314453125 635.209960938 783.721679688 634.102539062 783.021484375 c 4
 632.21875 781.830078125 630.466796875 781.240234375 628.890625 781.240234375 c 4
 626.28515625 781.240234375 624.313476562 782.017578125 622.864257812 785.194335938 c 6
 607.7265625 785.194335938 l 6
 561.704101562 780.905273438 559.752929688 743.283203125 529.892578125 736.952148438 c 4
 527.45703125 736.436523438 524.791015625 736.201171875 522.069335938 736.201171875 c 4
 514.306640625 736.201171875 506.083007812 738.115234375 501.39453125 740.881835938 c 4
 485.401367188 750.325195312 482.877929688 785.192382812 470.534179688 785.192382812 c 6
 470.513671875 785.192382812 l 5
 372.028320312 784.907226562 l 6
 370.640625 784.453125 369.443359375 778.591796875 369.268554688 776.546875 c 4
 355.874023438 619.87109375 347.733398438 501.497070312 347.733398438 328.579101562 c 4
 347.733398438 240.389648438 349.850585938 138.01171875 354.467773438 9.1298828125 c 4
 354.751953125 1.2275390625 365.515625 -2.1064453125 376.8125 -2.1064453125 c 4
 387.787109375 -2.1064453125 399.263671875 1.0390625 402.124023438 6.2001953125 c 4
 403.911132812 9.8994140625 405.321289062 20.2822265625 405.321289062 27.69140625 c 4
 405.321289062 29.134765625 405.268554688 30.466796875 405.153320312 31.6123046875 c 4
 404.130859375 41.833984375 402.608398438 51.1240234375 402.608398438 59.791015625 c 4
 406.223632812 116.448242188 427.555664062 144.826171875 480.673828125 144.826171875 c 4
 481.583984375 144.826171875 482.504882812 144.819335938 483.434570312 144.80078125 c 4
 516.69921875 144.80078125 537.827148438 125.6953125 547.375 108.678710938 c 4
 548.92578125 105.915039062 552.787109375 98.30859375 554.568359375 98.30859375 c 4
 554.891601562 98.30859375 555.145507812 98.5595703125 555.305664062 99.134765625 c 4
 556.998046875 105.225585938 557.811523438 110.875976562 557.811523438 116.543945312 c 4
 557.811523438 122.998046875 556.7578125 129.474609375 554.748046875 136.653320312 c 4
 551.796875 144.483398438 505.395507812 158.3515625 490.115234375 163.40625 c 5
 532.869140625 345.921875 544.528320312 449.796875 574.203125 598.65625 c 4
 581.5390625 635.461914062 594.495117188 665.725585938 608.813476562 686.641601562 c 4
 620.732421875 704.052734375 641.310546875 718.552734375 661.53515625 718.552734375 c 4
 663.224609375 718.552734375 664.912109375 718.451171875 666.591796875 718.243164062 c 4
 685.984375 715.829101562 709.325195312 699.201171875 709.555664062 678.358398438 c 4
 709.55859375 678.18359375 709.559570312 678.0078125 709.559570312 677.833007812 c 4
 709.559570312 662.559570312 702.250976562 647.458984375 690.80859375 638.548828125 c 4
 687.043945312 635.618164062 682.615234375 634.305664062 678.112304688 634.305664062 c 4
 665.099609375 634.305664062 651.465820312 645.260742188 651.465820312 659.782226562 c 4
 651.465820312 661.181640625 651.592773438 662.614257812 651.859375 664.073242188 c 4
 653.763671875 674.5234375 665.650390625 685.729492188 678.940429688 685.953125 c 4
 679.038085938 685.954101562 679.1328125 685.955078125 679.23046875 685.955078125 c 4
 692.3046875 685.955078125 697.41015625 670.90625 698.42578125 668.267578125 c 5
 699.411132812 670.154296875 699.90234375 672.40234375 699.90234375 674.82421875 c 4
 699.90234375 686.139648438 689.177734375 701.264648438 667.845703125 701.264648438 c 4
 667.197265625 701.264648438 666.538085938 701.250976562 665.8671875 701.22265625 c 4
 645.017578125 700.33203125 631.475585938 667.588867188 630.102539062 650.450195312 c 4
 610.260742188 479.420898438 602.693359375 335.0703125 602.693359375 186.756835938 c 4
 602.693359375 131.920898438 603.727539062 76.5439453125 605.557617188 19.076171875 c 4
 605.557617188 11.8603515625 608.1953125 1.623046875 610.541015625 1.623046875 c 4
 627.333984375 -0.1494140625 656.680664062 -3.6796875 684.825195312 -3.6796875 c 4
 687.651367188 -3.6796875 690.465820312 -8.12890625 693.25390625 -8.12890625 c 4
 693.310546875 -8.12890625 693.368164062 -8.126953125 693.423828125 -8.1240234375 c 4
 695.264648438 -10.587890625 696.18359375 -13.4072265625 696.18359375 -15.79296875 c 4
 696.18359375 -18.1787109375 695.263671875 -20.1298828125 693.421875 -20.8603515625 c 4
 636.255859375 -20.357421875 578.756835938 -20.166015625 521.521484375 -20.166015625 c 4
 349.612304688 -20.166015625 180.08203125 -21.8935546875 29.0849609375 -22.0791015625 c 5
 26.349609375 -15.833984375 25 -8.525390625 25 -1.091796875 c 4
 25 20.8955078125 36.8056640625 43.990234375 59.498046875 43.990234375 c 4
 61.62890625 43.990234375 63.8544921875 43.787109375 66.1767578125 43.359375 c 4
 92.771484375 37.7724609375 86.93359375 14.2900390625 103.420898438 5.0341796875 c 4
 119.731445312 -4.119140625 142.826171875 -4.291015625 142.826171875 -4.291015625 c 5
 158.373046875 117.286132812 165.189453125 259.5078125 165.189453125 405.110351562 c 4
 165.189453125 530.278320312 160.15234375 657.9453125 151.291015625 777.140625 c 4
 149.85546875 782.965820312 143.068359375 783.618164062 135.848632812 783.618164062 c 4
 135.635742188 783.625 135.424804688 783.629882812 135.212890625 783.629882812 c 4
 135.116210938 783.629882812 l 4
 110 779.404296875 103.110351562 771.697265625 103.110351562 762.279296875 c 4
 103.110351562 751.518554688 112.10546875 738.5234375 113.18359375 725.94140625 c 4
 113.243164062 725.243164062 113.2734375 724.5625 113.2734375 723.900390625 c 4
 113.2734375 710.618164062 101.469726562 704.802734375 88.6689453125 704.802734375 c 4
 73.505859375 704.802734375 56.9423828125 712.963867188 56.9423828125 726.541015625 c 4
 56.9423828125 729.388671875 57.669921875 732.47265625 59.291015625 735.770507812 c 4
 61.798828125 740.87109375 63.548828125 746.55078125 63.57421875 752.272460938 c 4
 63.5771484375 752.361328125 63.578125 752.450195312 63.578125 752.541015625 c 4
 63.578125 762.124023438 49.8408203125 785.940429688 49.8408203125 792.088867188 c 4
 49.8408203125 792.706054688 49.9794921875 793.145507812 50.2841796875 793.374023438 c 4
 72.7724609375 792.802734375 95.236328125 792.646484375 116.856445312 792.646484375 c 4
 143.149414062 792.646484375 168.192382812 792.87890625 190.513671875 792.87890625 c 4
 190.767578125 792.87890625 l 4
 287.82421875 792.87890625 394.4921875 793.317382812 495.426757812 793.317382812 c 4
 542.836914062 793.317382812 588.983398438 793.220703125 632.2734375 792.935546875 c 5
 632.2734375 792.936523438 l 6
EndSplineSet
EndChar

StartChar: i
Encoding: 105 105 4
Width: 235
VWidth: 0
Flags: HMW
LayerCount: 2
Fore
SplineSet
138.264648438 -36.4013671875 m 4
 118.846679688 5.8232421875 84.8369140625 11.927734375 50.1923828125 26.154296875 c 4
 46.5712890625 27.640625 44.2294921875 27.6162109375 43.060546875 31.4462890625 c 4
 42.8896484375 32.00390625 42.8134765625 32.494140625 42.8134765625 32.943359375 c 4
 42.8134765625 34.9072265625 44.2705078125 36.0947265625 45.697265625 38.830078125 c 4
 50.5302734375 48.0908203125 52.8076171875 62.4775390625 54.666015625 78.736328125 c 4
 62.0244140625 134.53125 65.130859375 175.309570312 65.130859375 225.831054688 c 4
 65.130859375 259.579101562 63.744140625 297.673828125 61.3134765625 347.49609375 c 4
 57.7685546875 358.537109375 28.712890625 353.4921875 23.9775390625 359.10546875 c 4
 23.40625 359.84765625 23 360.571289062 23 361.49609375 c 4
 23 361.859375 23.0625 362.252929688 23.2021484375 362.69140625 c 4
 23.859375 364.7421875 24.884765625 365.240234375 26.56640625 366.545898438 c 4
 60.6337890625 393.000976562 82.34765625 428.076171875 99.869140625 462.56640625 c 4
 101.139648438 464.524414062 101.909179688 466.573242188 103.80859375 466.573242188 c 4
 103.833007812 466.573242188 l 4
 106.067382812 466.551757812 106.567382812 464.701171875 107.471679688 462.598632812 c 4
 126.154296875 419.232421875 149.486328125 395.866210938 181.0703125 392.88671875 c 4
 185.125 392.564453125 187.411132812 391.037109375 187.411132812 389.137695312 c 4
 187.411132812 386.604492188 186.671875 384.217773438 182.873046875 379.78515625 c 4
 165.810546875 367.327148438 162.923828125 356.1875 161.185546875 333.915039062 c 4
 157.893554688 257.963867188 152.012695312 153.206054688 152.012695312 108.395507812 c 4
 152.012695312 101.337890625 152.158203125 95.7685546875 152.483398438 92.03125 c 4
 154.020507812 74.3330078125 180.700195312 61.0556640625 200.69921875 54.9833984375 c 4
 206.5078125 53.21875 212.497070312 52.3955078125 212.8203125 49.009765625 c 4
 212.831054688 48.888671875 212.836914062 48.7685546875 212.836914062 48.650390625 c 4
 212.836914062 44.8984375 207.096679688 42.814453125 201.979492188 39.73828125 c 4
 191.65625 33.4970703125 181.803710938 25.1279296875 172.42578125 14.6328125 c 4
 159.129882812 -0.244140625 147.926757812 -20.8779296875 146.02734375 -36.705078125 c 4
 145.544921875 -39.181640625 144.112304688 -40.23828125 142.592773438 -40.23828125 c 4
 140.793945312 -40.23828125 138.873046875 -38.7578125 138.264648438 -36.4013671875 c 4
EndSplineSet
EndChar

StartChar: s
Encoding: 115 115 5
Width: 408
VWidth: 0
Flags: HMW
LayerCount: 2
Fore
SplineSet
226 478 m 4
 228 478 230.817382812 475.657226562 232.150390625 473.657226562 c 4
 272.243164062 431.52734375 303.064453125 417.999023438 346.501953125 417.999023438 c 4
 347 418 l 6
 352 418 l 6
 355.384765625 418 356.646484375 414.013671875 356.646484375 409.977539062 c 4
 356.646484375 408.219726562 356.407226562 406.452148438 356 405 c 4
 329.302734375 385.748046875 309.58984375 360.556640625 292 330 c 5
 310.671875 298.993164062 344.272460938 283.330078125 377 276 c 5
 371.754882812 245.08203125 369.24609375 214.725585938 369.24609375 185.432617188 c 4
 369.24609375 142.08203125 374.7421875 101.061523437 385 64 c 4
 385 63.3330078125 384.333007812 62.3330078125 383 61 c 4
 369.537109375 57.5537109375 358.58984375 56.2451171875 346.516601562 56.2451171875 c 4
 337.739257812 56.2451171875 328.3671875 56.9365234375 317 58 c 5
 268.973632812 35.9775390625 237.516601562 2.2783203125 214 -38 c 5
 207.760742188 -34.45703125 206.6171875 -32.16796875 206.6171875 -28.90625 c 4
 206.6171875 -27.0537109375 206.986328125 -24.8876953125 207 -22 c 4
 207 -18.6669921875 206.333007812 -16.3330078125 205 -15 c 4
 173.434570312 8.810546875 145.534179688 22.9169921875 99.84765625 39.25390625 c 5
 85.13671875 20.5595703125 62.2607421875 -12.05859375 47 -26 c 4
 33.701171875 -38.1484375 25.3330078125 -43 24 -43 c 4
 23.3330078125 -43 23 -42.6669921875 23 -42 c 4
 23 -41.3330078125 23.8330078125 -40.1669921875 25.5 -38.5 c 4
 63.5908203125 1.544921875 117.354492188 74.6796875 141 139 c 5
 133.592773438 171.86328125 101.930664062 188.661132812 70.677734375 188.661132812 c 4
 67.1005859375 188.661132812 63.529296875 188.44140625 60 188 c 5
 73.8388671875 213.650390625 80.6396484375 239.684570312 80.6396484375 264.416992188 c 4
 80.6396484375 287.541015625 74.6953125 309.52734375 63 329 c 4
 59.12890625 335.4453125 48.8330078125 339.557617188 45 344 c 5
 141.2578125 387.651367188 166.677734375 407.193359375 215 471 c 4
 217.9296875 474.869140625 220 478 226 478 c 4
184 366 m 5
 173.768554688 350.3359375 168.116210938 321.592773438 168.116210938 296.911132812 c 4
 168.116210938 280.426757812 170.637695312 265.75390625 176 258 c 4
 186 248.666992188 197.666992188 244 211 244 c 5
 227.666992188 266.666992188 244.666992188 292 262 320 c 4
 262.666992188 322 263 323.666992188 263 325 c 4
 263 329 262 332 260 334 c 4
 234.666992188 350.666992188 209.333007812 361.333007812 184 366 c 5
218 229 m 5
 200.666992188 203 179 168.333007812 157 125 c 5
 175.666992188 108.333007812 231.8984375 86.4296875 268 78 c 4
 269.274414062 77.6806640625 270.504882812 77.384765625 271.4296875 77.384765625 c 4
 272.393554688 77.384765625 273.024414062 77.705078125 273.024414062 78.6533203125 c 4
 273.024414062 78.7607421875 273.016601562 78.8759765625 273 79 c 4
 272.977539062 82.0751953125 272.96484375 85.1513671875 272.96484375 88.228515625 c 4
 272.96484375 123.279296875 274.556640625 158.407226562 280 193 c 4
 280 197 279.333007812 200 278 202 c 4
 264 217.333007812 244 226.333007812 218 229 c 5
EndSplineSet
EndChar

StartChar: hyphen
Encoding: 45 45 6
Width: 296
VWidth: 0
Flags: HMW
LayerCount: 2
Fore
SplineSet
31.4560546875 277.31640625 m 4
 31.2641740869 277.437970032 31.1775424675 277.669182018 31.1775424675 277.983987591 c 0
 31.1775424675 280.373591835 36.1691860684 287.579790729 38.009765625 288.20703125 c 4
 54.3940383383 305.50951676 76.8835152064 325.153109181 93.1875 343.666015625 c 5
 125.838929958 335.108938559 161.432435846 333.003920512 194.282214672 333.003920512 c 0
 218.088419641 333.003920512 240.453649948 334.109452367 259.213867188 334.666015625 c 5
 234.316839566 322.955890759 215.320702065 297.529045325 205.833984375 286.2109375 c 4
 204.776760362 285.378982773 203.345160534 284.698242188 202.65234375 284.698242188 c 4
 201.960232711 284.698242188 201.024498585 284.328606692 200.573242188 283.876953125 c 4
 177.396536545 284.222515583 126.211427834 289.159372325 87.2970547287 289.159372325 c 0
 68.2095522899 289.159372325 52.07426995 287.971612425 43.64453125 284.471679688 c 4
 41.644793309 283.308291754 32.8264989005 277.299467636 31.5510086481 277.299467636 c 0
 31.5122628374 277.299467636 31.4804773281 277.305012421 31.4560546875 277.31640625 c 4
EndSplineSet
Validated: 1
EndChar

StartChar: Z
Encoding: 90 90 8
Width: 1073
VWidth: 0
Flags: HMW
LayerCount: 2
Fore
SplineSet
921.72265625 801.370117188 m 4
 923.138671875 800.109375 924.094726562 798.532226562 924.094726562 796.8046875 c 4
 924.094726562 796.004882812 923.90234375 795.173828125 923.471679688 794.327148438 c 4
 850.046875 678.491210938 640.442382812 480.45703125 640.442382812 480.45703125 c 5
 640.134765625 477.280273438 639.990234375 474.461914062 639.990234375 471.9609375 c 4
 639.990234375 436.340820312 674.997070312 465.829101562 687.94921875 438.793945312 c 4
 689.008789062 436.315429688 689.493164062 433.84375 689.493164062 431.416015625 c 4
 689.493164062 416.586914062 672.587890625 403.401367188 658.024414062 400.283203125 c 4
 633.853515625 400.870117188 644.853515625 448.823242188 617.013671875 448.823242188 c 4
 614.6484375 448.823242188 611.999023438 448.447265625 609.020507812 447.629882812 c 4
 602.002929688 443.104492188 575.421875 414.118164062 575.421875 414.118164062 c 5
 578.41796875 399.942382812 600.997070312 371.82421875 624.052734375 362.971679688 c 4
 625.76171875 362.341796875 627.921875 362.07421875 630.440429688 362.07421875 c 4
 644.745117188 362.07421875 670.610351562 371.755859375 690.745117188 371.755859375 c 4
 703.189453125 371.755859375 713.456054688 368.333984375 717.509765625 357.284179688 c 5
 717.356445312 340.334960938 690.639648438 321.362304688 675.375976562 310.018554688 c 5
 702.189453125 305.39453125 727.333984375 289.634765625 727.333984375 270.958007812 c 4
 727.333984375 264.185546875 724.193359375 257.036132812 716.865234375 249.888671875 c 4
 707.359375 240.6171875 699.139648438 236.8046875 692.024414062 236.8046875 c 4
 671.41796875 236.8046875 659.9375 267.1484375 653.311523438 290.490234375 c 5
 644.796875 271.146484375 635.092773438 252.005859375 614.744140625 242.951171875 c 4
 610.965820312 241.296875 607.666992188 240.534179688 604.793945312 240.534179688 c 4
 590.6796875 240.534179688 586.651367188 257.606445312 586.651367188 277.518554688 c 4
 586.651367188 294.625976562 589.319335938 313.819335938 591.2265625 326.159179688 c 4
 591.30078125 326.655273438 591.337890625 327.1640625 591.337890625 327.68359375 c 4
 591.337890625 341.890625 560.2578125 365.180664062 536.692382812 382.038085938 c 5
 536.692382812 382.038085938 523.944335938 370.65234375 522.474609375 367.245117188 c 4
 521.703125 365.416015625 521.349609375 363.768554688 521.349609375 362.272460938 c 4
 521.349609375 347.435546875 558.477539062 347.6171875 562.95703125 332.17578125 c 4
 565.635742188 323.208984375 567.083984375 315.850585938 567.083984375 310.024414062 c 4
 567.083984375 298.24609375 561.576171875 292.666015625 548.8984375 292.666015625 c 4
 542.987304688 292.666015625 535.53125 293.787109375 526.36328125 295.971679688 c 4
 510.2890625 299.938476562 520.36328125 342.649414062 500.064453125 342.649414062 c 4
 496.1640625 342.649414062 491.123046875 340.971679688 484.524414062 336.991210938 c 5
 410.344726562 267.526367188 285.27734375 138.112304688 148.893554688 9.7060546875 c 5
 418.28125 16.1611328125 671.208007812 71.900390625 777.182617188 278.413085938 c 4
 801.200195312 327.076171875 797.814453125 404.37109375 800.545898438 458.40234375 c 4
 803.30078125 505.258789062 838.87109375 526.7265625 878.155273438 526.7265625 c 4
 879.510742188 526.7265625 880.87109375 526.712890625 882.234375 526.686523438 c 4
 918.44140625 525.385742188 950.64453125 500.256835938 957.52734375 464.763671875 c 4
 964.099609375 430.92578125 983.166992188 410.0625 997.022460938 402.919921875 c 4
 1002.56445312 400.587890625 1007.79101562 398.512695312 1012.77246094 398.512695312 c 4
 1017.60644531 398.512695312 1022.20703125 400.578125 1026.640625 406.478515625 c 4
 1033.28222656 418.012695312 1035.875 426.959960938 1035.875 433.936523438 c 4
 1035.875 456.783203125 1006.46972656 458.22265625 1002.42285156 460.430664062 c 4
 1001.98925781 460.668945312 1001.79882812 460.87890625 1001.79882812 461.065429688 c 4
 1001.79882812 462.004882812 1006.16308594 462.352539062 1008.9375 462.419921875 c 4
 1009.07226562 462.424804688 1009.20800781 462.426757812 1009.34570312 462.426757812 c 4
 1021.92871094 462.426757812 1045.92285156 449.825195312 1047.76855469 434.293945312 c 4
 1048.20605469 431.008789062 1048.44628906 427.626953125 1048.44628906 424.209960938 c 4
 1048.44628906 397.26171875 1035.63671875 368.150390625 991.704101562 367.083984375 c 4
 991.6875 367.083984375 l 4
 966.30859375 367.083984375 932.583007812 380.077148438 919.596679688 395.786132812 c 4
 914.642578125 401.775390625 912.723632812 407.479492188 912.723632812 413.1484375 c 4
 912.723632812 427.478515625 924.337890625 441.590820312 930.609375 459.50390625 c 4
 930.779296875 460.284179688 930.859375 461.025390625 930.859375 461.731445312 c 4
 930.859375 468.158203125 923.5078125 471.772460938 915.721679688 477.447265625 c 4
 915.500976562 477.447265625 915.0546875 477.41796875 914.969726562 477.030273438 c 4
 910.385742188 456.036132812 910.89453125 425.662109375 878.868164062 424.3671875 c 4
 851.412109375 424.6328125 836.7109375 446.296875 836.7109375 469.516601562 c 4
 836.7109375 471.645507812 836.81640625 473.788085938 837.026367188 475.927734375 c 4
 837.026367188 477.876953125 836.786132812 479.116210938 836.323242188 479.116210938 c 6
 836.3125 479.115234375 l 6
 835.506835938 479.083007812 831.981445312 476.401367188 828.4765625 473.155273438 c 4
 824.936523438 469.643554688 823.744140625 464.623046875 823.744140625 458.83984375 c 4
 823.744140625 446.939453125 829.2734375 431.795898438 829.2734375 419.963867188 c 4
 829.2734375 419.109375 829.251953125 418.272460938 829.206054688 417.454101562 c 4
 828.364257812 327.712890625 811.198242188 234.533203125 811.198242188 140.159179688 c 4
 811.198242188 91.5869140625 816.623046875 42.6982421875 832.928710938 -6.201171875 c 4
 832.931640625 -6.201171875 l 4
 837.09375 -6.201171875 839.309570312 -7.990234375 839.309570312 -10.4951171875 c 4
 839.309570312 -10.4970703125 l 4
 839.309570312 -12.39453125 838.1015625 -14.697265625 835.581054688 -16.9482421875 c 4
 830.333007812 -21.6279296875 827.668945312 -26.763671875 823.87890625 -39.5009765625 c 4
 821.428710938 -47.7626953125 819.630859375 -53.5 817.708007812 -53.5 c 4
 817.70703125 -53.5 l 4
 816.803710938 -53.5 815.869140625 -52.3115234375 814.833984375 -49.63671875 c 4
 811.626953125 -27.4580078125 801.704101562 -25.3505859375 783.623046875 -23.763671875 c 5
 783.622070312 -23.76171875 l 5
 665.8984375 -19.9736328125 536.403320312 -15.2548828125 403.55078125 -15.2548828125 c 4
 304.274414062 -15.2548828125 203.12109375 -19.4658203125 103.607421875 -31.6572265625 c 5
 103.607421875 -31.6572265625 75.4248046875 -31.384765625 50.125 -31.384765625 c 4
 40.8525390625 -31.384765625 31.9677734375 -31.5341796875 25 -31.9404296875 c 5
 162.258789062 99.5341796875 297.147460938 237.254882812 434.604492188 370.212890625 c 4
 438.799804688 374.274414062 441.752929688 377.642578125 442.9453125 380.80859375 c 4
 444.025390625 383.748046875 444.515625 386.315429688 444.515625 388.575195312 c 4
 444.515625 409.23046875 400.541015625 403.750976562 396.681640625 420.446289062 c 4
 395.662109375 424.642578125 395.1796875 428.581054688 395.1796875 432.217773438 c 4
 395.1796875 448.94921875 404.513671875 459.354492188 418.514648438 459.354492188 c 4
 424.822265625 459.354492188 432.065429688 457.360351562 439.827148438 453.0234375 c 4
 453.661132812 445.245117188 439.456054688 406.369140625 459.030273438 406.369140625 c 4
 460.918945312 406.369140625 463.12890625 406.766601562 465.71875 407.629882812 c 5
 493.900390625 435.974609375 l 5
 484.466796875 451.9765625 461.223632812 476.799804688 443.71484375 484.041015625 c 4
 441.817382812 484.794921875 439.340820312 485.107421875 436.421875 485.107421875 c 4
 422.379882812 485.107421875 398.057617188 476.979492188 378.6328125 476.979492188 c 4
 368.84375 476.979492188 360.293945312 478.862304688 354.912109375 484.521484375 c 4
 351.995117188 487.658203125 350.740234375 490.8125 350.740234375 493.95703125 c 4
 350.740234375 510.345703125 383.181640625 526.44140625 393.780273438 538.302734375 c 5
 367.352539062 543.55859375 342.849609375 559.69140625 342.849609375 578.142578125 c 4
 342.849609375 585.083007812 346.14453125 592.346679688 353.862304688 599.490234375 c 4
 363.362304688 608.290039062 371.506835938 611.927734375 378.50390625 611.927734375 c 4
 399.46484375 611.927734375 410.279296875 580.966796875 416.342773438 557.254882812 c 5
 425.350585938 576.372070312 435.545898438 595.259765625 456.12890625 603.779296875 c 4
 459.751953125 605.2578125 462.924804688 605.94140625 465.694335938 605.94140625 c 4
 479.288085938 605.94140625 483.336914062 590.659179688 483.336914062 572.134765625 c 4
 483.336914062 554.162109375 479.872070312 533.15234375 477.484375 519.98828125 c 4
 477.405273438 519.545898438 477.3671875 519.083007812 477.3671875 518.599609375 c 4
 477.3671875 506.752929688 503.177734375 482.793945312 523.912109375 466.166015625 c 5
 559.270507812 501.735351562 l 5
 561.193359375 506.760742188 562.034179688 510.438476562 562.034179688 513.177734375 c 4
 562.034179688 527.388671875 537.876953125 515.973632812 526.178710938 537.508789062 c 4
 522.537109375 544.129882812 520.852539062 550.158203125 520.852539062 555.353515625 c 4
 520.852539062 567.60546875 529.698242188 575.275390625 544.067382812 575.275390625 c 4
 550.197265625 575.275390625 557.325195312 573.969726562 565.194335938 571.134765625 c 4
 575.142578125 567.462890625 577.015625 560.44140625 577.015625 553.247070312 c 4
 577.015625 548.872070312 576.443359375 544.434570312 576.443359375 540.641601562 c 4
 576.443359375 534.697265625 578.145507812 530.345703125 586.928710938 530.345703125 c 4
 588.286132812 530.345703125 589.813476562 530.463867188 591.532226562 530.713867188 c 5
 621.375 556.3359375 741.036132812 682.524414062 799.958007812 739.271484375 c 4
 802.556640625 741.774414062 805.454101562 743.732421875 805.454101562 744.858398438 c 4
 805.453125 746.952148438 803.33203125 748.125976562 800.919921875 748.125976562 c 4
 759.610351562 750.072265625 719.684570312 751.227539062 681.318359375 751.227539062 c 4
 395.7578125 751.227539062 197.29296875 665.336914062 159.788085938 291.328125 c 4
 159.7890625 291.286132812 159.790039062 291.241210938 159.790039062 291.196289062 c 4
 159.790039062 290.690429688 159.780273438 290.014648438 159.780273438 289.247070312 c 4
 159.780273438 286.181640625 160.170898438 281.638671875 164.081054688 280.578125 c 4
 164.270507812 280.528320312 164.458984375 280.504882812 164.646484375 280.504882812 c 4
 166.23828125 280.504882812 167.737304688 282.364257812 168.611328125 284.698242188 c 4
 175.046875 295.455078125 180.21484375 299.680664062 184.70703125 299.680664062 c 4
 184.708984375 299.680664062 l 4
 192.66796875 299.680664062 203.172851562 284.5859375 205.5234375 273.844726562 c 4
 206.0546875 271.5625 206.291992188 269.192382812 206.291992188 266.775390625 c 4
 206.291992188 253.07421875 199.4296875 237.866210938 194.529296875 228.557617188 c 4
 186.46875 218.709960938 173.033203125 211.772460938 167.66015625 200.91015625 c 4
 167.220703125 200.004882812 167.033203125 199.166992188 167.033203125 198.372070312 c 4
 167.033203125 193.938476562 173.26171875 190.8828125 173.961914062 185.215820312 c 4
 173.961914062 185.212890625 l 4
 173.961914062 169.86328125 141.28515625 153.310546875 122.103515625 153.305664062 c 4
 122.098632812 153.305664062 l 4
 117.044921875 153.305664062 113.6015625 155.235351562 110.561523438 156.877929688 c 4
 95.3173828125 165.1796875 55.927734375 158.5703125 51.1435546875 185.34375 c 4
 51.1435546875 185.34765625 l 4
 51.1435546875 189.857421875 52.7568359375 195.284179688 56.5771484375 201.845703125 c 4
 57.369140625 202.956054688 59.2578125 207.8828125 60.76953125 212.797851562 c 4
 65.8037109375 228.213867188 73.9404296875 233.97265625 82.296875 233.974609375 c 4
 82.3017578125 233.974609375 l 4
 97.3115234375 233.974609375 113.004882812 216.262695312 113.149414062 202.052734375 c 4
 113.150390625 195.888671875 113.830078125 192.680664062 116.624023438 192.680664062 c 4
 116.799804688 192.680664062 116.984375 192.6953125 117.178710938 192.724609375 c 4
 126.577148438 194.049804688 129.086914062 204.305664062 129.086914062 216.135742188 c 4
 129.086914062 227.774414062 126.388671875 240.943359375 125.647460938 248.573242188 c 4
 120.15234375 298.936523438 118.645507812 351.538085938 118.645507812 403.177734375 c 4
 118.645507812 465.987304688 119.038085938 527.375976562 119.038085938 581.587890625 c 4
 119.038085938 647.768554688 116.072265625 703.247070312 102.893554688 737.537109375 c 4
 90.8212890625 771.0078125 81.1806640625 782.954101562 74.6796875 785.901367188 c 5
 83.2216796875 793.603515625 90.1708984375 796.702148438 99.0341796875 796.702148438 c 4
 100.21484375 796.702148438 101.427734375 796.659179688 102.68359375 796.577148438 c 4
 224.908203125 788.638671875 352.39453125 785.305664062 478.759765625 785.305664062 c 4
 628.384765625 785.305664062 776.434570312 792.618164062 912.294921875 803.938476562 c 5
 912.295898438 803.939453125 l 6
 912.8984375 804.1796875 913.588867188 804.29296875 914.328125 804.29296875 c 4
 916.76171875 804.29296875 919.711914062 803.154296875 921.72265625 801.370117188 c 4
EndSplineSet
EndChar

StartChar: Y
Encoding: 89 89 9
Width: 794
VWidth: 0
Flags: HMW
LayerCount: 2
Fore
SplineSet
769.317382812 806.616210938 m 6
 769.317382812 801.72265625 768.057617188 796.954101562 763.213867188 794.790039062 c 4
 736.288085938 782.602539062 698.2109375 771.569335938 660.431640625 759.645507812 c 4
 634.272460938 751.54296875 618.868164062 743.68359375 614.680664062 724.561523438 c 4
 577.009765625 141.282226562 408.006835938 9.6103515625 342.663085938 -56.6142578125 c 4
 334.076171875 -65.3173828125 315.084960938 -84.1953125 315.084960938 -92.3779296875 c 4
 315.084960938 -94.8056640625 316.756835938 -96.291015625 320.868164062 -96.291015625 c 4
 322.52734375 -96.291015625 324.583984375 -96.0498046875 327.087890625 -95.5302734375 c 4
 380.766601562 -84.3837890625 625.051757812 31.451171875 650.219726562 32.578125 c 4
 650.40625 32.5927734375 650.586914062 32.599609375 650.766601562 32.599609375 c 4
 655.42578125 32.599609375 657.446289062 30.0263671875 657.446289062 25.5625 c 4
 657.446289062 3.078125 587.943359375 -79.830078125 565.041015625 -112.6328125 c 4
 556.03125 -125.475585938 537.66015625 -149.581054688 530.783203125 -149.581054688 c 4
 530.153320312 -149.581054688 529.6171875 -149.397460938 529.19140625 -149.0078125 c 4
 528.541992188 -148.412109375 528.275390625 -147.653320312 528.275390625 -146.813476562 c 4
 528.275390625 -144.271484375 530.497070312 -140.984375 532.0625 -139.049804688 c 4
 547.059570312 -120.487304688 550.857421875 -109.05859375 550.857421875 -99.677734375 c 4
 550.857421875 -90.138671875 546.30859375 -82.7392578125 546.30859375 -72.0283203125 c 4
 546.30859375 -69.8173828125 546.451171875 -67.4677734375 546.797851562 -64.927734375 c 4
 548.228515625 -56.0498046875 558.020507812 -46.0751953125 567.056640625 -46.0751953125 c 4
 567.438476562 -46.0751953125 567.818359375 -46.0859375 568.196289062 -46.109375 c 4
 580.280273438 -47.185546875 581.793945312 -60.2119140625 587.2734375 -60.2119140625 c 4
 591.202148438 -60.2119140625 597.235351562 -52.8544921875 611.077148438 -27.6982421875 c 4
 613.211914062 -23.7705078125 614.24609375 -21.1103515625 614.24609375 -19.4658203125 c 4
 614.24609375 -17.998046875 613.334960938 -17.3603515625 611.565429688 -17.3603515625 c 4
 606.809570312 -17.3603515625 595.749023438 -22.44140625 579.420898438 -28.4658203125 c 4
 500.767578125 -61.607421875 382.87109375 -153.649414062 272.912109375 -153.649414062 c 4
 264.088867188 -153.649414062 255.315429688 -153.056640625 246.618164062 -151.79296875 c 4
 232.504882812 -149.7421875 226.931640625 -147.181640625 224.005859375 -130.555664062 c 4
 223.250976562 -126.259765625 222.890625 -121.987304688 222.890625 -117.737304688 c 4
 222.890625 -32.28515625 368.411132812 44.1513671875 368.411132812 118.762695312 c 4
 368.411132812 123.991210938 367.697265625 129.209960938 366.16796875 134.421875 c 4
 294.903320312 339.7265625 207.743164062 645.131835938 74.1005859375 776.212890625 c 4
 67.94921875 782.249023438 36.16015625 792.944335938 25.712890625 797.900390625 c 4
 25.2177734375 798.135742188 25 798.713867188 25 799.462890625 c 4
 25 801.965820312 27.2197265625 806.3359375 29.7587890625 806.3359375 c 4
 33.359375 806.3359375 38.6826171875 805.349609375 45.326171875 803.224609375 c 4
 184.06640625 755.158203125 279.955078125 730.43359375 388.1328125 730.43359375 c 4
 484.49609375 730.43359375 590.770507812 753.0859375 746.116210938 800.680664062 c 4
 750.904296875 802.122070312 760.118164062 805.455078125 769.318359375 806.615234375 c 5
 769.317382812 806.616210938 l 6
314.642578125 714.038085938 m 5
 334.091796875 613.623046875 421.623046875 320.602539062 456.9765625 236.576171875 c 5
 479.055664062 304.0703125 515.34375 438.71875 515.34375 536.881835938 c 4
 515.34375 543.783203125 515.049804688 550.504882812 514.438476562 557.010742188 c 4
 508.38671875 650.416992188 449.798828125 711.35546875 396.943359375 713.158203125 c 4
 373.536132812 713.501953125 314.642578125 714.0390625 314.642578125 714.0390625 c 5
 314.642578125 714.038085938 l 5
EndSplineSet
EndChar

StartChar: X
Encoding: 88 88 10
Width: 806
VWidth: 0
Flags: HMW
LayerCount: 2
Fore
SplineSet
765.123046875 797.275390625 m 4
 765.267578125 797.279296875 765.413085938 797.28125 765.5625 797.28125 c 4
 771.215820312 797.28125 780.530273438 794.471679688 781.13671875 792.653320312 c 4
 781.2578125 792.291992188 781.322265625 791.944335938 781.322265625 791.61328125 c 5
 778.365234375 791.642578125 772.302734375 791.899414062 764.602539062 791.899414062 c 4
 740.41796875 791.899414062 700.073242188 789.366210938 689.001953125 769.290039062 c 4
 607.026367188 620.65625 591 488.438476562 465.823242188 405.760742188 c 4
 451.833007812 396.51953125 445.436523438 395.35546875 445.436523438 380.12109375 c 4
 445.436523438 378.181640625 445.540039062 376.013671875 445.744140625 373.573242188 c 4
 450.795898438 248.633789062 461.983398438 30.1474609375 521.565429688 5.779296875 c 4
 530.643554688 2.06640625 559.803710938 -7.44140625 565.391601562 -8.2451171875 c 4
 567.64453125 -8.01953125 568.673828125 -7.3818359375 568.673828125 -5.9453125 c 4
 568.673828125 -5.388671875 568.51953125 -4.7119140625 568.221679688 -3.892578125 c 4
 565.401367188 2.6044921875 564.380859375 8.73046875 564.380859375 15.1044921875 c 4
 564.380859375 18.1767578125 564.618164062 21.3056640625 565.004882812 24.5615234375 c 4
 567.51953125 45.759765625 577.8203125 56.6513671875 594.272460938 56.6513671875 c 4
 604.630859375 56.6513671875 616.694335938 52.3857421875 628.657226562 43.8203125 c 4
 641.0859375 33.9931640625 650.20703125 17.4990234375 660.192382812 3.0087890625 c 4
 672.828125 -15.330078125 730.208984375 -20.009765625 744.65234375 -23.408203125 c 4
 745.946289062 -23.712890625 746.213867188 -24.6884765625 746.213867188 -25.5234375 c 4
 746.213867188 -26.1123046875 746.079101562 -26.6318359375 746.079101562 -26.7958984375 c 4
 746.079101562 -27.4619140625 742.512695312 -27.9931640625 733.944335938 -28.529296875 c 4
 636.637695312 -24.32421875 537.114257812 -22.751953125 440.836914062 -22.751953125 c 4
 331.62890625 -22.751953125 226.59765625 -24.775390625 133.720703125 -27.2724609375 c 4
 129.211914062 -27.3935546875 125.208984375 -31.076171875 123.381835938 -33.2802734375 c 4
 121.43359375 -36.5458984375 120.94140625 -39.6357421875 120.94140625 -42.7802734375 c 4
 120.94140625 -45.8837890625 121.420898438 -49.0400390625 121.454101562 -52.4697265625 c 4
 121.454101562 -54.8935546875 120.7734375 -56.6630859375 118.046875 -57.181640625 c 4
 116.858398438 -81.833984375 102.302734375 -78.5673828125 90.041015625 -120.924804688 c 4
 88.130859375 -127.526367188 86.275390625 -135.235351562 84.53515625 -144.331054688 c 4
 83.63671875 -149.01953125 83.228515625 -153.337890625 83.228515625 -157.28515625 c 4
 83.228515625 -177.010742188 93.40625 -187.44140625 103.438476562 -188.412109375 c 6
 103.528320312 -188.412109375 l 6
 103.477539062 -187.748046875 103.452148438 -187.006835938 103.452148438 -186.196289062 c 4
 103.452148438 -185.833984375 103.452148438 -185.466796875 103.452148438 -185.095703125 c 4
 103.452148438 -171.571289062 103.715820312 -151.762695312 123.366210938 -144.3359375 c 4
 127.524414062 -142.764648438 131.630859375 -142.051757812 135.516601562 -142.051757812 c 4
 149.748046875 -142.051757812 161.018554688 -151.596679688 161.018554688 -163.434570312 c 4
 161.018554688 -163.69140625 161.013671875 -163.94921875 161.002929688 -164.20703125 c 4
 159.989257812 -188.78125 153.38671875 -206.956054688 128.65234375 -206.956054688 c 4
 122.834960938 -206.956054688 116.013671875 -205.951171875 108.02734375 -203.787109375 c 4
 87.453125 -198.211914062 66.3779296875 -176.514648438 66.3779296875 -152.866210938 c 4
 66.3779296875 -151.994140625 66.40625 -151.119140625 66.4658203125 -150.2421875 c 4
 69.224609375 -108.83203125 85.4130859375 -43.66015625 95.39453125 -29.14453125 c 4
 95.5205078125 -28.9580078125 95.5830078125 -28.787109375 95.5830078125 -28.62890625 c 4
 95.5830078125 -27.4716796875 92.2890625 -27.0224609375 87.279296875 -27.0224609375 c 4
 77.65234375 -27.0224609375 61.6923828125 -28.681640625 50.6162109375 -30.1611328125 c 4
 49.4296875 -30.1611328125 48.607421875 -29.9345703125 48.607421875 -29.4033203125 c 4
 48.607421875 -28.4873046875 49.294921875 -27.3125 50.1376953125 -26.7919921875 c 4
 51.66015625 -25.8486328125 67.845703125 -23.22265625 87.5048828125 -20.73046875 c 4
 93.173828125 -20.0107421875 97.7431640625 -18.3017578125 98.4873046875 -17.3837890625 c 4
 108.116210938 -5.48828125 116.516601562 13.642578125 116.516601562 29.9013671875 c 4
 116.516601562 32.6884765625 116.26953125 35.390625 115.740234375 37.95703125 c 4
 115.009765625 41.34765625 114.504882812 42.662109375 113.336914062 42.662109375 c 4
 112.791015625 42.662109375 112.099609375 42.375 111.173828125 41.8779296875 c 4
 98.916015625 34.9833984375 88.4609375 32.2880859375 79.3603515625 32.2880859375 c 4
 73.7060546875 32.2880859375 68.5751953125 33.3291015625 63.8603515625 35.046875 c 4
 38.1484375 47.8994140625 25 75.7333984375 25 101.959960938 c 4
 25 105.7890625 25.2802734375 109.583007812 25.8427734375 113.29296875 c 4
 53.1767578125 274.986328125 223.466796875 330.045898438 315.170898438 366.952148438 c 4
 317.208984375 367.706054688 317.732421875 369.166992188 317.732421875 370.854492188 c 4
 317.732421875 372.112304688 317.440429688 373.497070312 317.271484375 374.806640625 c 4
 301.450195312 497.201171875 273.473632812 722.620117188 186.243164062 778.25390625 c 5
 158.06640625 766.963867188 180.516601562 752.864257812 159.943359375 737.80859375 c 4
 153.950195312 733.943359375 146.188476562 731.9375 138.674804688 731.9375 c 4
 117.079101562 732.400390625 102.705078125 743.849609375 98.580078125 753.25390625 c 4
 83.296875 790.95703125 36.01171875 791.19921875 36.01171875 795.083007812 c 4
 36.01171875 796.122070312 39.6396484375 796.90234375 48.607421875 797.793945312 c 4
 196.916992188 796.038085938 347.552734375 794.00390625 491.901367188 794.00390625 c 4
 586.481445312 794.00390625 678.36328125 794.876953125 765.123046875 797.275390625 c 4
419.858398438 773.407226562 m 5
 429.154296875 649.698242188 437.327148438 543.413085938 444.41015625 430.329101562 c 5
 535.424804688 490.421875 544.9765625 573.98046875 544.9765625 660.350585938 c 4
 545.081054688 662.842773438 545.131835938 665.293945312 545.131835938 667.704101562 c 4
 545.131835938 739.809570312 499.123046875 775.450195312 443.423828125 775.450195312 c 4
 435.721679688 775.450195312 427.834960938 774.768554688 419.858398438 773.407226562 c 5
173.28125 31.408203125 m 4
 172.723632812 27.10546875 157.067382812 31.560546875 151.291992188 26.7900390625 c 4
 139.967773438 17.439453125 135.884765625 -0.09765625 134.248046875 -13.8388671875 c 4
 134.239257812 -13.90625 134.234375 -13.9697265625 134.234375 -14.0283203125 c 4
 134.234375 -14.6416015625 134.646484375 -14.7685546875 135.155273438 -14.7685546875 c 4
 135.513671875 -14.7685546875 135.918945312 -14.705078125 136.263671875 -14.705078125 c 4
 192.701171875 -11.6982421875 316.724609375 -17.611328125 327.079101562 36.6982421875 c 4
 333.608398438 70.9423828125 336.212890625 108.065429688 336.212890625 147.034179688 c 4
 336.212890625 207.875 329.862304688 273.216796875 322.17578125 339.130859375 c 5
 221.447265625 279.518554688 183.686523438 111.659179688 173.28125 31.408203125 c 4
EndSplineSet
EndChar

StartChar: A.heart
Encoding: 983048 983048 11
Width: 806
VWidth: 0
Flags: HMW
LayerCount: 2
Fore
SplineSet
41.216796875 808.081054688 m 1
 83.3203125 769.40625 162.67578125 757.388671875 215.17578125 754.53515625 c 0
 245.911132812 752.974609375 276.229492188 752.134765625 306.264648438 752.134765625 c 0
 379.595703125 752.134765625 451.250976562 757.15234375 523.208007812 768.977539062 c 0
 560.194335938 775.056640625 593.211914062 783.88671875 631.307617188 799.9375 c 1
 637.196289062 791.973632812 639.749023438 776.250976562 639.749023438 762.57421875 c 0
 639.749023438 755.764648438 639.114257812 749.4609375 637.946289062 744.874023438 c 1
 626.327148438 747.88671875 609.662109375 748.981445312 593.1875 748.981445312 c 0
 575.02734375 748.981445312 557.099609375 747.650390625 546.421875 746.083984375 c 1
 558.92578125 645.8671875 637.99609375 50.37890625 645.379882812 11 c 1
 689.405273438 4.7548828125 744.181640625 0.755859375 780.755859375 -5.6748046875 c 0
 780.755859375 -6.2646484375 781.5078125 -8.3759765625 781.5078125 -10.115234375 c 0
 781.5078125 -11.18359375 781.224609375 -12.1103515625 780.306640625 -12.458984375 c 2
 197.201171875 -12.458984375 l 1
 195.331054688 -18.166015625 189.379882812 -36.4990234375 187.612304688 -44.306640625 c 1
 193.712890625 -42.099609375 199.879882812 -41.0498046875 205.7734375 -41.0498046875 c 0
 225.954101562 -41.0498046875 242.916992188 -53.349609375 242.916992188 -73.515625 c 0
 242.916992188 -80.880859375 240.654296875 -89.294921875 235.4609375 -98.5419921875 c 0
 224.478515625 -118.091796875 154.075195312 -122.947265625 131.467773438 -193.454101562 c 0
 129.3046875 -195.342773438 124.870117188 -198.158203125 122.541015625 -198.158203125 c 0
 122.2890625 -198.158203125 122.0625 -198.125 121.866210938 -198.0546875 c 0
 120.208007812 -196.08203125 118.109375 -192.517578125 116.876953125 -189.423828125 c 0
 119.833984375 -178.700195312 121.087890625 -168.620117188 121.087890625 -159.157226562 c 0
 121.087890625 -106.051757812 81.5546875 -72.357421875 81.5546875 -53.0419921875 c 0
 81.5546875 -52.734375 81.5654296875 -52.4296875 81.5849609375 -52.1298828125 c 0
 83.435546875 -24.8232421875 98.494140625 -12.744140625 115.26171875 -12.744140625 c 0
 128.178710938 -12.744140625 142.110351562 -19.9140625 151.794921875 -32.8134765625 c 1
 159.567382812 -11.9873046875 162.927734375 11.5634765625 162.927734375 37.1025390625 c 0
 162.927734375 89.810546875 148.618164062 150.983398438 129.231445312 214.141601562 c 0
 110.151367188 276.296875 90.744140625 339.22265625 79.998046875 402.864257812 c 0
 76.6982421875 422.3984375 75.1708984375 440.8515625 75.1708984375 458.311523438 c 0
 75.1708984375 602.638671875 179.653320312 679.044921875 252.884765625 735.9921875 c 1
 252.326171875 735.985351562 251.76171875 735.983398438 251.1875 735.983398438 c 0
 225.888671875 735.983398438 186.815429688 741.073242188 147.698242188 742.427734375 c 0
 132.229492188 742.962890625 102.647460938 746.548828125 74.7373046875 746.548828125 c 0
 56.0556640625 746.548828125 38.1220703125 744.942382812 25.6728515625 739.739257812 c 1
 25.2177734375 741.96484375 25 745.083984375 25 748.775390625 c 0
 25 768.7421875 31.37890625 805.458007812 41.216796875 808.081054688 c 1
447.606445312 737.82421875 m 1
 414.83984375 735.10546875 383.189453125 735.856445312 358.708007812 733.948242188 c 1
 357.928710938 695.165039062 355.889648438 656.271484375 355.889648438 625.005859375 c 0
 355.889648438 621.94921875 355.909179688 618.966796875 355.951171875 616.063476562 c 0
 391.853515625 588.091796875 414.213867188 567.84765625 447.821289062 541.08203125 c 1
 447.548828125 570.828125 447.471679688 599.020507812 447.471679688 627.0703125 c 0
 447.471679688 663.227539062 447.599609375 699.143554688 447.606445312 737.82421875 c 1
301.470703125 732.299804688 m 1
 269.372070312 555.141601562 234.4765625 385.203125 214.790039062 209.737304688 c 0
 207.315429688 143.108398438 211.750976562 72.0087890625 202.91796875 8.9482421875 c 1
 241.879882812 8.0751953125 262.5625 7.59375 295.037109375 7.5703125 c 1
 311.654296875 242.344726562 304.662109375 479.068359375 321.134765625 732.256835938 c 1
 301.470703125 732.299804688 l 1
347.388671875 505.00390625 m 1
 345.859375 459.883789062 327.997070312 112.022460938 322.232421875 7.505859375 c 1
 365.629882812 7.7900390625 439.540039062 7.8125 456.317382812 8.259765625 c 1
 455.674804688 89.537109375 448.348632812 301.8046875 444.860351562 439.008789062 c 1
 421.911132812 453.96875 375.755859375 485.967773438 347.388671875 505.00390625 c 1
137.264648438 -46.0966796875 m 0
 128.747070312 -46.0966796875 121.09765625 -52.232421875 120.157226562 -66.103515625 c 0
 120.147460938 -66.2568359375 120.142578125 -66.4111328125 120.142578125 -66.568359375 c 0
 120.142578125 -76.380859375 140.223632812 -93.4970703125 140.223632812 -120.473632812 c 0
 140.223632812 -125.282226562 139.586914062 -130.401367188 138.0859375 -135.848632812 c 0
 138.711914062 -137.419921875 139.778320312 -139.23046875 140.620117188 -140.234375 c 0
 140.720703125 -140.26953125 140.834960938 -140.28515625 140.963867188 -140.28515625 c 0
 142.147460938 -140.28515625 144.399414062 -138.856445312 145.497070312 -137.896484375 c 0
 156.981445312 -102.079101562 192.74609375 -99.61328125 198.32421875 -89.681640625 c 0
 200.920898438 -85.0595703125 202.046875 -80.78125 202.046875 -76.9931640625 c 0
 202.046875 -66.642578125 193.625 -59.9599609375 183.75390625 -59.9599609375 c 0
 180.580078125 -59.9599609375 177.258789062 -60.650390625 174.017578125 -62.130859375 c 0
 165.69140625 -65.935546875 160.896484375 -74.8603515625 160.896484375 -74.8603515625 c 1
 160.08984375 -66.064453125 159.995117188 -61.58203125 155.823242188 -56.291015625 c 0
 151.651367188 -51 143.827148438 -46.0966796875 137.264648438 -46.0966796875 c 0
EndSplineSet
EndChar

StartChar: e
Encoding: 101 101 15
Width: 320
VWidth: 0
Flags: HMW
LayerCount: 2
Fore
SplineSet
134 -37.552734375 m 4
 124.560546875 -11.9052734375 61.841796875 31.5224609375 28 36.447265625 c 4
 26.248046875 36.6513671875 25.1123046875 37.3330078125 25.1123046875 38.125 c 4
 25.1123046875 38.2529296875 25.1416015625 38.3828125 25.203125 38.5146484375 c 6
 28 45.447265625 l 6
 38.8212890625 72.2724609374 43.923828125 127.697265625 43.923828125 184.588867188 c 4
 43.923828125 245.749023438 38.02734375 308.604492188 27 339.447265625 c 4
 25.51953125 343.587890625 23 345.780273438 23 350.447265625 c 4
 23.365234375 355.8671875 25.5498046875 356.4921875 29.0859375 356.4921875 c 4
 30.146484375 356.4921875 31.3291015625 356.436523438 32.6201171875 356.436523438 c 4
 34.7607421875 356.436523438 37.2001953125 356.590820312 39.8818359375 357.413085938 c 4
 55.4697265625 361.130859375 167.666992188 429.114257812 185 458.447265625 c 4
 187.370117188 463.002929688 189.083984375 468.206054688 191 471.947265625 c 4
 193.19921875 476.241210938 195.498046875 478 197.540039062 478 c 4
 201.03515625 478 203.78125 472.849609375 204 466.447265625 c 4
 204.610351562 450.208984375 240.208984375 382.43359375 267.342773438 382.43359375 c 4
 267.5625 382.43359375 267.78125 382.438476562 268 382.447265625 c 4
 273.493164062 382.671875 278.65234375 385.80859375 284 388.447265625 c 4
 289.453125 391.137695312 290.693359375 391.6328125 294 392.447265625 c 4
 294.192382812 392.461914062 294.377929688 392.46875 294.5546875 392.46875 c 4
 296.684570312 392.46875 297.701171875 391.458007812 297.701171875 390.235351562 c 4
 297.701171875 389.311523438 297.120117188 388.267578125 296 387.447265625 c 4
 253.28515625 364.381835938 218.102539062 325.736328125 163 226.447265625 c 4
 161.9140625 224.490234375 161.262695312 222.122070312 161.262695312 219.979492188 c 4
 161.262695312 217.654296875 162.029296875 215.594726562 163.836914062 214.612304688 c 4
 164.586914062 214.205078125 165.381835938 214.024414062 166.203125 214.024414062 c 4
 171.291015625 214.024414062 177.3828125 220.939453125 179.965820312 223.522460938 c 4
 183.447265625 226.783203125 187.040039062 228.18359375 190.32421875 228.18359375 c 4
 197.0703125 228.18359375 202.51171875 222.274414062 203 214.447265625 c 4
 203.666992188 214.447265625 207.709960938 219.92578125 211.525390625 224.709960938 c 4
 214.350585938 228.251953125 217.68359375 232.051757812 220.237304688 233.463867188 c 5
 212.162109375 222.126953125 206.962890625 213.791015625 200 204.447265625 c 4
 192.418945312 194.2734375 182.123046875 186.193359375 171.094726562 186.193359375 c 4
 170.176757812 186.193359375 169.254882812 186.249023438 168.328125 186.364257812 c 4
 158.7109375 187.561523438 149.983398438 197.193359375 147.383789062 206.529296875 c 4
 146.829101562 208.51953125 146.577148438 210.481445312 146.577148438 212.432617188 c 4
 146.577148438 220.1796875 150.549804688 227.758789062 155.342773438 236.296875 c 4
 165.467773438 254.333984375 178.63671875 276.19140625 197 306.447265625 c 4
 197.948242188 308.009765625 198.521484375 309.938476562 198.521484375 311.827148438 c 4
 198.521484375 312.736328125 198.388671875 313.635742188 198.1015625 314.481445312 c 4
 191.03515625 335.252929688 162.072265625 366.598632812 142 368.447265625 c 4
 136 368.447265625 133 363.780273438 133 354.447265625 c 4
 132.723632812 329.307617188 132.584960938 304.026367188 132.584960938 279.012695312 c 4
 132.584960938 219.08203125 133.381835938 160.685546875 135 109.447265625 c 4
 135.143554688 108.588867188 135.575195312 107.435546875 136.212890625 106.778320312 c 4
 158.072265625 88.1269531253 187.880859375 74.2949218751 215 68.447265625 c 4
 217.817382812 67.8564453125 220 67.271484375 220 65.447265625 c 4
 220 62.1142578125 217.458007812 60.3662109375 213 58.447265625 c 4
 195.443359375 50.8896484375 150.211914062 -12.8046875 142 -37.552734375 c 4
 140.666015625 -40.904296875 139.272460938 -42.263671875 137.973632812 -42.263671875 c 4
 136.427734375 -42.263671875 135.016601562 -40.3369140625 134 -37.552734375 c 4
EndSplineSet
EndChar

StartChar: d
Encoding: 100 100 16
Width: 408
VWidth: 0
Flags: HMW
LayerCount: 2
Fore
SplineSet
171 589 m 4
 175 589 178.333007812 586.333007812 181 581 c 4
 221.666992188 508.333007812 288 441.333007812 380 372 c 5
 385 369 l 5
 385 368 l 6
 385 366.666992188 384.333007812 365.666992188 383 365 c 4
 373.666992188 363.666992188 368.666992188 363 368 363 c 4
 364.666992188 361 363 358.333007812 363 355 c 4
 357.666992188 309.666992188 355 254.333007812 355 189 c 4
 355 124.333007812 359 90 367 86 c 4
 369.666992188 85.3330078125 372.666992188 84.6669921875 376 84 c 4
 379.333007812 84 381 83.3330078125 381 82 c 4
 381 79.3330078125 377.666992188 77.3330078125 371 76 c 4
 329 70.6669921875 303 62 281 50 c 4
 265.666992188 42 251.5 34.5 238.5 15.5 c 4
 225.5 -3.5 217.333007812 -23.3330078125 214 -44 c 4
 212.666992188 -47.3330078125 210.666992188 -49 208 -49 c 4
 207.333007812 -49 206 -47.1669921875 204 -43.5 c 4
 202 -39.8330078125 199.666992188 -35.1669921875 197 -29.5 c 4
 178.438476562 0.5107421875 133.5703125 45.400390625 96 51 c 4
 94 49.6669921875 91.6669921875 48.6669921875 89 48 c 4
 82.3330078125 44.6669921875 77.1669921875 43 73.5 43 c 4
 69.8330078125 43 68 44.6669921875 68 48 c 4
 68 50.6669921875 72.6669921875 56.6669921875 82 66 c 4
 86 70.6669921875 88.3330078125 75.3330078125 89 92 c 4
 93 172.666992188 95 213.666992188 95 215 c 4
 95 254.333007812 91.3330078125 288.666992188 84 318 c 5
 81 320 l 6
 81 321.333007812 83.3330078125 323.666992188 88 327 c 4
 99.3330078125 333.666992188 108.333007812 340.666992188 139 352 c 4
 169.666992188 363.333007812 191 375 203 387 c 4
 207 390.333007812 209 392.666992188 209 394 c 4
 173.666992188 434.666992188 132 484 84 550 c 4
 76.6669921875 560 58.3330078125 565 29 565 c 4
 25 565 23 566 23 568 c 4
 23 570 23.6669921875 572 25 574 c 4
 39.6669921875 572.666992188 53 572 65 572 c 4
 67.8291015625 571.837890625 70.6181640625 571.76171875 73.373046875 571.76171875 c 4
 108.564453125 571.76171875 138.083984375 584.215820312 171 589 c 4
215 388 m 4
 214.333007812 388 213 386.666992188 211 384 c 4
 201 373.333007812 189 364.333007812 175 357 c 5
 177 322.333007812 178 285 178 245 c 4
 178 201.666992188 176.666992188 167.333007812 174 142 c 4
 173.333007812 138.666992188 173 134.666992188 173 130 c 4
 205 101.333007812 228.333007812 83 243 75 c 4
 248.333007812 71.6669921875 252.666992188 69.3330078125 256 68 c 4
 257.333007812 67.3330078125 258.333007812 67 259 67 c 4
 260.333007812 67 261 68 261 70 c 4
 261 70.6669921875 260.666992188 72.3330078125 260 75 c 4
 260.666992188 99 261.666992188 141.666992188 263 203 c 4
 264.333007812 264.333007812 265 310.666992188 265 342 c 5
 255 353.333007812 238.333007812 368.666992188 215 388 c 4
EndSplineSet
EndChar

StartChar: f
Encoding: 102 102 17
Width: 353
VWidth: 0
Flags: HMW
LayerCount: 2
Fore
SplineSet
149 -37 m 4
 124.333007812 6.3330078125 94.6669921875 30.3330078125 44 35 c 4
 41.3330078125 35 39 37.3330078125 37 42 c 4
 37.6669921875 42.6669921875 39.1669921875 43.5 41.5 44.5 c 4
 43.8330078125 45.5 45.5 46.3330078125 46.5 47 c 4
 47.5 47.6669921875 48.6669921875 48.3330078125 50 49 c 4
 51.3330078125 49.6669921875 52.3330078125 50.5 53 51.5 c 6
 55 54.5 l 5
 56 58 l 5
 67.3330078125 128 73 216 73 274 c 4
 73 336.666992188 66.6669921875 398.333007812 54 459 c 4
 53.3330078125 460.333007812 52.6669921875 462.166992188 52 464.5 c 4
 51.3330078125 466.833007812 50.8330078125 468.833007812 50.5 470.5 c 4
 50.1669921875 472.166992188 49.5 474 48.5 476 c 4
 47.5 478 46.3330078125 479.333007812 45 480 c 4
 43 480.666992188 41 481 39 481 c 4
 36.3330078125 481 33.8330078125 480.333007812 31.5 479 c 4
 29.1669921875 477.666992188 27.6669921875 477 27 477 c 4
 24.3330078125 477 23 478 23 480 c 4
 23 480.666992188 23.3330078125 481.333007812 24 482 c 4
 25.3330078125 484 32.3330078125 487 45 491 c 4
 133 519.666992188 175.333007812 560 212 628 c 4
 212.666992188 630 214.333007812 631 217 631 c 4
 217.666992188 631 218.333007812 630.666992188 219 630 c 4
 221 629.333007812 223 626.666992188 225 622 c 4
 230.333007812 610.666992188 236.666992188 600.333007812 244 591 c 4
 253.333007812 579 265.333007812 567.666992188 280 557 c 4
 280.666992188 556.333007812 282.666992188 554.833007812 286 552.5 c 4
 289.333007812 550.166992188 291.5 548.5 292.5 547.5 c 4
 293.5 546.5 295.5 545 298.5 543 c 4
 301.5 541 303.833007812 539.666992188 305.5 539 c 4
 307.166992188 538.333007812 309.166992188 537.333007812 311.5 536 c 4
 313.833007812 534.666992188 316.166992188 533.833007812 318.5 533.5 c 4
 320.833007812 533.166992188 323 533 325 533 c 6
 327 533 l 6
 329 533 330 532 330 530 c 5
 330 528.666992188 329.666992188 528 329 528 c 4
 301 512.666992188 284.333007812 493.666992188 255 455 c 4
 248.333007812 447 239 433.666992188 227 415 c 6
 202 378 l 6
 201.333007812 377.333007812 200.833007812 377 200.5 377 c 4
 200.166992188 377 200 378.666992188 200 382 c 4
 209.333007812 400 225 426.666992188 247 462 c 5
 245 464 l 5
 228.333007812 489.333007812 204.333007812 509.333007812 173 524 c 4
 167 526.666992188 162.333007812 528 159 528 c 4
 156.333007812 528 155 527 155 525 c 4
 151 499 149 475.333007812 149 454 c 4
 149 424 152.666992188 397.666992188 160 375 c 4
 164 363.666992188 176 358 196 358 c 4
 199.333007812 358 202.666992188 358.333007812 206 359 c 4
 209.333007812 359.666992188 212.166992188 360.333007812 214.5 361 c 4
 216.833007812 361.666992188 219.5 362.5 222.5 363.5 c 4
 225.5 364.5 227.666992188 365 229 365 c 6
 230 366 l 6
 231.333007812 366 232 364.666992188 232 362 c 4
 232 360.666992188 231.333007812 357.333007812 230 352 c 4
 222 306 218 269.666992188 218 243 c 4
 218 229.666992188 218.333007812 212.666992188 219 192 c 4
 218.333007812 186.666992188 216.666992188 184 214 184 c 6
 213 184 l 6
 209.666992188 184.666992188 207.333007812 187.666992188 206 193 c 4
 206 209 205.333007812 234 204 268 c 4
 204 275.333007812 195.666992188 279 179 279 c 4
 171 279 164.666992188 277.666992188 160 275 c 4
 156 273.666992188 153.666992188 268.666992188 153 260 c 4
 150.333007812 244 149 228.666992188 149 214 c 4
 149 169.333007812 157.666992188 114.333007812 175 97 c 4
 190.333007812 82.3330078125 205.666992188 74.6669921875 221 74 c 6
 222 74 l 5
 226 74.5 l 5
 229 75 l 6
 231 75 232.333007812 74.6669921875 233 74 c 4
 233.666992188 73.3330078125 234 72.3330078125 234 71 c 6
 234 70 l 5
 200 33.3330078125 176.666992188 -1.3330078125 164 -34 c 4
 162 -38.6669921875 159.666992188 -41.3330078125 157 -42 c 6
 156 -42 l 6
 153.333007812 -42 151 -40.3330078125 149 -37 c 4
EndSplineSet
EndChar

StartChar: h
Encoding: 104 104 18
Width: 346
VWidth: 0
Flags: HMW
LayerCount: 2
Fore
SplineSet
226 -130 m 4
 214 -126.666992188 207.666992188 -117 207 -101 c 4
 206.333007812 -81 206 -59.6669921875 206 -37 c 4
 206 -16.3330078125 206.333007812 14 207 54 c 5
 206.333007812 54 205 53.3330078125 203 52 c 4
 172.333007812 35.3330078125 148.666992188 3.6669921875 132 -43 c 5
 131 -43 l 5
 129 -43 l 5
 113.345703125 -3.986328125 79.6318359375 27.5234375 42 28 c 6
 25 28 l 6
 23.6669921875 28 23 28.3330078125 23 29 c 6
 23 30 l 5
 31 34 35 38.6669921875 35 44 c 4
 39.6669921875 117.333007812 42 194.666992188 42 276 c 4
 42 358.666992188 39.6669921875 446.333007812 35 539 c 4
 34.3330078125 541.666992188 34 544 34 546 c 4
 34 554 37.5 559.666992188 44.5 563 c 4
 80.6416015625 573.58203125 103.809570312 575.572265625 131 604 c 4
 133 605.333007812 134.666992188 606 136 606 c 4
 140 606 142 603 142 597 c 4
 136.666992188 541.666992188 134 483.333007812 134 422 c 5
 157.333007812 428 183.666992188 458 213 512 c 4
 213.666992188 513.333007812 214.666992188 514 216 514 c 4
 218 514 220.333007812 512.666992188 223 510 c 4
 249.15234375 482.926757812 269.54296875 443.137695312 310 437 c 4
 318.666992188 436.333007812 323 434.333007812 323 431 c 4
 322.333007812 429.666992188 320.666992188 428.5 318 427.5 c 4
 315.333007812 426.5 313.333007812 425.333007812 312 424 c 4
 308 419.333007812 304.333007812 387.833007812 301 329.5 c 4
 297.666992188 271.166992188 296 212.333007812 296 153 c 4
 296 122.333007812 296.5 96.5 297.5 75.5 c 4
 298.5 54.5 300 41 302 35 c 4
 302.666992188 33 303 31.6669921875 303 31 c 6
 303 30 l 6
 303 28 302 26 300 24 c 4
 261.765625 -3.353515625 221.724609375 -46.4931640625 221 -93 c 4
 221 -103.666992188 222.833007812 -111.666992188 226.5 -117 c 4
 230.166992188 -122.333007812 237.333007812 -126 248 -128 c 4
 248.666992188 -128 249.333007812 -128.666992188 250 -130 c 6
 250 -131 l 5
 248 -132 l 5
 247 -132 l 6
 235 -131.333007812 228 -130.666992188 226 -130 c 4
208 75 m 4
 210.666992188 143 212 208.666992188 212 272 c 4
 212 297.333007812 211.666992188 324 211 352 c 4
 210.333007812 358 209.333007812 361.666992188 208 363 c 4
 196.666992188 379.666992188 177.666992188 388 151 388 c 4
 144.333007812 388 138.333007812 387.333007812 133 386 c 5
 131 324.666992188 130 268 130 216 c 4
 130 161.333007812 132.666992188 122.333007812 138 99 c 5
 154.666992188 87 174 76.3330078125 196 67 c 4
 199.333007812 65.6669921875 201.666992188 65 203 65 c 4
 206.333007812 65 208 68.3330078125 208 75 c 4
EndSplineSet
EndChar

StartChar: D
Encoding: 68 68 19
Width: 843
VWidth: 0
Flags: HMW
LayerCount: 2
Fore
SplineSet
72.3037109375 -3.48046875 m 4
 85.1943359375 -9.6416015625 90.2431640625 -14.19921875 93.396484375 -22.5283203125 c 6
 95.52734375 -28.150390625 l 5
 95.52734375 -28.150390625 104.426757812 -14.3466796875 106.294921875 -6.021484375 c 4
 128.729492188 93.974609375 137.451171875 211.583007812 137.451171875 327.41015625 c 4
 137.451171875 488.28515625 120.626953125 645.72265625 100.356445312 747.756835938 c 4
 99.9033203125 749.447265625 99.5673828125 750.40625 98.84375 750.40625 c 4
 92.115234375 737.5 80.9541015625 729.421875 69.7734375 729.421875 c 4
 68.7373046875 729.421875 67.701171875 729.491210938 66.6689453125 729.631835938 c 4
 46.51171875 732.388671875 39.4580078125 742.502929688 39.4580078125 753.829101562 c 4
 39.4580078125 756.969726562 39.9990234375 760.201171875 40.9541015625 763.395507812 c 4
 46.8251953125 783.043945312 68.9794921875 804.947265625 80.0703125 813.41796875 c 4
 84.5380859375 816.837890625 88.9169921875 818.348632812 93.125 818.348632812 c 4
 103.75390625 818.348632812 113.290039062 808.711914062 120.392578125 795.850585938 c 4
 138.956054688 762.235351562 140.6484375 715.836914062 150.99609375 674.224609375 c 4
 153.3828125 664.625976562 163.419921875 662.747070312 178.352539062 662.747070312 c 4
 185.375 662.747070312 201.446289062 665.852539062 205.616210938 668.8046875 c 4
 293.8828125 731.284179688 375.2265625 766.05859375 460.514648438 767.166992188 c 4
 507.973632812 767.166992188 559.625 757.525390625 608.79296875 730.876953125 c 4
 719.859375 670.686523438 818.643554688 512.881835938 818.643554688 391.76953125 c 4
 818.643554688 387.765625 818.53515625 383.803710938 818.317382812 379.88671875 c 4
 811.055664062 249.922851562 724.3828125 85.060546875 600.127929688 9.2353515625 c 4
 545.760742188 -23.94140625 494.150390625 -36.18359375 447.264648438 -36.18359375 c 4
 263.416015625 -20.4423828125 231.200195312 82.4697265625 169.0234375 114.208007812 c 5
 149.176757812 10.7236328125 140.161132812 -23.2021484375 96.1474609375 -57.3388671875 c 4
 94.0849609375 -62.8076171875 89.423828125 -72.5576171875 82.5703125 -76.123046875 c 4
 76.548828125 -79.2578125 69.279296875 -80.9609375 62.0986328125 -80.9609375 c 4
 55.6787109375 -80.9609375 49.3310546875 -79.599609375 44.0107421875 -76.68359375 c 4
 33.546875 -70.9482421875 25.1923828125 -60.46875 25.1923828125 -46.2333984375 c 4
 25.0634765625 -45.0693359375 25 -43.8828125 25 -42.681640625 c 4
 25 -23.6533203125 40.7294921875 -0.69140625 60.455078125 -0.69140625 c 4
 64.2822265625 -0.69140625 68.2607421875 -1.5556640625 72.3037109375 -3.48046875 c 4
512.405273438 -0.50390625 m 5
 532.08984375 7.439453125 549.181640625 33.8486328125 550.931640625 51.1201171875 c 4
 560.590820312 146.469726562 564.081054688 255.890625 564.081054688 367.28125 c 4
 564.081054688 392.837890625 564.232421875 418.013671875 564.232421875 442.458984375 c 4
 564.232421875 563.923828125 560.4765625 667.33203125 515.63671875 709.647460938 c 4
 497.788085938 726.491210938 457.33984375 729.869140625 433.1484375 729.869140625 c 4
 360.240234375 726.795898438 280.232421875 704.379882812 241.4375 648.520507812 c 4
 240.31640625 647.197265625 239.39453125 629.473632812 239.387695312 624.5 c 4
 237.831054688 552.013671875 237.25390625 508.717773438 237.25390625 458.485351562 c 4
 237.25390625 363.334960938 239.32421875 288.38671875 240.717773438 158.912109375 c 4
 241.256835938 135.795898438 248.0078125 119.364257812 254.509765625 101.619140625 c 4
 280.864257812 30.2998046875 374.694335938 -12.9873046875 449.870117188 -12.9873046875 c 4
 473.4296875 -12.9873046875 495.159179688 -8.939453125 512.405273438 -0.5048828125 c 5
 512.405273438 -0.50390625 l 5
EndSplineSet
EndChar

StartChar: E
Encoding: 69 69 20
Width: 838
VWidth: 0
Flags: HMW
LayerCount: 2
Fore
SplineSet
567.270507812 705.087890625 m 4
 588.454101562 684.611328125 629.743164062 667.775390625 653.153320312 663.64453125 c 4
 682.752929688 658.725585938 706.518554688 657.061523438 726.87109375 657.061523438 c 4
 754.046875 657.061523438 775.137695312 660.030273438 795.905273438 662.185546875 c 5
 778.10546875 630.46875 716.4921875 630.471679688 668.166992188 627.08984375 c 4
 659.170898438 626.935546875 646.870117188 623.853515625 645.954101562 612.040039062 c 4
 634.803710938 540.3046875 627.158203125 464.446289062 627.158203125 389.30078125 c 4
 627.158203125 315.552734375 634.521484375 242.490234375 653.158203125 174.682617188 c 4
 655.473632812 166.446289062 657.08203125 157.392578125 675.298828125 152.03125 c 4
 693.516601562 146.668945312 784.809570312 152.2421875 813.62890625 94.4951171875 c 5
 769.665039062 111.83203125 724.627929688 117.180664062 684.814453125 117.180664062 c 4
 675.615234375 117.180664062 666.6953125 116.89453125 658.131835938 116.405273438 c 4
 605.401367188 109.025390625 575.41015625 73.7587890625 535.65625 24.6865234375 c 4
 493.290039062 -21.19140625 447.399414062 -37.6064453125 404.552734375 -37.6064453125 c 4
 363.625976562 -37.6064453125 325.4765625 -22.62890625 295.831054688 -4.046875 c 4
 151.181640625 86.6201171875 32.44140625 216.04296875 25.3876953125 373.600585938 c 4
 25.12890625 379.364257812 25 385.180664062 25 391.04296875 c 4
 25 530.43359375 98.0185546875 695.743164062 248.104492188 767.501953125 c 4
 296.223632812 788.733398438 336.440429688 799.646484375 374.12109375 799.646484375 c 4
 437.2109375 799.646484375 493.193359375 769.0546875 567.270507812 705.087890625 c 4
370.236328125 773.484375 m 4
 330 773.484375 247.895507812 751.431640625 247 717.711914062 c 4
 243.75 595.208007812 245.49609375 543.630859375 242.798828125 443.506835938 c 5
 290.057617188 442.958984375 333.84765625 442.43359375 375.83984375 442.43359375 c 4
 426.8359375 442.43359375 475.180664062 443.208007812 523.873046875 445.657226562 c 5
 525.065429688 458.453125 525.626953125 472.494140625 525.626953125 487.276367188 c 4
 525.626953125 574.0234375 506.263671875 686.36328125 481.228515625 723.244140625 c 4
 458.407226562 756.865234375 409.631835938 773.4609375 370.236328125 773.484375 c 4
242.885742188 339.203125 m 5
 247.658203125 226.729492188 270.102539062 91.1201171875 310.918945312 18.181640625 c 4
 323.399414062 -4.1201171875 363.977539062 -17.048828125 405.322265625 -17.048828125 c 4
 444.711914062 -17.048828125 484.795898438 -5.3134765625 501.939453125 21.2333984375 c 4
 530.622070312 65.65234375 536.576171875 168.676757812 536.576171875 262.109375 c 4
 536.576171875 289.184570312 536.076171875 315.454101562 535.484375 339.258789062 c 5
 496.697265625 341.211914062 450.7578125 341.96875 404.686523438 341.96875 c 4
 346.165039062 341.96875 287.432617188 340.747070312 242.885742188 339.203125 c 5
EndSplineSet
EndChar

StartChar: C
Encoding: 67 67 21
Width: 932
VWidth: 0
Flags: HMW
LayerCount: 2
Fore
SplineSet
833.850585938 -44.765625 m 4
 832.809570312 -44.74609375 825.36328125 -42.6484375 821.1328125 -38.7802734375 c 4
 814.203125 -32.447265625 808.881835938 -24.5830078125 808.881835938 -16.5546875 c 4
 808.881835938 -16.435546875 808.8828125 -16.314453125 808.884765625 -16.1953125 c 4
 808.907226562 -15.056640625 809.041015625 -13.9140625 809.291015625 -12.7724609375 c 4
 811.493164062 -2.68359375 825.540039062 0.1142578125 832.724609375 7.5 c 4
 834.924804688 9.76171875 835.903320312 11.5029296875 835.903320312 12.822265625 c 4
 835.903320312 15.501953125 831.861328125 16.4345703125 825.80859375 16.4345703125 c 4
 823.475585938 16.4345703125 820.844726562 16.294921875 818.03125 16.0654296875 c 4
 806.849609375 14.7275390625 796.53125 9.7109375 785.68359375 9.7109375 c 4
 785.475585938 9.7109375 785.266601562 9.7119140625 785.05859375 9.7158203125 c 4
 773.588867188 11.2294921875 772.197265625 22.46484375 772.197265625 28.7216796875 c 4
 772.197265625 29.1376953125 772.204101562 29.53125 772.21484375 29.8984375 c 4
 772.495117188 40.5126953125 781.016601562 55.626953125 781.016601562 65.83984375 c 4
 781.016601562 67.091796875 780.889648438 68.2705078125 780.6015625 69.3583984375 c 5
 712.625 68.1064453125 645.122070312 56.705078125 594.98046875 25.0361328125 c 4
 528.3515625 -19.744140625 473.252929688 -36.2373046875 426.474609375 -36.2373046875 c 4
 355.080078125 -36.2373046875 303.0703125 2.181640625 259.045898438 37.0859375 c 4
 136.546875 125.483398438 28.806640625 241.290039062 25.142578125 367.021484375 c 4
 25.046875 370.26953125 25 373.529296875 25 376.801757812 c 4
 25 379.079101562 25.0234375 381.361328125 25.0693359375 383.649414062 c 4
 27.888671875 525.10546875 120.533203125 691.315429688 260.014648438 749.291992188 c 4
 301.651367188 766.59765625 364.74609375 795.8125 422.66015625 795.8125 c 4
 423.624023438 795.8125 424.587890625 795.8046875 425.549804688 795.7890625 c 4
 514.545898438 794.26953125 570.659179688 740.697265625 609.858398438 704.374023438 c 5
 667.6796875 661.024414062 731.227539062 636.5 793.435546875 634.99609375 c 4
 793.92578125 634.98828125 794.403320312 634.983398438 794.868164062 634.983398438 c 4
 820.397460938 634.983398438 805.853515625 649.638671875 826.653320312 662.106445312 c 4
 833.727539062 666.615234375 843.852539062 672.10546875 856.202148438 672.10546875 c 4
 856.478515625 672.10546875 856.755859375 672.102539062 857.034179688 672.096679688 c 4
 862.544921875 672.21484375 871.55859375 672.63671875 871.55859375 674.883789062 c 4
 871.55859375 675.741210938 870.247070312 676.864257812 866.927734375 678.337890625 c 4
 857.734375 682.137695312 855.595703125 691.961914062 855.595703125 701.026367188 c 4
 855.595703125 701.426757812 855.600585938 701.825195312 855.609375 702.221679688 c 4
 855.860351562 714.856445312 861.276367188 728.056640625 863.669921875 733.702148438 c 4
 863.594726562 734.798828125 863.556640625 735.853515625 863.556640625 736.868164062 c 4
 863.556640625 737.125 863.55859375 737.37890625 863.5625 737.630859375 c 4
 863.873046875 753.198242188 873.3984375 758.873046875 883.47265625 758.873046875 c 4
 883.650390625 758.873046875 883.830078125 758.87109375 884.009765625 758.8671875 c 4
 884.584960938 758.85546875 885.162109375 758.827148438 885.735351562 758.779296875 c 4
 901.3046875 756.484375 904.624023438 749.331054688 904.624023438 741.05078125 c 4
 904.624023438 740.8359375 904.622070312 740.620117188 904.618164062 740.404296875 c 4
 904.618164062 740.245117188 l 4
 904.618164062 734.849609375 903.390625 728.861328125 903.390625 723.229492188 c 4
 903.390625 719.516601562 903.924804688 715.959960938 905.698242188 712.83203125 c 4
 907.364257812 709.892578125 907.741210938 706.578125 907.741210938 703.24609375 c 4
 907.741210938 700.802734375 907.538085938 698.348632812 907.4921875 696.025390625 c 4
 906.850585938 663.849609375 888.864257812 635.853515625 865.501953125 617.583984375 c 4
 833.333984375 592.426757812 757.2890625 615.31640625 746.744140625 587.505859375 c 4
 722.870117188 522.39453125 713.016601562 450.544921875 711.576171875 378.266601562 c 4
 711.450195312 371.895507812 711.388671875 365.521484375 711.388671875 359.147460938 c 4
 711.388671875 273.877929688 722.401367188 188.787109375 735.240234375 114.220703125 c 4
 737.64453125 103.435546875 736.490234375 100.322265625 745.986328125 100.092773438 c 4
 746.71484375 100.078125 747.444335938 100.071289062 748.177734375 100.071289062 c 4
 759.977539062 100.071289062 772.45703125 101.875 782.704101562 101.875 c 4
 783.108398438 101.875 783.51171875 101.872070312 783.909179688 101.866210938 c 4
 796.103515625 101.623046875 809.264648438 99.83984375 819.982421875 94.3046875 c 4
 857.465820312 72.4677734375 859.227539062 38.3125 862.327148438 5.05859375 c 4
 863.555664062 -8.11328125 863.53515625 -30.5390625 873.434570312 -34.3330078125 c 4
 877.315429688 -35.771484375 879.873046875 -37.5439453125 879.873046875 -39.1533203125 c 4
 879.873046875 -39.291015625 879.854492188 -39.4267578125 879.815429688 -39.5625 c 4
 875.065429688 -54.7109375 854.6015625 -102.145507812 844.641601562 -102.310546875 c 4
 844.370117188 -102.280273438 844.26171875 -102.07421875 844.26171875 -101.748046875 c 4
 844.26171875 -100.60546875 845.59375 -97.99609375 845.905273438 -96.3740234375 c 4
 846.709960938 -91.470703125 847.407226562 -84.3974609375 847.407226562 -77.05078125 c 4
 847.407226562 -62.1279296875 844.532226562 -46.0732421875 833.850585938 -44.765625 c 4
558.87890625 86.50390625 m 4
 567.91796875 181.447265625 571.013671875 272.12890625 571.013671875 356.35546875 c 4
 571.013671875 472.666992188 565.109375 576.671875 560.794921875 662.600585938 c 4
 557.23046875 733.568359375 487.509765625 763.23828125 420.08203125 763.23828125 c 4
 357.275390625 763.23828125 296.45703125 737.494140625 292.948242188 695.40625 c 4
 281.500976562 558.10546875 275.2421875 468.604492188 275.2421875 380.477539062 c 4
 275.2421875 295.432617188 281.0703125 211.666015625 293.686523438 87.453125 c 4
 299.234375 32.828125 370.336914062 -0.958984375 437.5859375 -0.958984375 c 4
 496.810546875 -0.958984375 553.045898438 25.2470703125 558.87890625 86.50390625 c 4
EndSplineSet
EndChar

StartChar: B
Encoding: 66 66 22
Width: 695
VWidth: 0
Flags: HMW
LayerCount: 2
Fore
SplineSet
167.65625 745.553710938 m 4
 225.815429688 772.2109375 288.552734375 805.771484375 347.427734375 805.771484375 c 4
 357.83203125 805.771484375 368.114257812 804.72265625 378.23046875 802.404296875 c 4
 453.272460938 784.159179688 525.723632812 709.91796875 525.723632812 643.448242188 c 4
 525.723632812 640.227539062 525.553710938 637.024414062 525.206054688 633.84765625 c 4
 518.357421875 571.34765625 468.6328125 522.286132812 427.177734375 489.220703125 c 4
 423.401367188 486.024414062 421.604492188 481.478515625 421.604492188 477.250976562 c 4
 421.604492188 471.970703125 424.413085938 467.194335938 429.674804688 466.1875 c 4
 549.3515625 435.373046875 670.596679688 350.188476562 670.596679688 245.928710938 c 4
 670.596679688 245.76953125 670.596679688 245.611328125 670.595703125 245.452148438 c 4
 670.102539062 106.419921875 583.736328125 68.3984375 504.25390625 9.037109375 c 4
 477.767578125 -11.9140625 454.745117188 -32.0634765625 412.942382812 -38.0537109375 c 4
 406.567382812 -38.96875 400.159179688 -39.3759765625 393.825195312 -39.3759765625 c 4
 359.892578125 -39.3759765625 328.09375 -27.69921875 314.580078125 -19.755859375 c 4
 264.258789062 2.4130859375 195.494140625 29.2041015625 137.268554688 29.2041015625 c 4
 109.861328125 29.2041015625 84.7900390625 23.2685546875 65.0751953125 8.1201171875 c 5
 65.0751953125 8.1201171875 63.306640625 13.6220703125 63.306640625 16.9072265625 c 4
 63.306640625 16.92578125 63.306640625 16.9462890625 63.306640625 16.96484375 c 4
 80.5771484375 32.849609375 116.041992188 44.8564453125 116.041992188 44.8564453125 c 6
 117.05078125 46.9580078125 119.083984375 58.6494140625 119.389648438 60.9697265625 c 4
 129.67578125 139.005859375 135.080078125 231.880859375 135.080078125 324.041015625 c 4
 135.080078125 466.7890625 122.115234375 607.82421875 94.2470703125 689.350585938 c 4
 93.33984375 689.981445312 92.0810546875 690.250976562 90.5927734375 690.250976562 c 4
 83.828125 690.250976562 72.3388671875 684.702148438 67.7734375 682.274414062 c 4
 53.6982421875 675.875976562 45.5673828125 670.974609375 27.9267578125 661.475585938 c 5
 27.37890625 662.583984375 25 669.301757812 25 669.301757812 c 5
 72.5517578125 692.383789062 124.111328125 725.596679688 167.65625 745.553710938 c 4
349.09375 771.0234375 m 4
 343.430664062 771.661132812 336.078125 772.159179688 327.977539062 772.159179688 c 4
 303.275390625 772.159179688 273.762695312 761.416015625 259.489257812 740.748046875 c 4
 251.740234375 729.52734375 250.904296875 677.67578125 250.904296875 633.583984375 c 4
 250.904296875 621.453125 250.967773438 609.91015625 250.967773438 599.961914062 c 4
 250.967773438 579.958984375 251.299804688 562.374023438 251.696289062 549.565429688 c 4
 252.370117188 549.565429688 255.177734375 555.478515625 257.329101562 558.135742188 c 4
 262.364257812 564.357421875 268.233398438 571.206054688 275.942382812 572.15234375 c 4
 277.153320312 572.30078125 278.404296875 572.374023438 279.676757812 572.374023438 c 4
 289.715820312 572.374023438 301.1328125 567.795898438 305.916015625 559.435546875 c 4
 308.377929688 555.129882812 309.5546875 549.81640625 309.5546875 544.383789062 c 4
 309.5546875 535.646484375 306.509765625 526.600585938 300.874023438 520.956054688 c 4
 294.499023438 514.5703125 284.701171875 512.663085938 274.836914062 512.663085938 c 4
 267.529296875 512.663085938 260.185546875 513.708984375 254.168945312 514.758789062 c 5
 254.168945312 514.758789062 254.034179688 513.470703125 254.034179688 511.799804688 c 4
 254.034179688 509.598632812 254.265625 506.731445312 255.33984375 505.272460938 c 4
 282.560546875 487.817382812 321.244140625 474.217773438 346.717773438 474.217773438 c 4
 347.236328125 474.217773438 347.75 474.223632812 348.256835938 474.235351562 c 4
 372.235351562 475.030273438 398.555664062 487.354492188 416.8125 517.7421875 c 4
 435.169921875 548.296875 444.120117188 586.213867188 444.120117188 623.356445312 c 4
 444.120117188 694.396484375 411.37890625 762.6015625 349.09375 771.0234375 c 4
255.145507812 480.397460938 m 5
 253.819335938 479.421875 253.2734375 474.903320312 253.2734375 469.049804688 c 4
 253.2734375 455.407226562 256.234375 434.513671875 259.172851562 434.321289062 c 4
 271.374023438 446.397460938 285.846679688 456.655273438 296.924804688 463.5859375 c 4
 297.259765625 464.141601562 297.411132812 464.615234375 297.411132812 465.038085938 c 4
 297.411132812 465.778320312 296.947265625 466.366210938 296.18359375 466.96875 c 4
 279.456054688 469.9921875 269.62109375 473.327148438 255.145507812 480.397460938 c 5
368.814453125 450.143554688 m 4
 366.645507812 450.2265625 364.481445312 450.266601562 362.325195312 450.266601562 c 4
 334.359375 450.266601562 307.727539062 443.493164062 287.809570312 434.504882812 c 4
 278.080078125 430.116210938 257.609375 417.001953125 257.609375 400.2734375 c 4
 257.609375 400.215820312 257.609375 400.159179688 257.610351562 400.100585938 c 4
 257.610351562 398.420898438 258.078125 396.947265625 259.041992188 395.783203125 c 4
 260.483398438 394.046875 261.893554688 393.182617188 263.245117188 393.182617188 c 4
 265.317382812 393.182617188 267.250976562 395.219726562 268.936523438 399.2578125 c 4
 274.633789062 408.913085938 282.939453125 420.149414062 290.67578125 421.365234375 c 4
 290.963867188 421.395507812 291.2421875 421.411132812 291.514648438 421.411132812 c 4
 296.776367188 421.411132812 299.180664062 415.76953125 302.697265625 411.952148438 c 4
 307.510742188 406.729492188 312.244140625 401.689453125 312.244140625 393.756835938 c 4
 312.244140625 392.987304688 312.198242188 392.194335938 312.10546875 391.369140625 c 4
 311.247070312 383.748046875 304.6953125 377.947265625 299.5078125 372.08203125 c 4
 292.06640625 363.893554688 281.9375 356.565429688 266.895507812 356.565429688 c 4
 263.201171875 356.565429688 259.2109375 357.006835938 254.891601562 357.987304688 c 5
 251.819335938 331.078125 250.251953125 303.512695312 250.251953125 275.73046875 c 4
 250.251953125 196.78125 262.901367188 116.090820312 289.599609375 43.810546875 c 4
 292.552734375 31.6826171875 300.663085938 24.052734375 314.125 14.7783203125 c 4
 338.270507812 -1.75390625 373.256835938 -13.73046875 405.162109375 -13.73046875 c 4
 406.48046875 -13.73046875 407.794921875 -13.7099609375 409.1015625 -13.6689453125 c 4
 444.671875 -12.54296875 496.833007812 23.392578125 507.515625 52.7607421875 c 4
 520.251953125 92.1181640625 526.0390625 143.075195312 526.0390625 194.486328125 c 4
 526.0390625 281.046875 509.635742188 368.895507812 482.385742188 404.829101562 c 4
 462.682617188 430.810546875 396.970703125 449.071289062 368.814453125 450.143554688 c 4
EndSplineSet
EndChar

StartChar: F
Encoding: 70 70 23
Width: 908
VWidth: 0
Flags: HMW
LayerCount: 2
Fore
SplineSet
851.4609375 793.189453125 m 4
 856.641601562 792.29296875 860.637695312 784.307617188 860.637695312 779.733398438 c 4
 860.637695312 778.619140625 860.400390625 777.70703125 859.884765625 777.150390625 c 4
 790.27734375 701.830078125 788.538085938 621.736328125 769.330078125 532.30078125 c 4
 765.8125 525.315429688 762.875976562 520.938476562 762.875976562 516.958984375 c 4
 762.875976562 510.690429688 766.000976562 506.150390625 766.000976562 500.024414062 c 4
 766.00390625 499.901367188 766.005859375 499.77734375 766.005859375 499.655273438 c 4
 766.005859375 493.149414062 761.48828125 488.998046875 761.385742188 482.6484375 c 4
 761.444335938 476.63671875 764.127929688 472.705078125 767.9765625 472.705078125 c 4
 768.115234375 472.705078125 768.25390625 472.709960938 768.39453125 472.719726562 c 4
 769.510742188 472.874023438 769.852539062 473.400390625 769.852539062 474.078125 c 4
 769.852539062 475.099609375 769.073242188 476.466796875 769.01171875 477.419921875 c 4
 769.01171875 486.450195312 777.466796875 507.15625 784.317382812 507.993164062 c 4
 785.65625 508.157226562 786.791015625 508.223632812 787.75390625 508.223632812 c 4
 791.71875 508.223632812 792.759765625 507.088867188 793.0625 506.896484375 c 4
 794.373046875 507.346679688 795.821289062 507.630859375 797.258789062 507.630859375 c 4
 800.405273438 507.630859375 803.502929688 506.26953125 805.001953125 502.2890625 c 4
 806.916015625 501.669921875 807.8515625 499.984375 807.8515625 496.749023438 c 4
 807.8515625 494.40234375 807.358398438 491.241210938 806.392578125 487.081054688 c 4
 806.036132812 485.5390625 805.232421875 483.696289062 805.232421875 482.884765625 c 4
 805.232421875 482.620117188 805.317382812 482.465820312 805.530273438 482.465820312 c 4
 805.557617188 482.465820312 805.586914062 482.467773438 805.618164062 482.47265625 c 4
 805.770507812 482.47265625 l 4
 816.8671875 482.47265625 820.651367188 480.916015625 820.651367188 477.145507812 c 4
 820.651367188 473.80078125 817.671875 468.711914062 814.177734375 461.423828125 c 4
 806.14453125 444.673828125 796.27734375 434.6640625 780.369140625 434.606445312 c 4
 772.103515625 434.606445312 754.955078125 441.2578125 748.237304688 446.522460938 c 5
 728.8046875 343.844726562 718.653320312 244.353515625 718.653320312 151.366210938 c 4
 718.653320312 110.166015625 720.645507812 70.2431640625 724.70703125 31.884765625 c 4
 726.556640625 14.4443359375 736.143554688 -3.73828125 748.782226562 -3.73828125 c 4
 749.600585938 -3.73828125 750.431640625 -3.6611328125 751.275390625 -3.50390625 c 4
 755.05078125 -2.798828125 756.475585938 -0.5654296875 756.475585938 2.421875 c 4
 756.475585938 10.560546875 745.907226562 24.296875 743.478515625 28.009765625 c 4
 741.970703125 29.517578125 741.232421875 33.40234375 741.232421875 37.4677734375 c 4
 741.232421875 41.234375 741.866210938 45.1552734375 743.116210938 47.4892578125 c 4
 744.134765625 49.3916015625 747.208984375 55.2470703125 747.424804688 64.9873046875 c 4
 747.485351562 67.783203125 747.520507812 70.1708984375 747.520507812 72.2216796875 c 4
 747.520507812 80.9609375 746.885742188 83.5322265625 744.966796875 85.2666015625 c 4
 740.626953125 89.908203125 738.67578125 97.658203125 738.67578125 106.059570312 c 4
 738.67578125 115.498046875 741.139648438 125.75390625 745.439453125 133.333007812 c 4
 747.421875 136.828125 750.6015625 141.573242188 756.169921875 145.607421875 c 4
 760.053710938 148.420898438 766.622070312 150.721679688 767.4375 150.721679688 c 4
 769.758789062 150.721679688 785.711914062 141.737304688 788.952148438 137.958984375 c 4
 796.056640625 129.54296875 799.709960938 118.677734375 799.709960938 107.526367188 c 4
 799.709960938 98.9169921875 797.533203125 90.1396484375 793.088867188 82.189453125 c 4
 791.081054688 79.9736328125 789.943359375 74.888671875 789.943359375 70.935546875 c 4
 789.943359375 67.9736328125 790.583007812 65.6484375 791.9765625 65.6484375 c 4
 800.41796875 67.3251953125 821.228515625 91.974609375 832.650390625 99.55078125 c 4
 840.68359375 105.626953125 848.7734375 108.517578125 856.079101562 108.517578125 c 4
 869.717773438 108.517578125 880.619140625 98.44140625 883.286132812 80.2080078125 c 4
 883.315429688 79.7236328125 883.325195312 79.2373046875 883.325195312 78.751953125 c 4
 883.325195312 63.8310546875 870.79296875 48.416015625 848.150390625 47.4384765625 c 4
 844.208984375 47.6044921875 840.670898438 47.744140625 837.434570312 47.744140625 c 4
 826.120117188 47.744140625 818.482421875 46.02734375 810.10546875 37.568359375 c 4
 807.854492188 34.9580078125 806.044921875 32.7919921875 806.044921875 31.435546875 c 4
 806.044921875 31.2197265625 806.090820312 31.0244140625 806.189453125 30.8515625 c 4
 807.739257812 28.099609375 809.728515625 27.20703125 811.849609375 27.20703125 c 4
 815.614257812 27.20703125 819.791015625 30.0234375 822.643554688 30.251953125 c 4
 830.680664062 30.251953125 837.950195312 28.0732421875 848.717773438 24.1884765625 c 4
 856.05078125 22.3193359375 863.8671875 19.615234375 870.224609375 15.572265625 c 4
 875.963867188 10.7431640625 875.421875 9.3173828125 875.97265625 4.6591796875 c 4
 875.919921875 -1.3408203125 871.000976562 -5.6728515625 868.932617188 -10.462890625 c 4
 868.888671875 -10.5654296875 868.868164062 -10.6728515625 868.868164062 -10.78515625 c 4
 868.868164062 -12.072265625 871.506835938 -13.990234375 871.506835938 -15.2236328125 c 4
 871.506835938 -15.3369140625 871.484375 -15.4453125 871.435546875 -15.5458984375 c 4
 870.436523438 -17.6123046875 868.314453125 -18.04296875 865.942382812 -18.04296875 c 4
 864.25390625 -18.04296875 862.438476562 -17.8251953125 860.8125 -17.8251953125 c 4
 859.546875 -17.8251953125 858.396484375 -17.95703125 857.509765625 -18.4267578125 c 4
 856.215820312 -19.212890625 855.866210938 -20.3173828125 855.866210938 -21.5048828125 c 4
 855.866210938 -22.8994140625 856.348632812 -24.412109375 856.348632812 -25.66796875 c 4
 856.348632812 -26.9619140625 855.836914062 -27.98046875 853.747070312 -28.310546875 c 4
 853.33984375 -28.55078125 852.62890625 -28.6611328125 851.678710938 -28.6611328125 c 4
 843.206054688 -28.6611328125 819.859375 -18.4794921875 815.692382812 -13.162109375 c 4
 813.520507812 -10.431640625 810.208007812 -9.138671875 806.65234375 -9.138671875 c 4
 802.388671875 -9.138671875 797.77734375 -10.998046875 794.368164062 -14.4716796875 c 4
 785.291992188 -21.3115234375 771.40234375 -24.580078125 760.291992188 -24.580078125 c 4
 758.893554688 -24.580078125 757.540039062 -24.5283203125 756.24609375 -24.4248046875 c 4
 688.715820312 -19.0615234375 603.9921875 -18.3837890625 503.629882812 -18.3837890625 c 4
 468.404296875 -18.720703125 245.03515625 -19.515625 111.78515625 -22.3916015625 c 4
 111.581054688 -22.1650390625 111.48828125 -19.6787109375 111.48828125 -19.3818359375 c 4
 111.48828125 -15.0302734375 131.067382812 -5.80859375 142.443359375 -4.3974609375 c 4
 182.125 6.9912109375 196.19140625 40.4677734375 223.19921875 46.6826171875 c 4
 226.333984375 47.2900390625 229.716796875 47.6142578125 233.1640625 47.6142578125 c 4
 244.510742188 47.6142578125 256.55859375 44.1044921875 262.799804688 35.65234375 c 4
 265.715820312 31.69921875 267.08984375 26.4072265625 267.08984375 21.0224609375 c 4
 267.08984375 14.8544921875 265.286132812 8.5673828125 261.93359375 4.0498046875 c 4
 253.780273438 -6.9443359375 226.248046875 -6.197265625 222.982421875 -8.9404296875 c 4
 222.982421875 -10.2412109375 230.353515625 -11.09375 243.458007812 -11.1396484375 c 4
 265.580078125 -11.0380859375 295.814453125 -11.8154296875 300.877929688 8.2958984375 c 4
 309.587890625 50.82421875 343.512695312 295.034179688 343.512695312 491.254882812 c 4
 343.512695312 631.142578125 326.271484375 746.637695312 270.362304688 747.284179688 c 4
 269.995117188 747.288085938 269.630859375 747.290039062 269.276367188 747.290039062 c 4
 257.224609375 747.290039062 253.029296875 744.84375 253.029296875 740.892578125 c 4
 253.029296875 732.09375 290.323242188 745.87890625 290.323242188 709.666015625 c 4
 290.323242188 708.639648438 290.29296875 707.573242188 290.232421875 706.466796875 c 4
 288.80859375 680.833984375 256.876953125 675.939453125 242.98828125 675.877929688 c 4
 241.559570312 675.877929688 240.1484375 675.943359375 238.764648438 676.073242188 c 4
 169.588867188 682.541992188 118.39453125 769.166992188 56.0048828125 783.03125 c 4
 43.34375 785.6796875 25 788.751953125 25 791.390625 c 4
 25 792.467773438 28.0595703125 793.473632812 35.8134765625 794.348632812 c 4
 211.862304688 792.853515625 412.569335938 791.935546875 580.723632812 791.935546875 c 4
 689.91796875 791.935546875 785.385742188 792.322265625 851.4609375 793.189453125 c 4
489.173828125 742.13671875 m 5
 479.951171875 742.13671875 469.875976562 734.776367188 469.875976562 726.0625 c 6
 469.875976562 725.970703125 l 6
 469.1875 703.296875 468.858398438 680.286132812 468.858398438 657.182617188 c 4
 468.858398438 592.080078125 471.477539062 526.244140625 476.064453125 465.17578125 c 4
 476.064453125 458.241210938 480.942382812 456.306640625 486.407226562 456.275390625 c 4
 574.5859375 458.204101562 655.069335938 458.306640625 734.646484375 459.536132812 c 5
 736.530273438 474.470703125 739.25 487.827148438 739.25 499.541015625 c 4
 739.350585938 500.369140625 739.397460938 501.154296875 739.397460938 501.903320312 c 4
 739.397460938 511.411132812 731.779296875 514.918945312 730.302734375 520.658203125 c 4
 731.110351562 530.696289062 731.521484375 540.274414062 731.521484375 549.418945312 c 4
 731.521484375 669.286132812 660.915039062 714.5703125 489.173828125 742.13671875 c 5
679.412109375 308.10546875 m 5
 667.0078125 368.478515625 569.569335938 391.33203125 501.866210938 391.33203125 c 4
 494.905273438 391.33203125 488.259765625 391.090820312 482.053710938 390.625 c 4
 478.870117188 390.625 477.78125 389.180664062 475.98046875 382.541992188 c 4
 475.96484375 377.375 475.95703125 372.181640625 475.95703125 366.9609375 c 4
 475.95703125 247.6171875 480.5234375 110.534179688 497.173828125 -3.2099609375 c 5
 506.21484375 -3.0703125 515.296875 -3.009765625 524.39453125 -3.009765625 c 4
 583.970703125 -3.009765625 644.307617188 -5.607421875 699.083007812 -5.6875 c 4
 699.856445312 -5.6875 700.244140625 -5.3876953125 700.463867188 -4.6552734375 c 4
 686.318359375 88.638671875 699.021484375 203.04296875 679.413085938 308.106445312 c 5
 679.413085938 308.10546875 l 5
 679.412109375 308.10546875 l 5
EndSplineSet
EndChar

StartChar: G
Encoding: 71 71 24
Width: 925
VWidth: 0
Flags: HMW
LayerCount: 2
Fore
SplineSet
526.158203125 795.645507812 m 1
 624.56640625 795.631835938 710.073242188 753.872070312 771.814453125 714.481445312 c 0
 794.780273438 698.811523438 835.196289062 689.533203125 872.825195312 689.533203125 c 0
 906.409179688 689.533203125 937.772460938 696.924804688 952.522460938 713.76171875 c 0
 952.96875 715.220703125 953.170898438 716.5078125 953.170898438 717.633789062 c 0
 953.170898438 721.98828125 950.139648438 723.9140625 946.463867188 723.9140625 c 0
 942.953125 723.9140625 938.857421875 722.15625 936.258789062 719.078125 c 0
 931.055664062 715.610351562 923.122070312 713.572265625 915.219726562 713.572265625 c 0
 909.366210938 713.572265625 903.529296875 714.692382812 898.830078125 717.178710938 c 0
 887.357421875 723.248046875 877.473632812 737.098632812 877.473632812 750.141601562 c 0
 877.473632812 750.803710938 877.498046875 751.463867188 877.551757812 752.12109375 c 0
 878.877929688 768.826171875 893.609375 787.670898438 910.142578125 790.40234375 c 0
 912.40234375 790.775390625 914.666015625 790.958007812 916.921875 790.958007812 c 0
 936.412109375 790.958007812 953.323242188 783.6171875 964.916015625 762.686523438 c 0
 967.575195312 757.627929688 970.928710938 745.9296875 970.928710938 739.611328125 c 0
 971.758789062 731.76171875 971.06640625 721.512695312 976.275390625 715.943359375 c 0
 978.678710938 713.8671875 979.616210938 711.63671875 979.616210938 709.41796875 c 0
 979.616210938 701.733398438 968.33984375 694.197265625 967.75390625 693.743164062 c 0
 966.12890625 692.364257812 962.2421875 690.22265625 959.112304688 688.984375 c 0
 924.506835938 675.745117188 879.405273438 670.393554688 833.935546875 670.393554688 c 0
 816.552734375 670.393554688 799.1171875 671.174804688 782.193359375 672.59765625 c 0
 680.536132812 681.137695312 557.614257812 689.776367188 457.829101562 689.776367188 c 0
 380.178710938 689.776367188 271.271484375 678.725585938 252.048828125 606.356445312 c 0
 227.088867188 512.383789062 216.719726562 427.514648438 216.719726562 349.2734375 c 0
 216.719726562 238.530273438 237.4921875 141.064453125 267.071289062 49.8603515625 c 0
 278.375976562 15.8408203125 332.829101562 -9.865234375 383.40234375 -9.865234375 c 0
 424.569335938 -9.865234375 463.166992188 7.16796875 473.833007812 50.6142578125 c 0
 493.059570312 128.930664062 501.713867188 204.280273438 501.713867188 278.580078125 c 0
 501.713867188 373.541015625 487.578125 466.7890625 463.314453125 562.327148438 c 1
 455.583984375 565.971679688 451.860351562 569.399414062 448.129882812 569.399414062 c 0
 446.23046875 569.399414062 444.329101562 568.510742188 441.896484375 566.30859375 c 0
 439.653320312 564.000976562 432.787109375 562.688476562 428.991210938 562.688476562 c 0
 428.727539062 562.688476562 428.479492188 562.694335938 428.249023438 562.708007812 c 0
 427.861328125 562.801757812 427.525390625 562.845703125 427.234375 562.845703125 c 0
 426.126953125 562.845703125 425.677734375 562.209960938 425.677734375 561.2265625 c 0
 425.677734375 559.295898438 427.409179688 556.018554688 429.290039062 553.555664062 c 0
 435.875976562 547.916992188 438.172851562 542.715820312 438.172851562 537.73828125 c 0
 438.172851562 526.256835938 425.94921875 515.958984375 425.94921875 504.197265625 c 0
 425.94921875 499.157226562 428.193359375 493.849609375 434.604492188 488.064453125 c 0
 441.729492188 482.211914062 446.672851562 475.663085938 446.672851562 468.182617188 c 0
 446.672851562 463.662109375 444.866210938 458.80078125 440.646484375 453.548828125 c 0
 436.521484375 448.412109375 431.55078125 444.591796875 426.9609375 437.399414062 c 0
 415.463867188 415.788085938 402.657226562 409.248046875 367.569335938 399.813476562 c 1
 380.208007812 411.774414062 394.918945312 422.908203125 394.9765625 438.389648438 c 0
 394.9765625 448.705078125 378.791992188 453.002929688 361.741210938 463.505859375 c 0
 348.287109375 470.147460938 345.666992188 487.553710938 345.666992188 502.140625 c 0
 345.666992188 503.631835938 345.693359375 505.094726562 345.73828125 506.51171875 c 0
 347.49609375 560.76953125 384.459960938 596.25390625 433.99609375 596.25390625 c 0
 447.361328125 596.25390625 461.641601562 593.670898438 476.391601562 588.178710938 c 0
 588.981445312 542.546875 652.787109375 429.662109375 652.787109375 324.897460938 c 0
 652.787109375 323.467773438 652.774414062 322.0390625 652.75 320.612304688 c 0
 650.850585938 206.848632812 584.608398438 96.6591796875 502.71484375 20.4794921875 c 0
 470.801757812 -9.20703125 426.235351562 -33.751953125 382.600585938 -33.751953125 c 0
 379.1875 -33.751953125 375.780273438 -33.6005859375 372.384765625 -33.291015625 c 0
 210.749023438 -18.5478515625 25 196.69921875 25 330.875976562 c 0
 25 332.557617188 25.029296875 334.2265625 25.0888671875 335.881835938 c 1
 38.228515625 518.599609375 166.051757812 600.625976562 278.244140625 699.146484375 c 0
 363.012695312 773.052734375 449.584960938 795.643554688 526.11328125 795.643554688 c 2
 526.158203125 795.643554688 l 1
 526.158203125 795.645507812 l 1
EndSplineSet
EndChar

StartChar: b
Encoding: 98 98 25
Width: 339
VWidth: 0
Flags: HMW
LayerCount: 2
Fore
SplineSet
170.931640625 -40.2578125 m 4
 127.96484375 -0.6494140625 91.7216796875 23.3173828125 27.2724609375 30.7021484375 c 4
 25.2587890625 30.7021484375 23.8427734375 31.47265625 23.1904296875 32.8681640625 c 4
 23.0576171875 33.15234375 23 33.4833984375 23 33.828125 c 4
 23 34.7578125 23.41796875 35.7861328125 23.9072265625 36.2763671875 c 4
 48.8525390625 60.095703125 61.423828125 67.8857421875 65.1953125 104.752929688 c 4
 66.5380859375 169.873046875 67.2099609375 236.334960938 67.2099609375 304.139648438 c 4
 67.2099609375 378.658203125 66.203125 445.45703125 64.1884765625 504.53515625 c 4
 64.1884765625 505.20703125 63.8525390625 505.541992188 63.181640625 505.541992188 c 4
 57.1396484375 502.185546875 45.7265625 496.478515625 28.943359375 488.422851562 c 4
 27.6005859375 487.750976562 26.59375 487.416015625 25.9228515625 487.416015625 c 4
 25.2509765625 487.416015625 24.9150390625 487.750976562 24.9150390625 488.422851562 c 4
 24.9150390625 491.108398438 26.2578125 493.122070312 28.943359375 494.46484375 c 4
 71.2373046875 517.291015625 91.3779296875 534.41015625 109.50390625 545.822265625 c 4
 139.713867188 565.291015625 162.204101562 584.423828125 176.973632812 603.221679688 c 4
 180.330078125 607.921875 183.3515625 610.271484375 186.037109375 610.271484375 c 4
 188.721679688 608.928710938 190.064453125 607.25 190.064453125 605.236328125 c 4
 190.064453125 603.22265625 189.392578125 601.543945312 188.05078125 600.201171875 c 6
 169.924804688 578.046875 l 5
 165.224609375 553.87890625 161.868164062 490.436523438 159.854492188 387.721679688 c 4
 159.854492188 386.379882812 160.189453125 385.708007812 160.861328125 385.708007812 c 4
 193.458007812 409.06640625 203.333007812 426.654296875 212.95703125 459.986328125 c 4
 213.952148438 461.64453125 216.244140625 466.271484375 219.16015625 466.271484375 c 4
 219.196289062 466.271484375 219.232421875 466.270507812 219.268554688 466.26953125 c 4
 222.359375 466.147460938 223.966796875 463.919921875 225.309570312 459.219726562 c 4
 238.162109375 426.15625 279.752929688 393.23046875 308.891601562 391.75 c 6
 313.926757812 391.75 l 5
 316.947265625 389.736328125 l 5
 316.947265625 388.729492188 l 6
 316.947265625 387.38671875 315.268554688 384.869140625 311.913085938 381.176757812 c 4
 308.555664062 377.484375 306.541992188 374.630859375 305.87109375 372.6171875 c 4
 305.868164062 370.754882812 305.8671875 368.895507812 305.8671875 367.040039062 c 4
 305.8671875 283.284179688 308.671875 206.32421875 308.671875 128.233398438 c 4
 308.671875 96.2724609375 308.202148438 64.123046875 306.877929688 31.240234375 c 4
 306.877929688 27.8837890625 304.166015625 26.724609375 298.821289062 26.205078125 c 4
 251.848632812 21.642578125 202.840820312 -9.8701171875 176.973632812 -39.25 c 6
 176.973632812 -39.25 175.369140625 -42.130859375 173.952148438 -42.271484375 c 4
 173.873046875 -42.279296875 173.795898438 -42.283203125 173.72265625 -42.283203125 c 4
 172.681640625 -42.283203125 172.185546875 -41.51171875 170.931640625 -40.2578125 c 4
212.21875 49.3662109375 m 4
 215.575195312 49.3662109375 217.25390625 54.4013671875 217.25390625 64.4716796875 c 6
 217.25390625 65.478515625 l 5
 220.877929688 117.052734375 223.166992188 163.283203125 223.166992188 210.315429688 c 4
 223.166992188 244.108398438 221.985351562 278.31640625 219.268554688 315.217773438 c 4
 219.268554688 323.2734375 216.583007812 329.315429688 211.211914062 333.34375 c 4
 196.442382812 343.4140625 181.001953125 349.791015625 164.889648438 352.4765625 c 4
 159.517578125 352.4765625 156.833007812 350.797851562 156.833007812 347.442382812 c 4
 156.833007812 332.001953125 156.161132812 301.119140625 154.819335938 254.796875 c 4
 153.4765625 208.474609375 152.805664062 175.243164062 152.805664062 155.103515625 c 4
 152.805664062 107.438476562 155.490234375 80.9189453125 160.861328125 75.548828125 c 4
 174.288085938 62.1220703125 191.407226562 53.39453125 212.21875 49.3662109375 c 4
EndSplineSet
EndChar

StartChar: c
Encoding: 99 99 26
Width: 305
VWidth: 0
Flags: HMW
LayerCount: 2
Fore
SplineSet
28.580078125 36.3564453125 m 4
 27.19921875 36.5439453125 26.65234375 37.3330078125 26.65234375 38.5986328125 c 4
 26.65234375 39.2705078125 26.806640625 40.0771484375 27.072265625 41.0009765625 c 4
 32.06640625 58.361328125 38.970703125 104.545898438 39.0341796875 135.22265625 c 4
 39.744140625 144.7265625 40.056640625 154.2109375 40.056640625 163.65625 c 4
 40.056640625 232.392578125 23.49609375 299.096679688 23.001953125 356.665039062 c 4
 23.0009765625 356.78515625 23 356.904296875 23 357.022460938 c 4
 23 364.125976562 24.8720703125 367.518554688 28.01171875 368.688476562 c 4
 98.341796875 394.903320312 140.720703125 424.989257812 159.1640625 463.192382812 c 4
 159.454101562 463.793945312 161.5078125 467.221679688 163.528320312 467.4609375 c 4
 163.79296875 467.4921875 164.044921875 467.5078125 164.286132812 467.5078125 c 4
 166.7890625 467.5078125 168.165039062 465.833007812 171.338867188 462.794921875 c 4
 200.73828125 434.643554688 231.8984375 421.020507812 277.509765625 415.782226562 c 4
 280.828125 415.401367188 282.51953125 414.947265625 282.51953125 413.27734375 c 4
 264.01953125 394.844726562 246.557617188 359.46875 245.4453125 324.600585938 c 5
 205.365234375 330.612304688 166.955078125 345.30859375 130.215820312 368.688476562 c 4
 129.547851562 369.356445312 128.87890625 369.690429688 128.211914062 369.690429688 c 4
 126.875 369.690429688 126.521484375 368.3359375 126.208007812 365.682617188 c 4
 120.286132812 315.6171875 116.7421875 264.741210938 116.7421875 216.9375 c 4
 116.7421875 185.087890625 118.315429688 154.602539062 121.80859375 126.62890625 c 4
 124.180664062 93.9345703125 178.120117188 65.5869140625 210.876953125 62.578125 c 4
 214.44921875 62.1494140625 217.845703125 61.39453125 218.391601562 58.068359375 c 4
 218.42578125 57.8603515625 218.442382812 57.6435546875 218.442382812 57.421875 c 4
 218.442382812 54.833984375 216.119140625 51.3994140625 211.377929688 49.05078125 c 4
 170.514648438 28.8154296875 152.896484375 -2.3056640625 138.231445312 -38.123046875 c 4
 137.056640625 -40.1328125 134.336914062 -41.5361328125 131.983398438 -41.5361328125 c 4
 130.311523438 -41.5361328125 128.826171875 -40.828125 128.211914062 -39.125 c 4
 115.560546875 -4.07421875 69.8193359375 32.95703125 28.580078125 36.3564453125 c 4
EndSplineSet
EndChar

StartChar: g
Encoding: 103 103 27
Width: 505
VWidth: 0
Flags: HMW
LayerCount: 2
Fore
SplineSet
299.592773438 460.330078125 m 0
 300.64453125 460.278320312 302.272460938 458.370117188 302.8203125 457.08984375 c 0
 320.942382812 418.96875 374.342773438 382.373046875 399.307617188 368.861328125 c 0
 400.737304688 368.305664062 403.205078125 367.581054688 403.602539062 362.946289062 c 0
 403.788085938 360.796875 403.861328125 358.438476562 403.861328125 355.958007812 c 0
 403.861328125 346.473632812 402.791015625 335.213867188 402.791015625 327.133789062 c 0
 402.791015625 326.14453125 402.806640625 325.202148438 402.842773438 324.317382812 c 1
 407.390625 325.428710938 413 325.869140625 419.026367188 325.869140625 c 0
 435.987304688 325.869140625 456.256835938 322.379882812 465.491210938 320.530273438 c 1
 467.400390625 325.02734375 472.08203125 329.540039062 474.1484375 329.540039062 c 0
 474.663085938 329.540039062 475.015625 329.259765625 475.123046875 328.629882812 c 0
 475.665039062 325.444335938 477.911132812 323.12890625 477.911132812 320.44140625 c 0
 477.911132812 319.934570312 477.831054688 319.415039062 477.645507812 318.873046875 c 0
 461.27734375 256.463867188 446.889648438 150.219726562 446.889648438 98.39453125 c 0
 446.889648438 94.6376953125 446.96484375 91.166015625 447.12109375 88.0185546875 c 1
 448.711914062 81.8388671875 453.081054688 79.4736328125 457.408203125 79.4736328125 c 0
 462.708984375 79.4736328125 467.948242188 83.0224609375 467.948242188 87.458984375 c 0
 467.948242188 90.4345703125 465.59375 93.80859375 459.325195312 96.78125 c 0
 458.137695312 96.8662109375 455.774414062 97.0029296875 454.073242188 97.087890625 c 0
 452.017578125 97.189453125 451.331054688 97.24609375 451.331054688 98.802734375 c 0
 451.331054688 99.564453125 451.49609375 100.686523438 451.745117188 102.349609375 c 0
 453.0078125 110.765625 457.426757812 115.35546875 464.120117188 115.35546875 c 0
 464.901367188 115.35546875 465.712890625 115.29296875 466.5546875 115.166992188 c 0
 471.479492188 114.427734375 474.641601562 109.033203125 477.608398438 105.001953125 c 0
 480.283203125 101.3671875 481.989257812 95.9521484375 481.989257812 90.0146484375 c 0
 481.989257812 81.1728515625 478.208007812 71.1748046875 468.213867188 64.1796875 c 0
 464.505859375 61.583984375 459.983398438 60.197265625 455.286132812 60.197265625 c 0
 445.380859375 60.197265625 434.698242188 66.3642578125 429.231445312 80.3681640625 c 0
 428.1015625 85.984375 427.700195312 92.0078125 427.700195312 98.2197265625 c 0
 427.700195312 109.506835938 429.026367188 121.415039062 429.71875 132.630859375 c 0
 431.236328125 157.234375 434.630859375 188.384765625 438.125976562 206.1015625 c 0
 441.126953125 221.310546875 443.758789062 232.370117188 443.758789062 241.455078125 c 0
 443.758789062 247.837890625 442.458984375 253.24609375 439.075195312 258.431640625 c 1
 434.46875 260.198242188 423.377929688 262.700195312 413.717773438 262.700195312 c 0
 406.485351562 262.700195312 400.0546875 261.297851562 397.747070312 257.133789062 c 1
 394.670898438 224.26953125 392.747070312 174.120117188 392.747070312 127.798828125 c 0
 392.747070312 107.998046875 393.098632812 88.896484375 393.862304688 72.1435546875 c 0
 393.8515625 72.044921875 393.846679688 71.943359375 393.846679688 71.8388671875 c 0
 393.846679688 63.5 425.305664062 36.3642578125 431.620117188 31.6689453125 c 0
 438.135742188 27.8134765625 443.212890625 26.033203125 449.60546875 26.033203125 c 0
 453.891601562 26.033203125 458.768554688 26.8330078125 465.068359375 28.34375 c 0
 465.748046875 28.34375 466.041992188 27.701171875 466.041992188 26.6845703125 c 0
 466.041992188 23.6630859375 463.447265625 17.3359375 460.661132812 14.734375 c 1
 460.163085938 14.7470703125 459.666992188 14.75390625 459.171875 14.75390625 c 0
 405.079101562 14.75390625 365.893554688 -62.353515625 365.893554688 -112.265625 c 0
 365.893554688 -113.598632812 365.921875 -114.913085938 365.979492188 -116.205078125 c 0
 367.331054688 -118.857421875 368.014648438 -121.02734375 368.014648438 -122.885742188 c 0
 368.014648438 -125.197265625 366.95703125 -127.028320312 364.811523438 -128.708007812 c 0
 362.186523438 -130.762695312 362.953125 -132.53515625 362.008789062 -137.889648438 c 0
 360.737304688 -145.114257812 358.362304688 -147.44140625 351.408203125 -147.909179688 c 0
 351.18359375 -147.923828125 350.961914062 -147.931640625 350.741210938 -147.931640625 c 0
 345.646484375 -147.931640625 341.581054688 -143.943359375 340.469726562 -137.994140625 c 0
 340.228515625 -136.700195312 340.103515625 -135.634765625 340.103515625 -134.7109375 c 0
 340.103515625 -133.163085938 340.455078125 -132.013671875 341.19921875 -130.859375 c 0
 342.189453125 -129.325195312 342.928710938 -127.905273438 342.928710938 -126.4375 c 0
 342.928710938 -125.064453125 342.282226562 -123.649414062 340.58984375 -122.060546875 c 0
 338.497070312 -120.09375 330.555664062 -118.369140625 324.3046875 -117.196289062 c 0
 317.606445312 -115.940429688 294.959960938 -114.408203125 267.93359375 -114.408203125 c 0
 247.484375 -114.408203125 224.528320312 -115.286132812 204.076171875 -117.82421875 c 0
 197.830078125 -118.599609375 199 -126.5 196.163085938 -131.115234375 c 0
 193.374023438 -135.654296875 189.850585938 -137.383789062 186.448242188 -137.383789062 c 0
 180.129882812 -137.383789062 174.23046875 -131.415039062 174.23046875 -126.390625 c 0
 174.23046875 -125.174804688 174.576171875 -124.013671875 175.345703125 -123.005859375 c 0
 175.958007812 -122.268554688 176.689453125 -118.46484375 176.971679688 -114.553710938 c 0
 176.715820312 -102.3671875 172.272460938 -86.9912109374 159.879882812 -77.10546875 c 0
 156.563476562 -74.4599609375 149.982421875 -75.3720703125 146.299804688 -72.7431640625 c 0
 142.30078125 -69.8876953125 142.690429688 -61.2861328125 137.900390625 -59.1572265625 c 0
 136.49609375 -58.533203125 134.561523438 -58.3310546875 132.384765625 -58.3310546875 c 0
 128.4140625 -58.3310546875 123.63671875 -59.001953125 119.801757812 -59.001953125 c 0
 118.111328125 -59.001953125 116.603515625 -58.87109375 115.428710938 -58.4951171875 c 0
 102.9375 -54.5 90.2402343752 -52.208984375 79.0517578125 -52.208984375 c 0
 63.8261718753 -52.208984375 51.3916015626 -56.4521484375 46.0673828125 -66.4169921875 c 0
 45.55078125 -67.853515625 45.32421875 -69.0146484375 45.32421875 -70.0048828125 c 0
 45.32421875 -73.2021484375 47.68359375 -74.603515625 50.2373046875 -77.6552734375 c 0
 57.390625 -85.9423828125 60.146484375 -92.037109375 60.146484375 -96.7626953125 c 0
 60.146484375 -109.513671875 40.076171875 -112.287109375 32.2099609375 -121.22265625 c 0
 32.14453125 -124.163085938 28.958984375 -124.537109375 28.958984375 -127.047851562 c 0
 28.958984375 -127.459960938 29.044921875 -127.9296875 29.2451171875 -128.478515625 c 0
 34.2236328125 -140.836914062 35.1337890625 -151.174804688 35.1337890625 -157.842773438 c 0
 35.1337890625 -159.26953125 35.091796875 -160.528320312 35.0400390625 -161.602539062 c 0
 34.3291015625 -176.184570312 15.119140625 -185.961914062 1.3173828125 -188.955078125 c 0
 -5.16796875 -190.362304688 -10.2783203125 -191.6015625 -15.7587890625 -193.278320312 c 0
 -15.9619140625 -193.340820312 -16.16796875 -193.369140625 -16.373046875 -193.369140625 c 0
 -17.5380859375 -193.369140625 -18.6591796875 -192.458984375 -18.9365234375 -191.737304688 c 0
 -18.9794921875 -191.600585938 -19 -191.46484375 -19 -191.330078125 c 0
 -19 -185.75 16.947265625 -181.079101562 17.88671875 -166.663085938 c 0
 17.94140625 -165.83203125 17.9677734375 -164.991210938 17.9677734375 -164.142578125 c 0
 17.9677734375 -147.958007812 8.4482421875 -129.009765625 2.35546875 -118.938476562 c 0
 -4.3232421875 -107.6015625 -7.7333984375 -96.7363281252 -7.7333984375 -86.90234375 c 0
 -7.7333984375 -60.1181640625 17.564453125 -40.978515625 71.03125 -40.7666015625 c 0
 152.989257812 -36.970703125 238.168945312 -39.107421875 350.600585938 -37.4697265625 c 0
 356.8671875 -36.9541015625 360.901367188 -32.130859375 362.379882812 -27.1162109375 c 0
 362.609375 -26.3359375 362.719726562 -25.611328125 362.719726562 -24.9013671875 c 0
 362.719726562 -22.6201171875 361.575195312 -20.4990234375 359.573242188 -17.2177734375 c 0
 348.99609375 0.119140625 306.4921875 12.80078125 298.405273438 36.76171875 c 0
 297.975585938 38.71875 297.33984375 39.345703125 296.69921875 39.345703125 c 0
 296.359375 39.345703125 296.018554688 39.1689453125 295.705078125 38.9208984375 c 0
 293.680664062 37.318359375 292.325195312 36.087890625 290.528320312 34.8115234375 c 0
 268.903320312 19.4501953125 255.895507812 2.033203125 240.397460938 -26.9326171875 c 0
 238.915039062 -29.1220703125 237.200195312 -30.341796875 235.295898438 -30.341796875 c 0
 232.4453125 -30.341796875 229.169921875 -27.609375 225.61328125 -21.3095703125 c 0
 204.739257812 14.541015625 175.743164062 23.126953125 136.75 23.5595703125 c 0
 133.3515625 23.8349609375 132.209960938 24.5234375 132.209960938 25.8369140625 c 0
 132.209960938 27.0283203125 133.150390625 28.734375 134.198242188 31.109375 c 0
 138.646484375 54.8710937499 140.357421875 92.0419921872 140.357421875 133.147460938 c 0
 140.357421875 212.768554688 133.939453125 307.149414062 128.5703125 347.415039062 c 0
 129.767578125 350.533203125 138.140625 352.536132812 144.153320312 352.874023438 c 0
 195.580078125 356.668945312 258.225585938 409.270507812 294.758789062 456.451171875 c 0
 295.82421875 458.270507812 298.16796875 460.33203125 299.529296875 460.33203125 c 0
 299.55078125 460.33203125 299.572265625 460.331054688 299.592773438 460.330078125 c 0
234.848632812 366.55078125 m 0
 234.627929688 366.58203125 234.3984375 366.596679688 234.162109375 366.596679688 c 0
 230.096679688 366.596679688 223.880859375 362.145507812 223.880859375 357.0625 c 0
 223.880859375 356.60546875 223.930664062 356.143554688 224.037109375 355.678710938 c 0
 226.168945312 328.819335938 226.774414062 300.78125 226.774414062 271.982421875 c 0
 226.774414062 234.090820312 225.725585938 194.884765625 225.725585938 155.318359375 c 0
 225.725585938 138.904296875 225.90625 122.428710938 226.416992188 105.958984375 c 0
 229.0546875 86.0888671875 280.4140625 60.73828125 303.080078125 56.74609375 c 1
 307.143554688 59.359375 307.14453125 68.048828125 307.581054688 70.5234375 c 0
 306.494140625 89.4580078127 306.122070312 108.694335938 306.122070312 128.086914062 c 0
 306.122070312 170.036132812 307.862304688 212.71484375 307.862304688 254.638671875 c 0
 307.862304688 276.310546875 307.397460938 297.78125 305.986328125 318.845703125 c 1
 288.263671875 337.112304688 243.030273438 365.401367188 234.848632812 366.55078125 c 0
EndSplineSet
EndChar

StartChar: U
Encoding: 85 85 28
Width: 859
VWidth: 0
Flags: HMW
LayerCount: 2
Fore
SplineSet
789.364257812 -34.75 m 4
 769.494140625 -15.1728515625 748.625976562 -7.326171875 734.314453125 -7.326171875 c 4
 733.810546875 -7.27734375 733.318359375 -7.2548828125 732.8359375 -7.2548828125 c 4
 722.600585938 -7.2548828125 717.171875 -17.853515625 708.017578125 -17.99609375 c 4
 708.006835938 -17.99609375 707.997070312 -17.99609375 707.985351562 -17.99609375 c 4
 686.6953125 -17.99609375 688.6875 9.900390625 672.81640625 10.2294921875 c 4
 662.823242188 11.251953125 649.328125 13.046875 636.510742188 13.046875 c 4
 624.018554688 13.046875 612.168945312 11.341796875 604.830078125 5.5556640625 c 4
 592.206054688 -4.396484375 580.749023438 -15.5185546875 565.400390625 -21.890625 c 4
 544.9140625 -30.3955078125 521.000976562 -37.5478515625 495.674804688 -37.5478515625 c 4
 494.879882812 -37.5478515625 494.083007812 -37.5419921875 493.284179688 -37.529296875 c 4
 420.901367188 -36.2314453125 344.396484375 8.7490234375 289.904296875 47.5478515625 c 4
 109.370117188 176.088867188 25 301.930664062 25 420.77734375 c 4
 25 544.995117188 117.168945312 661.5703125 288.0390625 765.59765625 c 5
 279.55078125 768.694335938 271.405273438 769.748046875 263.315429688 769.748046875 c 4
 255.447265625 769.748046875 247.631835938 768.751953125 239.59765625 767.666992188 c 4
 225.49609375 765.9921875 228.577148438 743.232421875 220.361328125 732.811523438 c 4
 211.825195312 721.986328125 200.521484375 718.666015625 189.270507812 718.666015625 c 4
 186.171875 718.666015625 183.078125 718.91796875 180.046875 719.333007812 c 4
 167.885742188 721.004882812 155.333007812 731.409179688 149.563476562 740.000976562 c 4
 130.578125 768.283203125 100.493164062 776.08203125 64.1982421875 785.833984375 c 4
 63.0537109375 786.178710938 62.5625 786.587890625 62.5625 787.032226562 c 4
 62.5625 789.228515625 74.568359375 792.256835938 78.90625 792.256835938 c 4
 79.0244140625 792.255859375 l 4
 205.071289062 790.587890625 321.018554688 789.697265625 444.189453125 789.697265625 c 4
 562.264648438 789.697265625 686.979492188 790.515625 833.591796875 792.25 c 4
 833.880859375 791.760742188 834.009765625 791.133789062 834.009765625 790.419921875 c 4
 834.009765625 786.505859375 830.15234375 780.021484375 827.838867188 779.765625 c 4
 823.266601562 780.421875 819.194335938 780.692382812 815.419921875 780.692382812 c 4
 814.970703125 780.693359375 l 4
 777.995117188 780.693359375 738.899414062 769.592773438 738.353515625 725.880859375 c 4
 735.220703125 674.223632812 728.778320312 527.055664062 728.778320312 377.578125 c 4
 728.778320312 240.616210938 734.186523438 101.715820312 752.504882812 32.5732421875 c 4
 759.791992188 5.0673828125 808.553710938 -26.7470703125 808.553710938 -38.53515625 c 4
 808.553710938 -41.005859375 806.811523438 -42.41015625 802.74609375 -42.41015625 c 4
 796.344726562 -42.2451171875 794.397460938 -39.70703125 789.364257812 -34.75 c 4
621.615234375 711.021484375 m 4
 620.861328125 733.604492188 536.346679688 745.6953125 453.169921875 745.6953125 c 4
 372.36328125 745.6953125 292.819335938 734.284179688 292.567382812 709.999023438 c 4
 291.870117188 643.084960938 289.520507812 546.104492188 289.520507812 447.704101562 c 4
 289.520507812 280.54296875 296.301757812 109.284179688 329.486328125 74.3603515625 c 4
 369.9921875 31.732421875 441.345703125 -1.6044921875 500.249023438 -1.6044921875 c 4
 534.19140625 -1.6044921875 564.000976562 9.4638671875 581.392578125 36.2001953125 c 4
 617.013671875 90.9619140625 623.229492188 376.3359375 623.229492188 558.86328125 c 4
 623.229492188 637.848632812 622.064453125 697.575195312 621.615234375 711.021484375 c 4
EndSplineSet
EndChar

StartChar: H
Encoding: 72 72 29
Width: 920
VWidth: 0
Flags: HMW
LayerCount: 2
Fore
SplineSet
787.633789062 791.125 m 5
 790.903320312 776.850585938 l 5
 767 776.948242188 742.836914062 776.989257812 718.625976562 776.989257812 c 4
 619.237304688 776.989257812 519.0703125 776.29296875 433.014648438 776.067382812 c 5
 431.921875 728.6796875 431.103515625 676.66015625 430.942382812 631.5625 c 5
 489.279296875 664.822265625 547.30078125 681.254882812 602.13671875 681.254882812 c 4
 604.919921875 681.254882812 607.6953125 681.212890625 610.463867188 681.12890625 c 4
 691.19140625 677.37109375 755.79296875 647.426757812 802.275390625 602.721679688 c 4
 851.161132812 555.702148438 880.002929688 492.35546875 886.4765625 425.978515625 c 4
 887.40625 416.4453125 887.875 406.849609375 887.875 397.231445312 c 4
 887.875 354.568359375 878.6640625 311.451171875 859.64453125 271.315429688 c 4
 841.169921875 233.057617188 813.868164062 206.844726562 789.502929688 178.259765625 c 4
 778.895507812 165.817382812 768.844726562 152.926757812 760.323242188 138.396484375 c 4
 746.774414062 114.810546875 738.845703125 92.056640625 738.845703125 68.314453125 c 4
 738.845703125 53.5947265625 741.893554688 38.494140625 748.541992188 22.5810546875 c 4
 749.713867188 20.1484375 751.176757812 19.3681640625 753.786132812 19.3603515625 c 4
 766.092773438 19.7607421875 763.651367188 35.2890625 767.87890625 43.9375 c 4
 774.900390625 58.30078125 786.958007812 68.47265625 798.959960938 68.47265625 c 4
 810.056640625 68.47265625 821.107421875 59.77734375 828.088867188 37.6640625 c 4
 830.590820312 30.341796875 834.501953125 22.193359375 840.348632812 16.5234375 c 4
 859.295898438 -8.9609375 895.814453125 -7.1318359375 895.814453125 -17.091796875 c 4
 895.814453125 -18.4912109375 895.09375 -20.1240234375 893.501953125 -22.09765625 c 4
 890.639648438 -25.224609375 882.024414062 -25.763671875 872.557617188 -25.763671875 c 4
 867.571289062 -25.763671875 862.349609375 -25.6123046875 857.608398438 -25.6123046875 c 4
 855.161132812 -25.6123046875 852.840820312 -25.65234375 850.749023438 -25.7744140625 c 4
 691.106445312 -25.0458984375 530.693359375 -24.28125 377.6953125 -24.28125 c 4
 253.821289062 -24.28125 134.807617188 -24.7822265625 25 -26.2099609375 c 5
 25.4892578125 -22.009765625 29.931640625 -13.134765625 33.7001953125 -12.333984375 c 4
 108.416992188 -2.1064453125 129.801757812 53.6201171875 196.982421875 53.6201171875 c 4
 198.681640625 53.6201171875 200.411132812 53.583984375 202.170898438 53.5107421875 c 4
 208.765625 53.236328125 214.461914062 51.7333984375 219.188476562 47.5732421875 c 4
 222.783203125 44.41015625 227.231445312 38.255859375 227.231445312 32.6376953125 c 4
 227.231445312 31.9873046875 227.170898438 31.3427734375 227.04296875 30.7119140625 c 4
 224.08203125 16.0791015625 193.833984375 4.185546875 193.833984375 0.6630859375 c 4
 193.833984375 -0.0478515625 195.182617188 -0.423828125 198.423828125 -0.423828125 c 4
 201.805664062 -0.423828125 207.248046875 -0.0146484375 215.370117188 0.85546875 c 4
 234.149414062 2.3330078125 264.423828125 2.5966796875 265.505859375 39.818359375 c 4
 268.452148438 84.78515625 269.748046875 141.884765625 269.748046875 205.2421875 c 4
 269.748046875 390.28125 258.693359375 628.688476562 245.435546875 774.057617188 c 5
 193.80859375 777.135742188 174.171875 776.970703125 107.737304688 779.989257812 c 5
 109.396484375 791.716796875 l 5
 145.270507812 791.020507812 198.212890625 790.795898438 260.563476562 790.795898438 c 4
 373.86328125 790.795898438 518.232421875 791.538085938 647.719726562 791.538085938 c 4
 697.415039062 791.538085938 744.918945312 791.428710938 787.633789062 791.125 c 5
699.366210938 257.04296875 m 4
 699.366210938 371.978515625 696.435546875 485.971679688 692.77734375 541.567382812 c 4
 689.11328125 564.28515625 683.418945312 586.8359375 669.34765625 606.01953125 c 4
 659.716796875 619.150390625 646.161132812 630.704101562 626.650390625 639.653320312 c 4
 613.975585938 645.467773438 598.842773438 647.95703125 581.618164062 647.95703125 c 4
 569.307617188 647.95703125 555.928710938 646.685546875 541.6171875 644.447265625 c 4
 523.147460938 641.55859375 502.865234375 636.415039062 480.642578125 628.627929688 c 4
 464.966796875 623.13671875 447.407226562 617.732421875 432.420898438 605.782226562 c 5
 429.493164062 538.822265625 428.107421875 472.028320312 428.107421875 405.78515625 c 4
 428.107421875 264.154296875 434.443359375 125.0390625 445.583984375 -7.8017578125 c 5
 457.868164062 -7.8291015625 469.97265625 -7.8447265625 481.932617188 -7.8447265625 c 4
 555.041992188 -7.8447265625 622.728515625 -7.2451171875 692.748046875 -4.826171875 c 5
 697.46875 86.1123046875 699.3046875 177.110351562 699.366210938 257.04296875 c 4
EndSplineSet
EndChar

StartChar: I
Encoding: 73 73 30
Width: 824
VWidth: 0
Flags: HMW
LayerCount: 2
Fore
SplineSet
32.83984375 790.377929688 m 5
 126.370117188 789.521484375 224.591796875 789.215820312 324.87890625 789.215820312 c 4
 481.271484375 789.215820312 642.684570312 789.958984375 799.154296875 790.515625 c 4
 799.631835938 790.0390625 799.842773438 789.405273438 799.842773438 788.693359375 c 4
 799.842773438 785.701171875 796.11328125 781.302734375 792.619140625 781.171875 c 4
 707.604492188 766.741210938 741.583984375 726.327148438 667.479492188 683.014648438 c 4
 657.942382812 677.44140625 645.051757812 673.916015625 631.536132812 673.916015625 c 4
 621.116210938 673.916015625 610.325195312 676.009765625 600.41015625 680.875 c 4
 589.0390625 686.456054688 579.251953125 698.28125 579.251953125 712.067382812 c 4
 579.251953125 725.896484375 589.099609375 741.698242188 617.071289062 755.145507812 c 4
 619.08203125 756.111328125 619.943359375 756.875 619.943359375 757.4375 c 4
 619.943359375 758.247070312 618.158203125 758.64453125 615.444335938 758.64453125 c 4
 610.887695312 758.64453125 603.71484375 757.524414062 597.971679688 755.352539062 c 4
 568.495117188 745.208984375 536.880859375 720.986328125 534.3359375 682.201171875 c 4
 530.209960938 619.357421875 527.120117188 542.020507812 527.120117188 485.231445312 c 4
 527.120117188 475.865234375 527.204101562 467.057617188 527.381835938 458.967773438 c 5
 535.274414062 457.546875 543.166992188 457.353515625 550.76171875 457.353515625 c 4
 553.618164062 457.353515625 556.434570312 457.381835938 559.19140625 457.381835938 c 4
 565.755859375 457.381835938 571.9921875 457.2265625 577.690429688 456.17578125 c 4
 591.7890625 454.03125 594.890625 450.490234375 594.890625 442.848632812 c 4
 594.890625 432.791992188 588.595703125 424.234375 587.428710938 423.928710938 c 4
 575.373046875 420.774414062 544.348632812 422.564453125 529.301757812 420.986328125 c 4
 528.112304688 419.703125 527.748046875 418.051757812 527.748046875 416.421875 c 4
 527.748046875 413.8359375 528.66796875 411.301757812 528.66796875 410.376953125 c 4
 528.66796875 410.186523438 528.6640625 409.96875 528.6640625 409.734375 c 4
 528.6640625 408.047851562 528.856445312 405.442382812 531.98046875 405.442382812 c 4
 537.9296875 404.46484375 546.306640625 404.079101562 555.71875 404.079101562 c 4
 576.03515625 404.079101562 601.178710938 405.870117188 617.174804688 407.369140625 c 4
 620.735351562 407.369140625 624.108398438 406.517578125 629.3828125 398.216796875 c 4
 631.608398438 394.713867188 632.735351562 391.571289062 632.735351562 388.580078125 c 4
 632.735351562 384.534179688 630.672851562 380.762695312 626.478515625 376.745117188 c 4
 602.297851562 371.256835938 557.235351562 371.755859375 530.668945312 371.54296875 c 4
 525.698242188 371.54296875 525.6171875 369.015625 525.6171875 364.28515625 c 4
 525.6171875 363.801757812 l 4
 525.6171875 362.39453125 525.610351562 360.803710938 525.481445312 359.037109375 c 4
 525.456054688 358.315429688 525.438476562 357.533203125 525.438476562 356.723632812 c 4
 525.438476562 352.720703125 525.87890625 348.038085938 528.197265625 346.665039062 c 4
 535.162109375 346.85546875 550.845703125 348.017578125 563.298828125 348.017578125 c 4
 568.647460938 348.017578125 573.399414062 347.803710938 576.609375 347.205078125 c 4
 578.12109375 345.951171875 578.873046875 343.966796875 578.873046875 341.32421875 c 4
 578.873046875 337.907226562 577.612304688 333.390625 575.106445312 327.926757812 c 4
 560.356445312 323.083984375 540.826171875 321.34765625 526.193359375 320.85546875 c 5
 526.193359375 320.85546875 525.209960938 289.810546875 525.209960938 246.837890625 c 4
 525.209960938 185.611328125 527.208007812 100.171875 536.899414062 45.8154296875 c 4
 539.142578125 33.2314453125 547.221679688 23.7841796875 554.166992188 16.1630859375 c 4
 560.026367188 10.6064453125 572.98046875 5.6337890625 583.749023438 5.6337890625 c 4
 593.090820312 5.6337890625 599.104492188 8.3427734375 602.166992188 14.416015625 c 4
 602.4921875 15.0625 602.62890625 15.767578125 602.62890625 16.4990234375 c 4
 602.62890625 18.45703125 601.641601562 20.5966796875 600.643554688 22.2587890625 c 4
 597.966796875 26.7158203125 596.38671875 29.8408203125 596.38671875 33.833984375 c 4
 596.38671875 34.0439453125 596.391601562 34.2578125 596.400390625 34.47265625 c 4
 596.715820312 42.1455078125 600.204101562 50.19921875 605.721679688 55.5380859375 c 4
 613.6875 63.2421875 625.166992188 69.9658203125 636.258789062 69.9658203125 c 4
 637.713867188 69.9658203125 639.163085938 69.849609375 640.596679688 69.6044921875 c 4
 676.97265625 63.3955078125 686.600585938 16.6572265625 723.717773438 -3.515625 c 4
 736.185546875 -10.29296875 761.38671875 -9.447265625 762.021484375 -11.5703125 c 4
 762.74609375 -13.49609375 763.106445312 -15.3173828125 763.106445312 -16.9765625 c 4
 763.106445312 -20.92578125 761.065429688 -23.951171875 757.029296875 -25.2626953125 c 4
 719.702148438 -24.6533203125 596.309570312 -24.30078125 462.520507812 -24.30078125 c 4
 300.849609375 -24.30078125 123.995117188 -24.8154296875 65.4794921875 -26.01953125 c 5
 67.373046875 -18.5703125 72.4169921875 -16.953125 79.423828125 -16.021484375 c 4
 151.1484375 -12.7998046875 185.52734375 59.7900390625 235.651367188 59.7900390625 c 4
 236.357421875 59.7900390625 237.06640625 59.775390625 237.779296875 59.74609375 c 4
 256.009765625 58.998046875 265.400390625 50.3984375 268.587890625 38.298828125 c 4
 268.8359375 37.35546875 268.953125 36.3349609375 268.953125 35.27734375 c 4
 268.953125 29.5263671875 265.4609375 22.6875 260.435546875 21.3173828125 c 4
 255.06640625 19.8544921875 248.317382812 14.6767578125 248.317382812 9.833984375 c 4
 248.317382812 8.8837890625 248.506835938 7.8857421875 248.91015625 6.828125 c 4
 251.005859375 3.0126953125 254.817382812 1.3388671875 259.552734375 1.3388671875 c 4
 276.822265625 1.3388671875 306.399414062 5.8662109375 310.065429688 27.69140625 c 4
 325.374023438 118.838867188 332.322265625 217.35546875 334.962890625 316.307617188 c 4
 334.951171875 319.875 333.216796875 322.728515625 330.716796875 322.728515625 c 4
 317.736328125 323.383789062 300.123046875 323.078125 294.501953125 330.248046875 c 4
 293.6640625 331.400390625 293.30078125 332.879882812 293.30078125 334.415039062 c 4
 293.30078125 336.514648438 293.982421875 338.719726562 295.064453125 340.33984375 c 4
 300.334960938 348.247070312 306.725585938 347.87109375 320.728515625 348.0703125 c 4
 332.345703125 348.0703125 334.041992188 354.06640625 334.041992188 363.28515625 c 6
 334.041992188 363.368164062 l 6
 334.038085938 367.65234375 332.741210938 369.663085938 329.674804688 369.663085938 c 4
 298.6640625 370.795898438 264.068359375 371.473632812 231.349609375 375.768554688 c 4
 230.127929688 377.467773438 229.555664062 379.696289062 229.555664062 381.908203125 c 4
 229.555664062 383.293945312 229.780273438 384.672851562 230.211914062 385.91015625 c 4
 231.892578125 390.733398438 236.479492188 393.525390625 241.013671875 396.78125 c 4
 251.461914062 402.305664062 264.60546875 403.536132812 278.602539062 403.536132812 c 4
 281.087890625 403.69921875 283.525390625 403.766601562 285.92578125 403.766601562 c 4
 298.302734375 403.766601562 309.688476562 401.9453125 321.5546875 401.9453125 c 4
 323.99609375 401.9453125 326.458984375 402.021484375 328.954101562 402.20703125 c 5
 330.155273438 404.041015625 330.682617188 406.43359375 330.682617188 408.755859375 c 4
 330.682617188 412.625976562 329.215820312 416.302734375 326.955078125 416.875976562 c 4
 313.265625 417.388671875 302.084960938 417.84765625 287.327148438 419.799804688 c 4
 279.76171875 422.98046875 274.290039062 426.810546875 272.215820312 433.341796875 c 4
 271.96484375 434.12890625 271.85546875 434.952148438 271.85546875 435.7890625 c 4
 271.85546875 438.080078125 272.682617188 440.471679688 273.740234375 442.465820312 c 4
 275.783203125 446.31640625 278.672851562 448.798828125 283.216796875 451.478515625 c 4
 294.672851562 455.018554688 303.954101562 455.822265625 314.0546875 455.822265625 c 4
 319.474609375 455.822265625 325.131835938 455.590820312 331.48828125 455.426757812 c 5
 331.48828125 455.426757812 330.021484375 501.817382812 330.021484375 529.232421875 c 4
 330.021484375 588.518554688 325.697265625 659.130859375 321.091796875 685.287109375 c 4
 314.590820312 722.2109375 271.827148438 759.70703125 230.78515625 761.549804688 c 4
 230.725585938 761.549804688 l 4
 226.103515625 761.549804688 224.567382812 759.499023438 224.567382812 758.19140625 c 4
 224.567382812 757.268554688 225.452148438 755.971679688 226.934570312 753.709960938 c 4
 228.571289062 751.17578125 230.301757812 746.424804688 230.301757812 742.467773438 c 4
 230.301757812 742.346679688 230.30078125 742.2265625 230.297851562 742.106445312 c 4
 230.025390625 732.208007812 227.190429688 721.353515625 220.484375 714.06640625 c 4
 211.620117188 704.43359375 199.249023438 695.379882812 185.448242188 695.379882812 c 4
 183.579101562 695.379882812 181.685546875 695.544921875 179.76953125 695.8984375 c 4
 94.4287109375 711.62109375 98.169921875 777.37890625 27.78125 777.37890625 c 4
 27.4287109375 777.37890625 27.072265625 777.376953125 26.7158203125 777.372070312 c 4
 25.625 777.38671875 25 779.748046875 25 782.077148438 c 4
 25 783.318359375 25.1787109375 784.549804688 25.5576171875 785.411132812 c 4
 26.740234375 788.1015625 27.314453125 789.274414062 32.83984375 790.377929688 c 5
EndSplineSet
EndChar

StartChar: K
Encoding: 75 75 31
Width: 752
VWidth: 0
Flags: HMW
LayerCount: 2
Fore
SplineSet
26.33203125 795.586914062 m 5
 166.163085938 793.9140625 295.203125 792.504882812 424.447265625 792.504882812 c 4
 522.731445312 792.504882812 621.133789062 793.319335938 724.48828125 795.453125 c 4
 726.95703125 793.749023438 727.909179688 792.375 727.909179688 791.217773438 c 4
 727.909179688 787.857421875 720.6875 785.174804688 717.614257812 783.864257812 c 4
 690.458007812 772.28515625 663.462890625 755.997070312 647.061523438 739.748046875 c 4
 565.672851562 652.768554688 479.22265625 531.856445312 377.602539062 442.088867188 c 5
 378.615234375 441.07421875 380.295898438 440.848632812 382.453125 440.848632812 c 4
 384.181640625 440.848632812 386.216796875 440.993164062 388.461914062 440.993164062 c 4
 404.162109375 442.54296875 421.745117188 444.65234375 436.163085938 444.693359375 c 4
 554.956054688 444.693359375 654.114257812 366.98828125 654.114257812 274.158203125 c 4
 654.114257812 221.359375 620.70703125 165.661132812 543.248046875 112.595703125 c 4
 527.274414062 101.651367188 514.42578125 68.5478515625 514.42578125 41.2548828125 c 4
 514.42578125 32.2265625 515.995117188 23.6259765625 519.643554688 16.2607421875 c 4
 523.46875 8.5400390625 535.607421875 6.55078125 543.346679688 5.9482421875 c 4
 543.892578125 5.9052734375 544.421875 5.884765625 544.934570312 5.884765625 c 4
 550.747070312 5.884765625 554.328125 8.5625 554.328125 12.5712890625 c 4
 554.328125 16.71484375 546.676757812 19.904296875 542.200195312 23.5283203125 c 4
 537.7265625 27.15234375 537.504882812 32.384765625 537.504882812 35.7734375 c 4
 537.504882812 42.0654296875 541.211914062 49.8994140625 544.662109375 53.9736328125 c 4
 552.340820312 63.0341796875 560.048828125 66.716796875 567.743164062 66.716796875 c 4
 599.587890625 66.716796875 632.49609375 8.015625 659.329101562 -2.4306640625 c 4
 690.951171875 -14.7421875 708.489257812 -11.818359375 709.5703125 -16.5244140625 c 4
 709.5703125 -18.416015625 702.271484375 -22.033203125 682.076171875 -22.033203125 c 4
 655.32421875 -21.9365234375 409.934570312 -21.267578125 207.021484375 -21.267578125 c 4
 145.158203125 -21.267578125 87.2421875 -21.3291015625 40.6748046875 -21.4892578125 c 5
 40.6748046875 -20.4013671875 41.294921875 -12.3798828125 42.83203125 -10.7919921875 c 4
 45.212890625 -10.7822265625 47.6533203125 -10.7783203125 50.142578125 -10.7783203125 c 4
 59.2255859375 -10.7783203125 68.9521484375 -10.83203125 78.734375 -10.83203125 c 4
 117.733398438 -10.83203125 157.641601562 -9.9765625 161.356445312 -1.4404296875 c 4
 176.9765625 123.420898438 183.627929688 246.197265625 183.627929688 369.580078125 c 4
 183.627929688 496.791992188 176.55859375 624.651367188 164.958007812 756.112304688 c 4
 164.958007812 763.841796875 156.557617188 769.825195312 151.607421875 771.6796875 c 4
 150.234375 772.194335938 148.856445312 772.4765625 147.432617188 772.4765625 c 4
 140.548828125 772.4765625 132.600585938 765.903320312 119.12109375 747.3359375 c 4
 113.260742188 738.358398438 105.915039062 732.69140625 97.6015625 732.594726562 c 6
 97.404296875 732.591796875 l 6
 80.4541015625 732.591796875 69.7099609375 751.680664062 58.953125 764.356445312 c 4
 36.21484375 791.153320312 25 784.237304688 25 792.541992188 c 4
 25 793.877929688 25.4130859375 794.930664062 26.3330078125 795.586914062 c 6
 26.33203125 795.586914062 l 5
373.155273438 776.060546875 m 5
 356.610351562 672.404296875 346.749023438 568.025390625 346.080078125 450.8203125 c 4
 346.235351562 450.723632812 346.423828125 450.67578125 346.647460938 450.67578125 c 4
 348.564453125 450.67578125 352.997070312 454.177734375 359.634765625 460.951171875 c 4
 374.638671875 476.307617188 390.358398438 495.31640625 403.927734375 513.900390625 c 4
 436.254882812 558.170898438 472.364257812 630.788085938 472.364257812 688.391601562 c 4
 472.364257812 736.590820312 447.083984375 774.279296875 373.155273438 776.060546875 c 5
422.302734375 412.762695312 m 6
 395.944335938 412.458007812 362.559570312 404.899414062 352.181640625 402.041015625 c 4
 340.349609375 401.540039062 342.954101562 383.436523438 342.28125 373.338867188 c 4
 341.15234375 339.173828125 340.577148438 305.211914062 340.577148438 271.255859375 c 4
 340.577148438 180.727539062 344.658203125 90.2353515625 353.19140625 -3.982421875 c 5
 389.16796875 -5.9091796875 428.911132812 -6.52734375 466.506835938 -6.52734375 c 4
 479.096679688 -6.52734375 491.4453125 -6.45703125 503.331054688 -6.34375 c 5
 484.848632812 0.548828125 476.60546875 26.009765625 476.60546875 51.7099609375 c 4
 476.60546875 56.41796875 476.8828125 61.1328125 477.424804688 65.744140625 c 4
 481.328125 98.966796875 506.193359375 198.166992188 506.193359375 273.887695312 c 4
 506.193359375 314.486328125 497.663085938 353.600585938 471.458984375 388.41015625 c 4
 460.60546875 402.830078125 445.946289062 412.76953125 423.209960938 412.76953125 c 4
 422.908203125 412.76953125 422.606445312 412.767578125 422.302734375 412.762695312 c 6
EndSplineSet
EndChar

StartChar: N
Encoding: 78 78 32
Width: 859
VWidth: 0
Flags: HMW
LayerCount: 2
Fore
SplineSet
436.557617188 806.697265625 m 5
 437.06640625 806.698242188 l 6
 482.409179688 806.698242188 537.272460938 793.280273438 561.021484375 778.833984375 c 4
 730.189453125 674.27734375 792.3984375 578.1484375 792.3984375 486.786132812 c 4
 792.3984375 367.127929688 658.025390625 196.8125 572.013671875 68.6162109375 c 4
 568.041015625 62.69921875 566.421875 56.65625 566.421875 50.62109375 c 4
 566.421875 36.85546875 574.802734375 23.1318359375 582.860351562 11.0224609375 c 4
 583.764648438 10.2021484375 584.546875 9.79296875 585.203125 9.79296875 c 4
 586.887695312 9.79296875 587.747070312 12.4677734375 587.747070312 17.765625 c 4
 587.747070312 17.8876953125 587.747070312 18.0126953125 587.74609375 18.138671875 c 6
 587.74609375 18.2060546875 l 6
 587.74609375 42.7666015625 606.208007812 67.5068359375 642.126953125 67.5068359375 c 4
 644.815429688 67.5068359375 647.603515625 67.365234375 650.48828125 67.07421875 c 4
 666.200195312 65.5 680.51171875 41.6015625 684.052734375 33.6025390625 c 4
 687.590820312 25.60546875 686.209960938 23.591796875 690.215820312 23.197265625 c 4
 690.34375 23.185546875 690.469726562 23.1796875 690.598632812 23.1796875 c 4
 693.991210938 23.1796875 697.543945312 27.4931640625 697.543945312 30.94140625 c 4
 697.543945312 31.0712890625 697.5390625 31.2001953125 697.530273438 31.3291015625 c 4
 697.51171875 31.55859375 697.502929688 31.7919921875 697.502929688 32.0322265625 c 4
 697.502929688 41.5654296875 712.118164062 58.0498046875 722.674804688 58.0498046875 c 4
 727.092773438 58.0498046875 730.797851562 55.150390625 732.418945312 47.62109375 c 4
 740.436523438 10.396484375 760.04296875 2.3681640625 783.720703125 -7.1123046875 c 4
 789.509765625 -9.4443359375 810.384765625 -11.23828125 829.525390625 -11.498046875 c 4
 830.611328125 -11.0869140625 831.567382812 -10.8896484375 832.358398438 -10.8896484375 c 4
 833.934570312 -10.8896484375 834.85546875 -11.68359375 834.85546875 -13.158203125 c 4
 834.85546875 -13.357421875 834.838867188 -13.5693359375 834.8046875 -13.79296875 c 4
 834.513671875 -15.69140625 833.639648438 -18.109375 828.186523438 -18.369140625 c 4
 691.13671875 -17.560546875 565.740234375 -17.0830078125 443.264648438 -17.0830078125 c 4
 315.090820312 -17.0830078125 190.11328125 -17.4189453125 58.32421875 -18.1953125 c 5
 58.751953125 -16.5791015625 58.2119140625 -10.09375 60.31640625 -8.0322265625 c 4
 95.0439453125 25.904296875 113.196289062 238.918945312 113.196289062 429.8046875 c 4
 113.196289062 529.80859375 108.30078125 623.739257812 98.2880859375 682.673828125 c 4
 97.361328125 683.96484375 96.3505859375 684.461914062 95.021484375 684.461914062 c 4
 92.4833984375 684.461914062 88.78515625 682.655273438 82.3076171875 681.0859375 c 4
 72.4345703125 678.694335938 40.5595703125 666.703125 40.5595703125 666.703125 c 6
 36.5576171875 665.357421875 33.1689453125 664.723632812 30.5849609375 664.723632812 c 4
 27.0302734375 664.723632812 25 665.927734375 25 668.123046875 c 4
 25 671.595703125 30.1083984375 677.555664062 42.34375 685.15625 c 4
 52.3134765625 691.341796875 70.6064453125 697.099609375 99.12890625 703.985351562 c 4
 145.795898438 711.41015625 200.626953125 727.251953125 244.521484375 743.967773438 c 5
 316.654296875 783.55078125 376.833984375 805.07421875 432.26171875 806.634765625 c 4
 433.684570312 806.672851562 435.1171875 806.6953125 436.556640625 806.698242188 c 6
 436.557617188 806.697265625 l 5
433.499023438 774.931640625 m 6
 429.63671875 775.14453125 425.56640625 775.26953125 421.331054688 775.26953125 c 4
 381.697265625 775.26953125 304.879882812 744.890625 292.815429688 686.6015625 c 4
 269.779296875 576.09765625 261.966796875 436.627929688 261.966796875 305.509765625 c 4
 261.966796875 189.150390625 267.969726562 79.3681640625 274.923828125 2.2412109375 c 5
 339.549804688 0.8408203125 404.172851562 -0.4931640625 466.4765625 -0.4931640625 c 4
 486.3203125 -0.4931640625 505.928710938 -0.376953125 525.227539062 -0.107421875 c 5
 556.358398438 178.713867188 571.25 314.064453125 571.25 470.779296875 c 4
 571.25 535.212890625 568.798828125 603.258789062 563.987304688 679.419921875 c 5
 551.453125 749.604492188 484.16796875 772.1953125 433.497070312 774.9296875 c 5
 433.499023438 774.931640625 l 6
EndSplineSet
EndChar

StartChar: O
Encoding: 79 79 33
Width: 816
VWidth: 0
Flags: HMW
LayerCount: 2
Fore
SplineSet
256.026367188 748.875976562 m 5
 299.887695312 776.70703125 368.125976562 795.5703125 435.0703125 795.5703125 c 4
 494.7890625 795.5703125 553.490234375 783.33203125 593.401367188 753.201171875 c 5
 728.291015625 665.583984375 791.740234375 538.837890625 791.740234375 410.809570312 c 4
 791.740234375 261.353515625 716.345703125 110.194335938 576.346679688 14.4326171875 c 5
 544.0546875 -18.5888671875 492.686523438 -33.2822265625 439.138671875 -33.2822265625 c 4
 364.483398438 -33.2822265625 285.657226562 -9.2041015625 246.999023438 30.7763671875 c 5
 113.884765625 92.017578125 25 243.397460938 25 394.8515625 c 4
 25 535.403320312 91.9140625 676.017578125 256.026367188 748.875976562 c 5
547.5703125 712.318359375 m 5
 521.90234375 747.5078125 467.150390625 767.068359375 409.07421875 767.068359375 c 4
 358.918945312 767.068359375 306.239257812 749.982421875 268.251953125 712.7890625 c 5
 247.455078125 615.110351562 237.989257812 496.830078125 237.989257812 377.293945312 c 4
 237.989257812 262.288085938 251.931640625 146.115234375 277.163085938 46.173828125 c 5
 312.078125 8.59375 376.87109375 -5.5654296875 435.751953125 -5.5654296875 c 4
 492.10546875 -5.5654296875 542.9609375 9.962890625 555.9921875 31.1484375 c 5
 568.52734375 105.9765625 580.97265625 285.911132812 580.97265625 448.983398438 c 4
 580.97265625 555.349609375 571.822265625 654.510742188 547.5703125 712.318359375 c 5
EndSplineSet
EndChar

StartChar: P
Encoding: 80 80 34
Width: 709
VWidth: 0
Flags: HMW
LayerCount: 2
Fore
SplineSet
396.2421875 801.391601562 m 5
 396.436523438 801.391601562 l 6
 439.581054688 801.391601562 482.3125 789.3125 529.137695312 763.404296875 c 4
 637.162109375 703.6328125 684.482421875 607.198242188 684.482421875 511.778320312 c 4
 684.482421875 402.194335938 620.4765625 291.126953125 507.2421875 225.934570312 c 4
 472.030273438 201.306640625 439.428710938 191.614257812 410.198242188 191.614257812 c 4
 361.401367188 191.614257812 322.000976562 218.627929688 295.53515625 248.276367188 c 5
 295.290039062 231.536132812 295.091796875 209.491210938 295.091796875 184.885742188 c 4
 295.091796875 125.87890625 296.228515625 52.1357421875 300.607421875 1.4638671875 c 5
 331.188476562 -6.7646484375 359.727539062 -8.501953125 388.162109375 -8.501953125 c 4
 406.379882812 -8.501953125 424.5546875 -7.7890625 443.194335938 -7.611328125 c 4
 444.663085938 -9.2314453125 445.194335938 -11.5205078125 445.194335938 -13.8955078125 c 4
 445.194335938 -15.84765625 444.8359375 -17.857421875 444.345703125 -19.6015625 c 4
 369.284179688 -19.1611328125 284.564453125 -18.896484375 205.794921875 -18.896484375 c 4
 138.5 -18.896484375 75.548828125 -19.08984375 26.67578125 -19.53125 c 4
 25.708984375 -18.26953125 25 -15.849609375 25 -13.703125 c 4
 25 -12.2900390625 25.3076171875 -10.9951171875 26.05078125 -10.2255859375 c 4
 59.7578125 -9.6533203125 120.3125 -10.5283203125 126.091796875 3.44921875 c 4
 152.321289062 66.869140625 154.783203125 151.663085938 154.783203125 240.692382812 c 4
 154.783203125 398.650390625 130.629882812 564.188476562 122.243164062 629.103515625 c 5
 114.791992188 651.249023438 104.383789062 662.921875 80.796875 662.921875 c 4
 76.4189453125 662.921875 71.5849609375 662.51953125 66.232421875 661.70703125 c 4
 61.2080078125 660.9453125 54.1650390625 660.260742188 44.21484375 655.600585938 c 5
 44.21484375 655.600585938 39.7705078125 664.740234375 39.7705078125 665.943359375 c 4
 39.7705078125 666.024414062 39.7900390625 666.068359375 39.8330078125 666.071289062 c 4
 151.130859375 703.873046875 206.782226562 726.072265625 263.6953125 759.411132812 c 4
 313.663085938 788.68359375 355.645507812 801.350585938 396.2421875 801.390625 c 5
 396.2421875 801.391601562 l 5
387.407226562 781.243164062 m 4
 349.719726562 780.385742188 289.46875 765.317382812 288.454101562 724.12890625 c 4
 288.203125 696.49609375 288.072265625 665.178710938 288.072265625 632.336914062 c 4
 288.072265625 488.61328125 290.568359375 315.708007812 296.35546875 294.719726562 c 4
 311.9765625 238.053710938 362.125 215.448242188 408.375976562 215.448242188 c 4
 447.403320312 215.448242188 483.65625 231.544921875 494.05078125 256.852539062 c 4
 503.7578125 280.486328125 509.966796875 374.912109375 509.966796875 479.49609375 c 4
 509.966796875 569.629882812 505.35546875 667.306640625 494.399414062 733.715820312 c 4
 488.206054688 769.659179688 430.228515625 781.291015625 391.612304688 781.291015625 c 4
 390.182617188 781.291015625 388.780273438 781.275390625 387.407226562 781.243164062 c 4
EndSplineSet
EndChar

StartChar: M
Encoding: 77 77 35
Width: 955
VWidth: 0
Flags: HMW
LayerCount: 2
Fore
SplineSet
25.3603515625 -18.767578125 m 6
 25.1083984375 -18.2958984375 25 -17.7470703125 25 -17.1650390625 c 4
 25 -17.1591796875 25 -17.1533203125 25 -17.1484375 c 4
 25.0087890625 -14.798828125 26.7802734375 -11.9033203125 28.1767578125 -11.19140625 c 4
 89.91015625 1.5107421875 137.973632812 -0.13671875 162.130859375 35.23828125 c 4
 177.469726562 55.05078125 192.9296875 63.2939453125 206.072265625 63.2939453125 c 4
 206.248046875 63.2939453125 206.422851562 63.2919921875 206.598632812 63.2890625 c 4
 234.936523438 62.8125 242.264648438 42.0517578125 242.264648438 20.17578125 c 4
 242.264648438 13.3408203125 241.549804688 6.3984375 240.538085938 -0.0703125 c 5
 261.947265625 -0.1474609375 l 6
 263.688476562 1.58203125 264.421875 5.31640625 264.530273438 6.265625 c 4
 265.743164062 17.0068359375 266.380859375 26.517578125 266.4140625 35.42578125 c 4
 266.415039062 35.533203125 266.415039062 35.640625 266.415039062 35.748046875 c 4
 266.415039062 51.0361328125 262.481445312 64.55859375 258.782226562 79.4873046875 c 4
 222.616210938 225.3984375 56.080078125 331.517578125 56.080078125 485.915039062 c 4
 56.080078125 491.24609375 56.2783203125 496.635742188 56.6875 502.0859375 c 4
 68.875 664.342773438 206.23828125 806.315429688 362.110351562 809.340820312 c 4
 397.236328125 809.212890625 432.455078125 796.006835938 465.234375 760.54296875 c 5
 465.234375 760.54296875 466.825195312 758.348632812 468.875976562 758.341796875 c 4
 468.884765625 758.341796875 l 4
 469.978515625 758.341796875 472.1328125 759.12890625 473.038085938 760.018554688 c 4
 479.13671875 766.004882812 481.203125 769.09375 487.368164062 773.649414062 c 4
 516.915039062 795.471679688 563.744140625 805.802734375 611.466796875 805.802734375 c 4
 611.86328125 805.802734375 612.260742188 805.801757812 612.658203125 805.80078125 c 4
 757.125 804.282226562 863.6796875 671.48046875 866.103515625 539.12890625 c 4
 865.47265625 364.737304688 695.078125 254.553710938 637.97265625 98.123046875 c 4
 631.146484375 79.42578125 624.247070312 60.521484375 624.174804688 40.0537109375 c 4
 626.1484375 22.509765625 626.45703125 -0.3896484375 639.059570312 -1.51171875 c 6
 642.959960938 -1.525390625 l 6
 643.172851562 -1.2607421875 643.255859375 -0.90234375 643.255859375 -0.5068359375 c 4
 643.255859375 0.6884765625 642.498046875 2.216796875 642.302734375 2.4921875 c 4
 633.381835938 15.0556640625 630.630859375 21.640625 630.630859375 28.4013671875 c 4
 630.630859375 28.4931640625 l 4
 630.641601562 31.6064453125 631.232421875 34.759765625 632.068359375 38.5595703125 c 4
 636.819335938 60.158203125 660.896484375 73.8720703125 681.104492188 73.8720703125 c 4
 681.432617188 73.8720703125 681.759765625 73.869140625 682.0859375 73.8623046875 c 4
 699.653320312 73.4697265625 713.33984375 54.3486328125 723.758789062 41.572265625 c 4
 770.984375 -16.3388671875 856.549804688 -2.296875 925.721679688 -6.8515625 c 4
 928.310546875 -7.1611328125 930.333984375 -14.505859375 930.333984375 -18.9345703125 c 4
 930.333984375 -18.9833984375 l 4
 930.331054688 -19.90234375 930.23828125 -20.6923828125 930.046875 -21.265625 c 4
 896.571289062 -20.7783203125 746.361328125 -19.6279296875 573.543945312 -19.0029296875 c 4
 503.184570312 -18.748046875 429.077148438 -18.580078125 357.57421875 -18.580078125 c 4
 234.28515625 -18.580078125 118.740234375 -19.0771484375 43.5078125 -20.4833984375 c 4
 42.5302734375 -20.501953125 38.1806640625 -20.8681640625 34.2001953125 -20.8681640625 c 4
 34.12109375 -20.8681640625 34.04296875 -20.8681640625 33.96484375 -20.8681640625 c 4
 32.9140625 -20.9443359375 31.849609375 -21.0205078125 30.8369140625 -21.0205078125 c 4
 30.80859375 -21.0205078125 30.7822265625 -21.0205078125 30.7548828125 -21.0205078125 c 4
 28.3916015625 -21.01171875 26.3193359375 -20.580078125 25.3583984375 -18.767578125 c 6
 25.3603515625 -18.767578125 l 6
595.189453125 -1.353515625 m 5
 591.400390625 15.462890625 589.841796875 33.9521484375 589.841796875 52.2734375 c 4
 589.841796875 52.666015625 589.842773438 53.0576171875 589.84375 53.4501953125 c 4
 589.944335938 80.9775390625 593.37109375 109.033203125 597.374023438 134.306640625 c 4
 629.344726562 306.303710938 658.791015625 469.9375 659.37109375 630.415039062 c 4
 659.375976562 631.7265625 659.37890625 633.038085938 659.37890625 634.348632812 c 4
 659.37890625 667.098632812 657.885742188 699.71875 654.56640625 732.25390625 c 5
 639.61328125 755.758789062 611.540039062 768.073242188 582.997070312 768.176757812 c 4
 582.752929688 768.176757812 l 4
 556.525390625 768.176757812 515.243164062 753.002929688 511.129882812 726.013671875 c 4
 498.584960938 643.715820312 498.915039062 578.58984375 496.577148438 502.422851562 c 4
 499.452148438 490.555664062 506.579101562 486.840820312 515.362304688 486.80859375 c 4
 515.478515625 486.80859375 l 4
 529.89453125 486.80859375 548.727539062 496.646484375 560.55078125 496.646484375 c 4
 560.62890625 496.646484375 l 4
 562.791015625 496.638671875 564.71484375 496.298828125 566.333007812 495.5078125 c 4
 577.462890625 490.05859375 581.555664062 483.918945312 581.555664062 478.017578125 c 4
 581.555664062 477.971679688 l 4
 581.529296875 470.705078125 575.30859375 463.798828125 568.39453125 458.982421875 c 4
 564.319335938 456.854492188 560.120117188 456.09375 555.774414062 456.09375 c 4
 555.646484375 456.09375 l 4
 544.796875 456.133789062 533.036132812 460.87890625 520.02734375 460.926757812 c 4
 519.829101562 460.926757812 l 4
 512.6015625 460.926757812 504.989257812 459.462890625 496.93359375 454.930664062 c 5
 497.381835938 435.844726562 l 5
 509.2265625 430.966796875 518.3125 429.272460938 525.751953125 429.245117188 c 4
 525.932617188 429.245117188 l 4
 542.143554688 429.245117188 550.526367188 437.162109375 562.706054688 437.162109375 c 4
 562.807617188 437.162109375 l 4
 568.922851562 437.140625 575.999023438 435.118164062 585.500976562 429.103515625 c 4
 595.65625 422.08203125 599.711914062 415.693359375 599.711914062 410.296875 c 4
 599.711914062 410.2578125 l 4
 599.672851562 399.541015625 583.627929688 392.750976562 567.612304688 392.716796875 c 4
 550.217773438 394.59765625 535.91796875 409.088867188 518.534179688 409.15234375 c 4
 518.419921875 409.15234375 l 4
 511.912109375 409.15234375 504.970703125 407.125 497.2734375 401.65625 c 4
 496.723632812 400.580078125 496.534179688 397.413085938 496.520507812 393.6875 c 4
 496.51953125 393.543945312 496.51953125 393.400390625 496.51953125 393.255859375 c 4
 496.51953125 386.373046875 497.083007812 377.818359375 497.083007812 376.928710938 c 4
 497.083007812 376.919921875 l 4
 501.116210938 372.327148438 505.963867188 370.779296875 511.131835938 370.759765625 c 4
 511.228515625 370.759765625 l 4
 521.578125 370.759765625 533.203125 376.840820312 542.142578125 376.840820312 c 4
 542.213867188 376.840820312 l 4
 544.131835938 376.834960938 545.926757812 376.544921875 547.556640625 375.853515625 c 4
 555.306640625 372.563476562 560.25 365.985351562 560.25 359.24609375 c 4
 560.25 359.1953125 l 4
 560.227539062 353.046875 556.0859375 346.771484375 546.205078125 342.747070312 c 4
 544.510742188 342.057617188 542.479492188 341.780273438 540.221679688 341.780273438 c 4
 540.118164062 341.780273438 l 4
 531.205078125 341.813476562 518.801757812 346.084960938 509.469726562 346.119140625 c 4
 509.360351562 346.119140625 l 4
 501.875976562 346.119140625 496.393554688 343.360351562 496.323242188 333.43359375 c 4
 495.666015625 316.010742188 495.25390625 295.6796875 495.25390625 273.713867188 c 4
 495.25390625 178.05078125 503.077148438 51.375 532.544921875 -1.1259765625 c 5
 595.189453125 -1.353515625 l 5
381.76171875 7.8125 m 4
 418.990234375 105.66015625 413.5546875 251.026367188 414.349609375 343.18359375 c 5
 408.224609375 348.813476562 402.122070312 350.658203125 396.165039062 350.6796875 c 4
 396.059570312 350.6796875 l 4
 385.079101562 350.6796875 374.592773438 344.52734375 365.3671875 344.52734375 c 4
 365.291015625 344.52734375 l 4
 361.28125 344.541015625 357.508789062 345.725585938 354.0390625 349.092773438 c 4
 350.092773438 352.923828125 347.258789062 359.1875 347.258789062 365.393554688 c 4
 347.258789062 365.467773438 l 4
 347.272460938 369.251953125 348.341796875 373.009765625 350.852539062 376.180664062 c 4
 356.16015625 382.877929688 361.56640625 385.099609375 367.17578125 385.099609375 c 4
 367.25390625 385.099609375 l 4
 378.276367188 385.060546875 390.091796875 376.486328125 403.502929688 376.4375 c 4
 403.615234375 376.4375 l 4
 407.81640625 376.4375 412.174804688 377.27734375 416.713867188 379.48046875 c 5
 416.713867188 379.48046875 417.514648438 386.495117188 417.538085938 392.78125 c 4
 417.538085938 392.868164062 417.538085938 392.956054688 417.538085938 393.04296875 c 4
 417.538085938 396.030273438 417.356445312 398.828125 416.821289062 400.594726562 c 4
 405.166015625 407.451171875 395.620117188 409.909179688 387.161132812 409.939453125 c 4
 387 409.939453125 l 4
 366.278320312 409.939453125 352.051757812 395.39453125 329.178710938 395.39453125 c 4
 328.984375 395.39453125 l 4
 327.35546875 395.399414062 325.684570312 395.478515625 323.962890625 395.642578125 c 4
 307.75390625 397.186523438 302.017578125 406.969726562 302.017578125 417.250976562 c 4
 302.017578125 417.348632812 l 4
 302.055664062 427.551757812 307.721679688 438.224609375 314.397460938 441.809570312 c 4
 319.482421875 444.541992188 324.669921875 445.611328125 329.983398438 445.611328125 c 4
 330.125 445.611328125 l 4
 349.052734375 445.54296875 369.581054688 431.998046875 392.837890625 431.913085938 c 4
 393.057617188 431.913085938 l 4
 400.3828125 431.913085938 407.977539062 433.254882812 415.87890625 436.776367188 c 4
 416.9765625 438.59375 417.518554688 442.200195312 417.529296875 445.5859375 c 4
 417.529296875 445.706054688 l 4
 417.529296875 449.48046875 416.87109375 452.94921875 415.596679688 453.310546875 c 4
 408.669921875 460.020507812 402.026367188 462.248046875 395.66015625 462.270507812 c 4
 395.559570312 462.270507812 l 4
 383.3203125 462.270507812 372.103515625 454.163085938 361.876953125 454.163085938 c 4
 361.807617188 454.163085938 l 4
 360.12109375 454.168945312 358.461914062 454.395507812 356.829101562 454.91796875 c 4
 347.905273438 457.771484375 342.115234375 464.963867188 342.115234375 472.650390625 c 4
 342.115234375 472.708007812 l 4
 342.135742188 478.837890625 345.842773438 485.275390625 354.579101562 490.071289062 c 4
 357.79296875 491.834960938 360.592773438 492.54296875 363.133789062 492.54296875 c 4
 363.1796875 492.54296875 l 4
 373.538085938 492.504882812 379.587890625 480.677734375 391.873046875 480.633789062 c 4
 391.94140625 480.633789062 l 4
 398.55859375 480.633789062 406.985351562 484.052734375 418.858398438 494.5546875 c 5
 418.56640625 586.0859375 418.228515625 664.3046875 399.494140625 744.092773438 c 4
 395.346679688 761.76171875 358.44921875 771.310546875 341.96875 771.470703125 c 4
 341.758789062 771.470703125 l 4
 304.657226562 771.470703125 264.546875 735.848632812 264.470703125 715.111328125 c 4
 264.470703125 715.072265625 l 4
 264.470703125 714.63671875 264.48828125 714.208007812 264.5234375 713.784179688 c 4
 282.626953125 497.69921875 301.198242188 290.255859375 303.409179688 99.3359375 c 4
 303.420898438 98.2021484375 303.426757812 97.08203125 303.426757812 95.9775390625 c 4
 303.426757812 95.6669921875 303.426757812 95.3583984375 303.42578125 95.0498046875 c 4
 303.294921875 59.10546875 298.458007812 31.330078125 298.395507812 13.9267578125 c 4
 298.395507812 13.87109375 l 4
 298.395507812 10.9482421875 299.122070312 0.3095703125 301.756835938 -0.291015625 c 6
 370.51953125 -0.5400390625 l 6
 376.953125 1.17578125 379.595703125 4.3505859375 381.76171875 7.8125 c 4
EndSplineSet
EndChar

StartChar: Q
Encoding: 81 81 36
Width: 754
VWidth: 0
Flags: HMW
LayerCount: 2
Fore
SplineSet
406.358398438 816.846679688 m 4
 448.036132812 815.455078125 489.674804688 808.41015625 524.137695312 791.268554688 c 4
 674.640625 716.416992188 729.6015625 603.833984375 729.6015625 490.75 c 4
 729.6015625 486.818359375 729.53515625 482.88671875 729.405273438 478.955078125 c 4
 724.657226562 336.678710938 634.346679688 194.09765625 536.458984375 119.701171875 c 4
 497.668945312 91.14453125 453.854492188 82.5087890625 413.7578125 82.5087890625 c 4
 410.532226562 82.5087890625 407.329101562 82.5654296875 404.15625 82.671875 c 4
 394.041015625 83.0087890625 384.216796875 83.8544921875 374.830078125 85.017578125 c 4
 364.002929688 85.7666015625 352.896484375 88.2509765625 342.459960938 91.615234375 c 4
 337.27734375 91.208984375 333.362304688 88.626953125 329.719726562 80.7451171875 c 4
 327.80859375 76.6123046875 318.662109375 66.3349609375 312.038085938 66.3349609375 c 4
 311.96875 66.3349609375 311.8984375 66.3359375 311.829101562 66.337890625 c 4
 311.48046875 66.240234375 311.037109375 66.193359375 310.510742188 66.193359375 c 4
 310.405273438 66.193359375 310.296875 66.1953125 310.184570312 66.1982421875 c 4
 294.221679688 66.73046875 209.396484375 105.052734375 160.411132812 108.447265625 c 4
 159.928710938 108.462890625 159.458007812 108.470703125 158.998046875 108.470703125 c 4
 155.110351562 108.470703125 152.05078125 107.887695312 150.021484375 106.584960938 c 4
 148.921875 106.087890625 148.045898438 104.946289062 147.869140625 103.66796875 c 4
 147.600585938 92.3271484375 147.32421875 80.76953125 146.936523438 69.134765625 c 4
 145.80859375 35.3271484375 143.736328125 0.8330078125 138.15234375 -31.0791015625 c 4
 136.513671875 -40.44140625 135.696289062 -49.36328125 135.41015625 -57.9267578125 c 4
 135.326171875 -60.4287109375 135.287109375 -62.9013671875 135.287109375 -65.3447265625 c 4
 135.287109375 -91.013671875 139.491210938 -113.553710938 139.491210938 -135.421875 c 4
 139.491210938 -137.172851562 139.46484375 -138.91796875 139.40625 -140.662109375 c 4
 139.0234375 -152.143554688 137.286132812 -163.490234375 132.9609375 -175.065429688 c 6
 132.9609375 -175.068359375 l 5
 132.958984375 -175.068359375 l 5
 125.41015625 -195.26953125 78.6611328125 -202.334960938 56.6533203125 -203.619140625 c 4
 51.5654296875 -203.895507812 46.7177734375 -204.025390625 42.4140625 -204.025390625 c 4
 40.3056640625 -204.025390625 38.3271484375 -203.995117188 36.5146484375 -203.934570312 c 4
 29.5205078125 -203.701171875 25 -203.029296875 25 -202.025390625 c 4
 25 -202.022460938 25 -202.017578125 25 -202.013671875 c 4
 25.0126953125 -201.629882812 25.6884765625 -201.198242188 27.14453125 -200.723632812 c 4
 31.998046875 -199.759765625 50.6728515625 -201.44140625 50.8076171875 -197.397460938 c 4
 50.8076171875 -197.381835938 50.8076171875 -197.366210938 50.8076171875 -197.350585938 c 4
 50.8076171875 -196.767578125 50.427734375 -196.06640625 49.5732421875 -195.223632812 c 4
 39.5556640625 -185.34375 35.5439453125 -173.94921875 35.5439453125 -163.1875 c 4
 35.5439453125 -162.704101562 35.5517578125 -162.221679688 35.5673828125 -161.740234375 c 4
 36.2529296875 -141.184570312 51.4130859375 -123.310546875 66.93359375 -123.310546875 c 4
 67.1572265625 -123.310546875 67.3798828125 -123.313476562 67.603515625 -123.322265625 c 4
 73.4814453125 -123.518554688 79.384765625 -126.306640625 84.5419921875 -132.508789062 c 4
 94.8095703125 -144.857421875 94.8916015625 -166.494140625 99.6279296875 -166.651367188 c 4
 99.64453125 -166.65234375 99.6630859375 -166.65234375 99.6796875 -166.65234375 c 4
 99.81640625 -166.65234375 99.955078125 -166.635742188 100.099609375 -166.602539062 c 4
 103.83984375 -165.594726562 105.180664062 -164.477539062 105.2890625 -161.260742188 c 4
 105.293945312 -161.120117188 105.295898438 -160.97265625 105.295898438 -160.823242188 c 4
 105.295898438 -160.030273438 105.232421875 -159.119140625 105.12109375 -158.063476562 c 4
 104.91796875 -156.159179688 104.829101562 -153.314453125 104.829101562 -149.954101562 c 4
 104.829101562 -147.02734375 104.895507812 -143.708984375 105.008789062 -140.284179688 c 4
 105.430664062 -127.64453125 106.50390625 -113.543945312 107.29296875 -112.178710938 c 4
 59.802734375 -60.6953125 96.2314453125 -60.916015625 63.0224609375 -31.9453125 c 4
 49.232421875 -19.91015625 46.4755859375 0.6767578125 37.1552734375 13.9560546875 c 4
 31.4033203125 22.15234375 28.806640625 31.208984375 28.806640625 40.5966796875 c 4
 28.806640625 41.169921875 28.8173828125 41.744140625 28.8369140625 42.3203125 c 4
 29.90234375 74.2412109375 60.34375 109.55859375 98.3310546875 127.5078125 c 4
 118.94140625 137.243164062 139.033203125 141.12890625 158.471679688 141.12890625 c 4
 160.118164062 141.12890625 161.759765625 141.1015625 163.3984375 141.045898438 c 4
 215.638671875 139.302734375 262.15625 108.290039062 302.748046875 92.982421875 c 4
 303.77734375 92.662109375 304.73046875 92.501953125 305.604492188 92.47265625 c 4
 305.703125 92.46875 305.799804688 92.4677734375 305.895507812 92.4677734375 c 4
 310.51953125 92.4677734375 312.877929688 96.2392578125 313 99.8798828125 c 4
 313.002929688 99.978515625 313.004882812 100.076171875 313.004882812 100.173828125 c 4
 313.004882812 102.106445312 312.365234375 103.966796875 311.103515625 105.178710938 c 4
 310.409179688 105.56640625 309.706054688 105.956054688 309.041992188 106.340820312 c 4
 154.6015625 182.641601562 40.9228515625 307.64453125 40.9228515625 467.606445312 c 4
 40.9228515625 472.376953125 41.0234375 477.178710938 41.2275390625 482.012695312 c 4
 45.0390625 596.245117188 106.166015625 714.28515625 247.966796875 788.624023438 c 4
 286.844726562 809.005859375 338.600585938 817.125 389.83984375 817.125 c 4
 395.357421875 817.125 400.869140625 817.029296875 406.358398438 816.846679688 c 4
398.471679688 784.565429688 m 4
 394.793945312 784.688476562 391.12109375 784.75 387.456054688 784.75 c 4
 362.540039062 784.75 337.880859375 781.90234375 312.869140625 776.038085938 c 4
 294.126953125 771.645507812 275.747070312 756.076171875 270.241210938 740.758789062 c 4
 254.653320312 697.400390625 251.462890625 632.958007812 249.138671875 563.333007812 c 4
 248.73828125 551.296875 248.361328125 539.1015625 247.953125 526.836914062 c 4
 246.93359375 496.23828125 246.350585938 464.874023438 246.350585938 433.791015625 c 4
 246.350585938 325.790039062 253.379882812 221.170898438 273.471679688 163.768554688 c 4
 276.73046875 154.458007812 313.720703125 129.147460938 324.544921875 128.787109375 c 4
 329.481445312 130.44921875 331.922851562 136.83984375 338.2578125 136.83984375 c 4
 338.362304688 136.83984375 338.46875 136.837890625 338.575195312 136.834960938 c 4
 339.3828125 136.807617188 340.251953125 136.678710938 341.197265625 136.423828125 c 4
 349.40234375 134.217773438 350.578125 128.731445312 350.578125 123.658203125 c 4
 350.578125 123.1953125 350.568359375 122.735351562 350.551757812 122.28125 c 4
 350.514648438 121.125 350.439453125 120.0078125 350.405273438 118.979492188 c 4
 350.395507812 118.716796875 350.390625 118.462890625 350.388671875 118.213867188 c 4
 361.412109375 111.060546875 377.272460938 108.55078125 403.834960938 107.6640625 c 4
 405.786132812 107.598632812 407.744140625 107.565429688 409.70703125 107.565429688 c 4
 435.525390625 107.565429688 461.958984375 113.127929688 478.392578125 122.504882812 c 4
 484.955078125 126.249023438 489.921875 130.6015625 492.618164062 135.450195312 c 4
 520.889648438 217.162109375 535.8203125 323.512695312 539.413085938 431.224609375 c 4
 540.204101562 454.908203125 540.672851562 478.700195312 540.672851562 502.321289062 c 4
 540.672851562 574.041992188 536.353515625 644.190429688 523.6015625 704.958984375 c 4
 519.76171875 723.259765625 509.740234375 764.638671875 487.276367188 770.66015625 c 4
 456.584960938 778.888671875 427.295898438 783.604492188 398.471679688 784.565429688 c 4
EndSplineSet
EndChar

StartChar: R
Encoding: 82 82 37
Width: 832
VWidth: 0
Flags: HMW
LayerCount: 2
Fore
SplineSet
318.850585938 777.306640625 m 4
 325.4140625 777.306640625 331.80859375 777.856445312 338.008789062 779.301757812 c 4
 373.48828125 787.516601562 405.284179688 791.2578125 433.323242188 791.2578125 c 4
 472.444335938 791.2578125 504.258789062 784.352539062 528.557617188 772.428710938 c 4
 574.311523438 749.70703125 611.120117188 705.9609375 611.120117188 658.485351562 c 4
 611.120117188 611.125 575.616210938 559.251953125 476.818359375 522.283203125 c 4
 474.45703125 521.397460938 471.86328125 520.512695312 471.86328125 519.573242188 c 4
 471.86328125 518.709960938 474.109375 518.44921875 476.465820312 518.172851562 c 4
 582.3359375 507.037109375 664.622070312 427.96875 666.130859375 325.614257812 c 4
 666.130859375 292.865234375 655.91015625 263.901367188 641.99609375 237.345703125 c 4
 613.28125 182.787109375 569.002929688 117.720703125 569.002929688 69.0029296875 c 4
 569.002929688 43.8525390625 592.24609375 22.537109375 613.696289062 10.4140625 c 4
 624.704101562 4.2353515625 638.6484375 -0.369140625 651.795898438 -0.369140625 c 4
 658.754882812 -0.369140625 665.489257812 0.966796875 671.444335938 4.1044921875 c 4
 684.469726562 10.9013671875 695.158203125 26.3447265625 695.158203125 42.1171875 c 4
 695.158203125 43.716796875 695.041015625 45.3212890625 694.796875 46.9189453125 c 4
 691.314453125 70.767578125 672.169921875 78.3369140625 649.84375 79.3310546875 c 4
 647.297851562 79.3310546875 645.955078125 77.2421875 645.955078125 73.109375 c 4
 645.892578125 68.7333984375 639.623046875 67.0849609375 636.84765625 63.416015625 c 4
 632.620117188 58.890625 629.751953125 57.3515625 624.407226562 56.7431640625 c 5
 623.88671875 62.9423828125 619.534179688 65.90234375 614.934570312 65.90234375 c 4
 611.530273438 65.90234375 609.532226562 61.9892578125 605.784179688 61.041015625 c 4
 600.892578125 61.3798828125 596.658203125 65.64453125 595.633789062 69.2734375 c 4
 595.598632812 69.3916015625 595.58203125 69.5146484375 595.58203125 69.6416015625 c 4
 595.58203125 71.861328125 600.3046875 75.390625 600.3046875 78.349609375 c 4
 599.403320312 82.1806640625 597.000976562 82.6640625 594.528320312 82.6640625 c 4
 593.696289062 82.6640625 592.856445312 82.5986328125 592.063476562 82.5986328125 c 4
 590.3203125 82.5986328125 588.803710938 82.86328125 588.092773438 84.5478515625 c 4
 587.915039062 85.099609375 587.833007812 85.619140625 587.833007812 86.1123046875 c 4
 587.833007812 91.169921875 596.149414062 93.3681640625 597.765625 98.1962890625 c 4
 597.899414062 98.5986328125 598.215820312 99.130859375 598.215820312 99.537109375 c 4
 598.215820312 99.701171875 598.163085938 99.8447265625 598.024414062 99.9501953125 c 4
 596.55859375 101.075195312 591.466796875 101.278320312 591.466796875 103.1015625 c 4
 591.466796875 104.053710938 592.814453125 105.442382812 596.69921875 107.62109375 c 4
 597.806640625 108.244140625 597.047851562 110.10546875 598.110351562 111.151367188 c 4
 597.561523438 114.936523438 597.317382812 117.65234375 597.317382812 119.5625 c 4
 597.317382812 122.666015625 597.926757812 123.649414062 598.899414062 123.649414062 c 4
 600.602539062 123.649414062 603.40625 120.732421875 606.013671875 120.732421875 c 4
 606.705078125 120.732421875 607.3828125 120.942382812 608.021484375 121.475585938 c 4
 614.557617188 128.233398438 617.95703125 130.666015625 619.766601562 130.666015625 c 4
 624.396484375 130.666015625 618.751953125 115.197265625 628.21484375 114.772460938 c 5
 631.799804688 118.303710938 633.796875 119.53125 635.013671875 119.53125 c 4
 637.7578125 119.53125 636.576171875 113.439453125 640.625 113.221679688 c 4
 643.369140625 114.993164062 644.684570312 115.98828125 645.662109375 115.98828125 c 4
 647.029296875 115.98828125 647.741210938 114.090820312 650.736328125 109.720703125 c 4
 659.098632812 101.864257812 669.611328125 92.7470703125 678.125 92.7470703125 c 4
 680.018554688 92.7470703125 681.813476562 93.2109375 683.462890625 94.255859375 c 4
 683.936523438 94.255859375 684.309570312 94.412109375 684.51171875 94.76953125 c 4
 684.877929688 95.4326171875 685.0390625 96.78125 685.0390625 98.48828125 c 4
 685.0390625 103.6953125 683.465820312 112.239257812 681.645507812 114.786132812 c 4
 680.247070312 116.768554688 674.723632812 119.958007812 674.723632812 121.868164062 c 4
 660.427734375 124.6875 655.87109375 132.486328125 655.87109375 141.162109375 c 4
 655.87109375 143.495117188 656.185546875 145.889648438 656.71875 148.26953125 c 4
 657.455078125 151.522460938 658.470703125 155.71875 658.470703125 159.366210938 c 4
 658.470703125 162.716796875 657.58203125 165.602539062 654.758789062 166.862304688 c 4
 646.3125 170.637695312 643.509765625 174.638671875 643.509765625 178.940429688 c 4
 643.509765625 182.407226562 645.284179688 186.069335938 647.390625 189.966796875 c 4
 648.54296875 192.03515625 647.537109375 201.389648438 650.265625 204.111328125 c 4
 652.375976562 206.203125 655.423828125 206.754882812 658.1796875 206.754882812 c 4
 661.265625 206.754882812 663.986328125 206.098632812 664.623046875 206.098632812 c 4
 665.341796875 206.098632812 665.356445312 216.944335938 666.422851562 218.259765625 c 4
 666.489257812 218.33984375 666.571289062 218.376953125 666.670898438 218.376953125 c 4
 668.161132812 218.376953125 673.20703125 210.079101562 675.358398438 210.079101562 c 4
 675.67578125 210.079101562 675.9296875 210.263671875 676.099609375 210.6875 c 4
 678.375976562 216.373046875 680.043945312 218.345703125 681.359375 218.345703125 c 4
 684.1953125 218.345703125 685.416992188 209.447265625 687.53515625 208.391601562 c 4
 687.7265625 208.298828125 688.084960938 208.262695312 688.565429688 208.262695312 c 4
 690.248046875 208.262695312 693.4296875 208.751953125 696.192382812 208.751953125 c 4
 697.942382812 208.751953125 699.524414062 208.572265625 700.454101562 207.983398438 c 4
 705.530273438 204.728515625 707.146484375 202.181640625 707.146484375 199.963867188 c 4
 707.146484375 196.05859375 702.2421875 193.170898438 702.2421875 189.250976562 c 4
 702.2421875 188.787109375 702.313476562 188.310546875 702.47265625 187.815429688 c 4
 704.623046875 180.985351562 713.357421875 175.815429688 713.82421875 173.344726562 c 4
 720.91015625 170.985351562 723.15234375 168.11328125 723.15234375 165.13671875 c 4
 723.15234375 159.98046875 716.588867188 154.506835938 716.588867188 150.80078125 c 4
 716.588867188 142.084960938 714.594726562 136.575195312 710.418945312 132.077148438 c 4
 707.467773438 128.9140625 701.479492188 123.77734375 701.479492188 119.146484375 c 4
 701.479492188 116.4296875 702.064453125 113.88671875 703.305664062 112.0234375 c 4
 704.556640625 110.138671875 706.071289062 106.017578125 706.66796875 102.868164062 c 6
 707.763671875 97.142578125 l 5
 711.245117188 96.318359375 714.446289062 95.9091796875 717.349609375 95.9091796875 c 4
 727.268554688 95.9091796875 733.704101562 100.897460938 736.009765625 110.697265625 c 5
 743.17578125 121.745117188 749.62890625 123.80859375 754.362304688 123.80859375 c 4
 757.14453125 123.80859375 760.46875 119.515625 760.831054688 116.984375 c 4
 761.243164062 114.129882812 765.806640625 112.25390625 770.704101562 112.25390625 c 4
 770.77734375 112.25 770.849609375 112.248046875 770.922851562 112.248046875 c 4
 774.891601562 112.248046875 778.608398438 118.846679688 783.064453125 118.846679688 c 4
 783.2421875 118.846679688 783.419921875 118.836914062 783.599609375 118.817382812 c 4
 788.650390625 118.219726562 788.936523438 113.0390625 795.224609375 109.01171875 c 4
 801.4375 105.041015625 807.126953125 105.551757812 807.659179688 102.79296875 c 4
 804.637695312 96.9404296875 801.661132812 94.38671875 801.661132812 91.1689453125 c 4
 801.661132812 89.4951171875 802.484375 87.640625 804.556640625 85.044921875 c 5
 802.736328125 84.44921875 796.666992188 85.0234375 796.666992188 84.0810546875 c 4
 796.666992188 81.7978515625 793.573242188 80.3037109375 786.416015625 80.3037109375 c 4
 785.168945312 80.3037109375 783.799804688 80.3427734375 782.302734375 80.4248046875 c 4
 780.171875 80.1025390625 781.51953125 71.5556640625 780.434570312 68.29296875 c 4
 780.056640625 62.03125 780.711914062 56.7294921875 776.797851562 56.7294921875 c 4
 775.248046875 56.7294921875 772.990234375 57.529296875 769.6875 59.3857421875 c 4
 766.948242188 59.03515625 762.3359375 56.931640625 759.43359375 54.7060546875 c 4
 754.795898438 51.14453125 749.3671875 49.201171875 745.0078125 49.201171875 c 4
 742.515625 49.201171875 740.372070312 49.818359375 738.920898438 51.111328125 c 4
 735.698242188 56.4697265625 728.284179688 61.197265625 722.3671875 61.197265625 c 4
 718.313476562 61.197265625 714.965820312 58.927734375 714.177734375 53.0341796875 c 4
 710.25 23.6455078125 703.638671875 7.2216796875 678.58984375 -14.2431640625 c 5
 694.120117188 -16.4638671875 702.57421875 -17.021484375 714.5234375 -17.6015625 c 4
 715.8671875 -17.6015625 720.50390625 -19.318359375 720.50390625 -20.787109375 c 4
 720.50390625 -21.4931640625 719.465820312 -22.142578125 716.544921875 -22.5244140625 c 4
 562.979492188 -20.931640625 423.825195312 -20.3232421875 281.883789062 -20.3232421875 c 4
 204.458984375 -20.3232421875 126.203125 -20.9873046875 44.3271484375 -22.091796875 c 6
 44.240234375 -22.091796875 l 6
 37.802734375 -22.091796875 25 -18.912109375 25 -14.46875 c 4
 25 -11.7998046875 27.9248046875 -8.3203125 30.9326171875 -6.6845703125 c 4
 53.82421875 -3.015625 66.625 4.314453125 76.400390625 22.3623046875 c 4
 91.474609375 50.1875 112.993164062 51.697265625 121.86328125 52.373046875 c 4
 123.755859375 52.529296875 125.6015625 52.6123046875 127.403320312 52.6123046875 c 4
 137.99609375 52.6123046875 147.120117188 50.0625 155.841796875 43.59375 c 4
 161.530273438 38.4580078125 163.63671875 34.33984375 163.63671875 30.6904296875 c 4
 163.63671875 20.2255859375 146.708984375 13.59375 146.708984375 -2.0244140625 c 4
 146.708984375 -2.443359375 146.72265625 -2.869140625 146.752929688 -3.30078125 c 5
 147.658203125 -3.31640625 148.555664062 -3.3232421875 149.4453125 -3.3232421875 c 4
 176.701171875 -3.3232421875 196.077148438 6.3818359375 200.173828125 28.27734375 c 4
 212.352539062 113.748046875 219.412109375 230.41015625 219.412109375 349.805664062 c 4
 219.412109375 506.997070312 205.884765625 668.927734375 173.927734375 770.559570312 c 5
 169.241210938 770.2890625 165.526367188 770.241210938 160.900390625 770.1640625 c 4
 156.26171875 770.1640625 149.548828125 769.638671875 149.548828125 765.822265625 c 4
 149.548828125 765.73828125 149.552734375 765.654296875 149.55859375 765.568359375 c 4
 149.696289062 763.9375 149.762695312 762.330078125 149.762695312 760.749023438 c 4
 149.762695312 738.3671875 137.795898438 721.331054688 123.08203125 721.331054688 c 4
 114.034179688 721.331054688 103.958007812 727.61328125 94.958984375 742.8046875 c 4
 90.4638671875 750.401367188 79.84375 763.354492188 74.201171875 768.39453125 c 4
 61.64453125 779.592773438 46.5791015625 778.506835938 46.5791015625 782.303710938 c 4
 46.5791015625 782.352539062 46.5830078125 782.403320312 46.5869140625 782.453125 c 4
 46.623046875 782.784179688 46.6376953125 783.2421875 46.6376953125 783.764648438 c 4
 46.6376953125 785.4296875 46.4638671875 787.759765625 46.3095703125 788.803710938 c 4
 46.3095703125 789.1875 46.640625 789.283203125 46.896484375 789.373046875 c 4
 142.3359375 789.373046875 236.467773438 782.754882812 318.850585938 777.306640625 c 4
480.794921875 744.930664062 m 4
 465.512695312 758.499023438 431.838867188 768.022460938 401.725585938 768.022460938 c 4
 372.592773438 768.022460938 346.801757812 758.869140625 344.357421875 735.452148438 c 4
 343.631835938 712.911132812 343.309570312 691.916992188 343.309570312 671.837890625 c 4
 343.309570312 624.87890625 345.704101562 582.9296875 349.11328125 537.927734375 c 5
 352.684570312 538.1015625 356.5 538.171875 360.505859375 538.171875 c 4
 376.245117188 538.171875 394.9296875 537.490234375 413.33984375 537.490234375 c 4
 452.080078125 537.490234375 489.603515625 541.470703125 495.828125 566.211914062 c 4
 502.870117188 594.696289062 508.84375 632.869140625 508.84375 667.927734375 c 4
 508.84375 697.708007812 502.2890625 725.649414062 480.794921875 744.930664062 c 4
350.7109375 470.169921875 m 5
 353.234375 312.14453125 355.015625 137.525390625 385.495117188 0.4013671875 c 5
 403.94921875 0.857421875 421.986328125 0.9716796875 439.745117188 0.9716796875 c 4
 457.489257812 0.9716796875 474.956054688 1.1025390625 492.284179688 1.1025390625 c 4
 509.681640625 1.1025390625 526.939453125 1.21484375 544.197265625 1.6669921875 c 5
 515.311523438 76.3671875 518.014648438 238.75 507.98046875 371.461914062 c 5
 499.15625 437.896484375 511.014648438 475.3203125 420.580078125 475.3203125 c 4
 401.993164062 475.3203125 379.061523438 473.629882812 350.7109375 470.169921875 c 5
EndSplineSet
EndChar

StartChar: S
Encoding: 83 83 38
Width: 742
VWidth: 0
Flags: HMW
LayerCount: 2
Fore
SplineSet
644.171875 811.984375 m 4
 657.345703125 801.678710938 662.47265625 791.153320312 662.47265625 781.603515625 c 4
 662.47265625 761.295898438 639.286132812 745.397460938 621.000976562 745.397460938 c 4
 617.202148438 745.397460938 613.614257812 746.083007812 610.490234375 747.55859375 c 5
 589.016601562 735.375 601.014648438 643.60546875 586.677734375 616.985351562 c 5
 632.161132812 580.666015625 717.497070312 465.78515625 717.497070312 323.002929688 c 4
 717.497070312 321.291015625 717.484375 319.575195312 717.458984375 317.85546875 c 4
 712.124023438 169.69921875 612.989257812 61.1005859375 523.1796875 12.3984375 c 4
 492.354492188 -3.2470703125 464.3359375 -14.2998046875 438.658203125 -21.4365234375 c 4
 413.135742188 -28.529296875 389.92578125 -31.7490234375 368.575195312 -31.7490234375 c 4
 368.33203125 -31.7490234375 368.08984375 -31.7490234375 367.846679688 -31.748046875 c 4
 338.318359375 -31.646484375 312.344726562 -25.3779296875 288.711914062 -14.6865234375 c 4
 227.506835938 16.552734375 223.354492188 26.8173828125 180.103515625 50.25 c 4
 177.169921875 51.8388671875 174.0390625 52.5556640625 170.909179688 52.5556640625 c 4
 158.868164062 52.5556640625 146.859375 41.9521484375 146.309570312 29.6611328125 c 4
 146.38671875 7.2705078125 148.079101562 -18.7744140625 148.079101562 -45.7783203125 c 4
 148.079101562 -46.5 148.077148438 -47.220703125 148.07421875 -47.943359375 c 4
 147.984375 -73.9931640625 146.245117188 -100.86328125 139.901367188 -126.1484375 c 4
 129.922851562 -165.916015625 80.603515625 -189.692382812 52.3056640625 -197.865234375 c 5
 47.2998046875 -194.190429688 l 6
 48.80078125 -191.668945312 55.0185546875 -189.727539062 64.87890625 -184.881835938 c 4
 94.7314453125 -169.68359375 115.791015625 -158.661132812 120.725585938 -121.286132812 c 4
 124.359375 -93.763671875 125.965820312 -65.708984375 125.965820312 -37.873046875 c 4
 125.965820312 29.234375 116.633789062 95.0712890625 103.899414062 149.126953125 c 5
 101.172851562 153.759765625 98.654296875 155.462890625 96.4267578125 155.462890625 c 4
 90.306640625 155.462890625 86.3720703125 142.619140625 86.287109375 142.35546875 c 4
 81.0732421875 125.475585938 68.0927734375 118.071289062 55.4111328125 118.071289062 c 4
 40.53125 118.071289062 26.0625 128.265625 25.037109375 145.309570312 c 4
 25.0126953125 145.717773438 25 146.143554688 25 146.583984375 c 4
 25 157.28125 32.1982421875 176.965820312 44.57421875 179.919921875 c 4
 47.1513671875 180.534179688 49.8564453125 180.788085938 52.61328125 180.788085938 c 4
 65.8037109375 180.788085938 80.197265625 174.969726562 87.55859375 174.969726562 c 4
 90.650390625 174.969726562 92.5009765625 175.99609375 92.5009765625 178.912109375 c 4
 92.5009765625 179.299804688 92.46875 179.720703125 92.40234375 180.176757812 c 4
 85.4716796875 216.533203125 60.0283203125 261.447265625 55.162109375 314.2421875 c 4
 54.0537109375 326.288085938 53.4716796875 338.939453125 53.4716796875 351.958984375 c 4
 53.4716796875 352.44921875 53.47265625 352.940429688 53.4736328125 353.432617188 c 4
 56.357421875 464.888671875 97.4921875 565.831054688 191.490234375 615.545898438 c 4
 269.416992188 655.609375 340.099609375 669.045898438 400.0078125 669.045898438 c 4
 400.465820312 669.045898438 400.924804688 669.044921875 401.380859375 669.043945312 c 4
 468.154296875 668.815429688 513.505859375 660.310546875 556.299804688 636.797851562 c 5
 571.5078125 681.734375 563.887695312 718.971679688 587.154296875 776.737304688 c 4
 587.198242188 776.845703125 587.21875 776.989257812 587.219726562 777.1640625 c 4
 587.219726562 777.171875 l 4
 587.219726562 778.671875 585.82421875 782.328125 585.82421875 783.845703125 c 4
 585.82421875 783.853515625 l 4
 585.825195312 784.043945312 585.846679688 784.200195312 585.897460938 784.313476562 c 4
 588.934570312 806.701171875 607.422851562 818.337890625 624.493164062 818.337890625 c 4
 631.737304688 818.337890625 638.7265625 816.243164062 644.171875 811.984375 c 4
239.62890625 605.2109375 m 5
 239.62890625 605.162109375 239.62890625 605.111328125 239.62890625 605.05859375 c 4
 239.62890625 599.461914062 240.60546875 574.74609375 246.717773438 571.38671875 c 4
 341.322265625 519.396484375 509.32421875 561.876953125 600.4921875 513.388671875 c 4
 605.999023438 510.978515625 609.747070312 509.767578125 612.407226562 509.7578125 c 4
 612.439453125 509.7578125 l 4
 615.162109375 509.7578125 616.741210938 511.026367188 617.90625 513.571289062 c 4
 582.790039062 608.889648438 496.37890625 640.83203125 408.396484375 640.83203125 c 4
 347.362304688 640.83203125 285.572265625 625.459960938 239.62890625 605.2109375 c 5
132.829101562 180.970703125 m 4
 129.6796875 179.893554688 127.88671875 177.090820312 127.88671875 174.403320312 c 4
 127.88671875 173.653320312 128.026367188 172.912109375 128.31640625 172.219726562 c 4
 165.774414062 82.40625 281.282226562 -7.0830078125 370.575195312 -8.7607421875 c 4
 370.8359375 -8.76171875 371.09765625 -8.76171875 371.359375 -8.76171875 c 4
 431.741210938 -8.76171875 491.651367188 15.232421875 533.666992188 45.6162109375 c 4
 543.986328125 53.318359375 552.828125 70.296875 552.869140625 82.4453125 c 4
 552.869140625 82.4951171875 l 4
 552.869140625 87.943359375 549.901367188 90.955078125 546.8828125 94.64453125 c 4
 483.934570312 171.573242188 267.637695312 108.5234375 132.829101562 180.970703125 c 4
EndSplineSet
EndChar

StartChar: T
Encoding: 84 84 39
Width: 903
VWidth: 0
Flags: HMW
LayerCount: 2
Fore
SplineSet
204.966796875 110.607421875 m 1
 123.321289062 198.731445312 90.51953125 280.587890625 90.51953125 354.025390625 c 0
 90.51953125 485.721679688 196.006835938 590.344726562 314.462890625 655.486328125 c 0
 314.462890625 656.564453125 313.583007812 657.536132812 312.5078125 657.647460938 c 0
 311.435546875 657.756835938 308.8046875 658.073242188 306.66015625 658.34765625 c 0
 200.192382812 660.7734375 111.25 656.965820312 25.3671875 670.952148438 c 0
 25.115234375 671.108398438 25 671.44140625 25 671.915039062 c 0
 25 675.940429688 33.3662109375 690.126953125 36.0625 691.697265625 c 0
 84.703125 694.379882812 127.00390625 744.397460938 163.359375 744.397460938 c 0
 174.040039062 744.397460938 184.208007812 740.080078125 193.87109375 728.975585938 c 0
 195.384765625 727.330078125 196.025390625 725.484375 196.025390625 723.5078125 c 0
 196.025390625 712.568359375 176.412109375 697.630859375 176.412109375 690.465820312 c 0
 176.412109375 690.103515625 176.462890625 689.759765625 176.569335938 689.438476562 c 1
 201.336914062 684.162109375 212.409179688 685.229492188 235.129882812 684.834960938 c 0
 235.413085938 684.840820312 235.698242188 684.84375 235.986328125 684.84375 c 0
 238.916992188 684.84375 242.120117188 684.578125 245.053710938 684.578125 c 0
 250.5859375 684.578125 255.161132812 685.51953125 255.161132812 690.950195312 c 0
 255.161132812 695.352539062 254.356445312 696.891601562 251.333984375 698.267578125 c 0
 244.344726562 705.7421875 241.322265625 716.341796875 241.322265625 727.810546875 c 0
 241.322265625 750.075195312 252.716796875 775.615234375 268.590820312 787.92578125 c 0
 288.915039062 803.690429688 311.578125 811.94140625 336.77734375 811.94140625 c 0
 365.905273438 811.94140625 398.419921875 800.91796875 434.629882812 777.736328125 c 0
 574.620117188 690.569335938 692.056640625 665.83203125 831.235351562 665.83203125 c 0
 838.538085938 665.83203125 845.899414062 665.900390625 853.328125 666.030273438 c 1
 856.879882812 685.228515625 860.080078125 710.767578125 885.172851562 710.767578125 c 0
 891.221679688 710.767578125 898.54296875 709.283203125 907.448242188 705.868164062 c 0
 909.741210938 702.638671875 910.33203125 700.311523438 910.33203125 697.384765625 c 0
 910.33203125 694.2890625 909.670898438 690.522460938 909.670898438 684.303710938 c 0
 909.670898438 682.299804688 909.739257812 680.041992188 909.920898438 677.471679688 c 0
 910.143554688 675.111328125 910.251953125 673.041015625 910.251953125 671.21484375 c 0
 910.251953125 657.614257812 904.211914062 657.52734375 894.061523438 652.366210938 c 0
 877.236328125 643.814453125 824.984375 640.6640625 759.245117188 640.6640625 c 0
 614.1171875 640.6640625 403.26171875 656.017578125 362.745117188 662.500976562 c 0
 362.5078125 662.538085938 362.21875 662.557617188 361.883789062 662.557617188 c 0
 353.411132812 662.557617188 314.8359375 650.23828125 301.280273438 615.6953125 c 0
 278.87109375 558.588867188 268.184570312 447.698242188 268.184570312 339.344726562 c 0
 268.184570312 228.743164062 279.3203125 120.783203125 300.487304688 75.3642578125 c 1
 353.665039062 11.873046875 409.708984375 -10.9150390625 457.385742188 -10.9150390625 c 0
 509.442382812 -10.9150390625 551.526367188 16.2548828125 569.017578125 47.2763671875 c 1
 587.418945312 122.346679688 600.533203125 236.875976562 600.533203125 346.752929688 c 0
 600.533203125 427.76953125 593.403320312 506.254882812 576.005859375 564.526367188 c 0
 571.501953125 572.622070312 558.21484375 576.090820312 545.6328125 576.090820312 c 0
 533.627929688 576.090820312 522.265625 572.93359375 519.788085938 567.627929688 c 1
 531.708007812 554.846679688 536.354492188 543.424804688 536.354492188 533.109375 c 0
 536.354492188 521.57421875 530.543945312 511.422851562 522.596679688 502.3046875 c 0
 514.2109375 495.166015625 505.602539062 491.606445312 497.712890625 491.606445312 c 0
 481.940429688 491.606445312 469.044921875 505.833007812 466.568359375 534.14453125 c 0
 466.549804688 534.844726562 466.540039062 535.54296875 466.540039062 536.240234375 c 0
 466.540039062 567.293945312 487.3046875 596.119140625 538.591796875 596.119140625 c 0
 545.376953125 596.119140625 552.6953125 595.61328125 560.571289062 594.54296875 c 0
 579.440429688 591.978515625 597.8359375 578.513671875 618.971679688 561.600585938 c 0
 710.786132812 485.193359375 749.01953125 393.966796875 749.01953125 305.647460938 c 0
 749.01953125 185.870117188 678.698242188 71.44140625 576.336914062 6.5810546875 c 0
 530.668945312 -22.3564453125 489.17578125 -34.06640625 451.087890625 -34.06640625 c 0
 349.7734375 -34.06640625 272.557617188 48.78515625 204.966796875 110.607421875 c 1
EndSplineSet
EndChar

